# Blender 5.1.1
# www.blender.org
mtllib bomb.mtl
o Icosphere
v 0.000000 -2.000000 0.000000
v 1.447215 -0.894439 1.051451
v -0.552776 -0.894439 1.701299
v -1.788852 -0.894431 0.000000
v -0.552776 -0.894440 -1.701298
v 1.447215 -0.894439 -1.051450
v 0.552776 0.894440 1.701298
v -1.447215 0.894439 1.051450
v -1.447215 0.894439 -1.051451
v 0.552776 0.894439 -1.701299
v 1.788852 0.894431 -0.000000
v 0.000000 2.000000 -0.000000
v -0.465643 -1.315038 1.433126
v -0.324911 -1.701309 0.999991
v -0.155213 -1.935899 0.477706
v 0.406362 -1.935899 0.295236
v 0.850645 -1.701308 0.618023
v 1.219093 -1.315038 0.885713
v 1.063882 -1.004603 1.363425
v 0.525738 -1.051475 1.618023
v -0.059279 -1.004604 1.728369
v 1.625458 -1.004601 -0.590475
v 1.701296 -1.051472 0.000000
v 1.625458 -1.004601 0.590476
v 0.406362 -1.935899 -0.295235
v 0.850645 -1.701308 -0.618022
v 1.219093 -1.315038 -0.885713
v -1.506883 -1.315030 0.000000
v -1.051460 -1.701303 0.000000
v -0.502294 -1.935898 0.000000
v -0.967943 -1.004603 1.433129
v -1.376379 -1.051472 0.999994
v -1.662101 -1.004597 0.477707
v -0.465643 -1.315039 -1.433126
v -0.324911 -1.701309 -0.999990
v -0.155213 -1.935899 -0.477705
v -1.662101 -1.004597 -0.477707
v -1.376379 -1.051473 -0.999994
v -0.967943 -1.004604 -1.433129
v -0.059279 -1.004604 -1.728368
v 0.525738 -1.051476 -1.618023
v 1.063882 -1.004604 -1.363425
v 1.913252 0.502299 0.295237
v 1.902116 0.000000 0.618025
v 1.721395 -0.502302 0.885715
v 1.721395 -0.502302 -0.885715
v 1.902116 -0.000000 -0.618025
v 1.913252 0.502299 -0.295237
v 0.310430 0.502303 1.910844
v 0.000000 0.000000 2.000000
v -0.310430 -0.502303 1.910844
v 1.374317 -0.502304 1.363431
v 1.175571 0.000000 1.618033
v 0.872014 0.502304 1.728376
v -1.721395 0.502302 0.885715
v -1.902116 0.000000 0.618025
v -1.913252 -0.502299 0.295237
v -0.872014 -0.502304 1.728376
v -1.175571 0.000000 1.618034
v -1.374317 0.502304 1.363431
v -1.374317 0.502304 -1.363431
v -1.175571 -0.000000 -1.618033
v -0.872014 -0.502304 -1.728376
v -1.913252 -0.502299 -0.295237
v -1.902116 -0.000000 -0.618025
v -1.721395 0.502302 -0.885715
v 0.872014 0.502304 -1.728376
v 1.175571 -0.000000 -1.618034
v 1.374317 -0.502304 -1.363431
v -0.310430 -0.502303 -1.910844
v 0.000000 -0.000000 -2.000000
v 0.310430 0.502303 -1.910844
v 1.662101 1.004597 0.477707
v 1.376379 1.051473 0.999994
v 0.967943 1.004604 1.433129
v 0.059279 1.004604 1.728368
v -0.525738 1.051476 1.618023
v -1.063882 1.004604 1.363425
v -1.625458 1.004601 0.590475
v -1.701296 1.051472 -0.000000
v -1.625458 1.004601 -0.590476
v -1.063882 1.004603 -1.363425
v -0.525738 1.051475 -1.618023
v 0.059279 1.004604 -1.728369
v 0.967943 1.004603 -1.433129
v 1.376379 1.051472 -0.999994
v 1.662101 1.004597 -0.477707
v 0.155213 1.935899 0.477705
v 0.324911 1.701309 0.999990
v 0.465643 1.315039 1.433126
v 1.506883 1.315030 -0.000000
v 1.051460 1.701303 -0.000000
v 0.502294 1.935898 -0.000000
v -0.406362 1.935899 0.295235
v -0.850645 1.701308 0.618022
v -1.219093 1.315038 0.885713
v -0.406362 1.935899 -0.295236
v -0.850645 1.701308 -0.618023
v -1.219093 1.315038 -0.885713
v 0.155213 1.935899 -0.477706
v 0.324911 1.701309 -0.999991
v 0.465643 1.315038 -1.433126
v 0.723601 1.788858 -0.525726
v 1.276387 1.447220 -0.525728
v 0.894418 1.447223 -1.051457
v -0.276395 1.788860 -0.850639
v -0.105579 1.447224 -1.376370
v -0.723607 1.447224 -1.175557
v -0.894420 1.788858 -0.000000
v -1.341633 1.447222 -0.324914
v -1.341633 1.447222 0.324914
v -0.276395 1.788860 0.850639
v -0.723607 1.447225 1.175557
v -0.105579 1.447225 1.376370
v 0.723601 1.788859 0.525726
v 0.894418 1.447223 1.051456
v 1.276387 1.447220 0.525728
v 1.723608 0.552792 -0.850644
v 1.618039 -0.000000 -1.175564
v 1.341641 0.552795 -1.376378
v -0.276397 0.552794 -1.902110
v -0.618033 -0.000001 -1.902113
v -0.894430 0.552794 -1.701298
v -1.894426 0.552792 -0.324915
v -2.000000 0.000001 0.000001
v -1.894426 0.552793 0.324916
v -0.894432 0.552794 1.701297
v -0.618034 -0.000001 1.902113
v -0.276399 0.552794 1.902110
v 1.341641 0.552793 1.376379
v 1.618037 -0.000004 1.175566
v 1.723608 0.552789 0.850646
v 0.618034 -0.000000 -1.902113
v 0.894431 -0.552796 -1.701297
v 0.276398 -0.552795 -1.902110
v -1.618037 -0.000000 -1.175567
v -1.341638 -0.552795 -1.376381
v -1.723606 -0.552793 -0.850648
v -1.618037 0.000000 1.175567
v -1.723606 -0.552793 0.850648
v -1.341638 -0.552794 1.376382
v 0.618034 0.000000 1.902113
v 0.276398 -0.552795 1.902110
v 0.894431 -0.552795 1.701297
v 2.000000 0.000000 0.000000
v 1.894426 -0.552792 0.324915
v 1.894426 -0.552792 -0.324915
v 0.723607 -1.447223 -1.175558
v 0.276394 -1.788858 -0.850642
v 0.105578 -1.447222 -1.376372
v -0.894421 -1.447223 -1.051454
v -0.723602 -1.788858 -0.525725
v -1.276389 -1.447219 -0.525725
v -1.276389 -1.447218 0.525728
v -0.723603 -1.788857 0.525729
v -0.894421 -1.447221 1.051458
v 1.341634 -1.447221 -0.324913
v 1.341635 -1.447220 0.324916
v 0.894422 -1.788857 0.000002
v 0.105581 -1.447223 1.376371
v 0.276397 -1.788858 0.850642
v 0.723610 -1.447222 1.175559
v 0.000000 1.371588 -0.682918
v 0.000000 2.191327 -0.682918
v 0.176752 1.371588 -0.659648
v 0.176752 2.191327 -0.659648
v 0.341459 1.371588 -0.591424
v 0.341459 2.191327 -0.591424
v 0.482896 1.371588 -0.482896
v 0.482896 2.191327 -0.482896
v 0.591424 1.371588 -0.341459
v 0.591424 2.191327 -0.341459
v 0.659648 1.371588 -0.176752
v 0.659648 2.191327 -0.176752
v 0.682918 1.371588 0.000000
v 0.682918 2.191327 -0.000000
v 0.659648 1.371588 0.176752
v 0.659648 2.191327 0.176752
v 0.591424 1.371588 0.341459
v 0.591424 2.191327 0.341459
v 0.482896 1.371588 0.482896
v 0.482896 2.191327 0.482896
v 0.341459 1.371588 0.591424
v 0.341459 2.191327 0.591424
v 0.176752 1.371588 0.659648
v 0.176752 2.191327 0.659648
v 0.000000 1.371588 0.682918
v 0.000000 2.191327 0.682918
v -0.176752 1.371588 0.659648
v -0.176752 2.191327 0.659648
v -0.341459 1.371588 0.591424
v -0.341459 2.191327 0.591424
v -0.482896 1.371588 0.482896
v -0.482896 2.191327 0.482896
v -0.591424 1.371588 0.341459
v -0.591424 2.191327 0.341459
v -0.659648 1.371588 0.176752
v -0.659648 2.191327 0.176752
v -0.682918 1.371588 0.000000
v -0.682918 2.191327 -0.000000
v -0.659648 1.371588 -0.176752
v -0.659648 2.191327 -0.176752
v -0.591424 1.371588 -0.341459
v -0.591424 2.191327 -0.341459
v -0.482896 1.371588 -0.482896
v -0.482896 2.191327 -0.482896
v -0.341459 1.371588 -0.591424
v -0.341459 2.191327 -0.591424
v -0.176752 1.371588 -0.659648
v -0.176752 2.191327 -0.659648
v -0.010040 2.653921 0.623514
v 0.134681 2.479045 0.667908
v -0.065318 2.429344 0.626041
v -0.188925 2.559460 0.735650
v -0.065318 2.689577 0.845257
v 0.134681 2.639876 0.803390
v 0.045238 2.276500 0.807484
v -0.154761 2.326201 0.849351
v -0.154761 2.487033 0.984832
v 0.045238 2.536733 1.026699
v 0.168845 2.406618 0.917091
v -0.010040 2.312156 1.029226
v -0.042531 2.551921 0.589385
v 0.075025 2.581134 0.613993
v 0.042534 2.449131 0.615479
v 0.160090 2.572878 0.719722
v 0.075025 2.675667 0.693627
v -0.115186 2.628400 0.653811
v -0.147678 2.496397 0.655296
v -0.042531 2.704880 0.718235
v -0.147678 2.649358 0.784147
v 0.042534 2.696626 0.823964
v 0.180172 2.435772 0.786553
v 0.180172 2.530306 0.866187
v -0.010040 2.330077 0.697518
v 0.107517 2.359290 0.722127
v -0.200252 2.435772 0.786553
v -0.127597 2.359290 0.722127
v -0.127597 2.606787 0.930614
v -0.200252 2.530306 0.866187
v 0.107517 2.606787 0.930614
v -0.010040 2.636000 0.955222
v 0.127598 2.316720 0.868593
v -0.062614 2.269452 0.828777
v -0.180170 2.393200 0.933019
v -0.062614 2.516947 1.037262
v 0.127598 2.469680 0.997445
v 0.022451 2.261197 0.934505
v 0.095106 2.337677 0.998930
v -0.095104 2.290410 0.959114
v -0.095104 2.384944 1.038747
v 0.022451 2.414157 1.063356
v -0.010040 1.889538 0.000179
v 0.134681 2.036156 0.105324
v -0.065318 2.036156 0.170308
v -0.188925 2.036157 0.000179
v -0.065318 2.036156 -0.169951
v 0.134681 2.036156 -0.104966
v 0.045238 2.273396 0.170308
v -0.154761 2.273396 0.105324
v -0.154761 2.273396 -0.104966
v 0.045238 2.273396 -0.169951
v 0.168845 2.273395 0.000179
v -0.010040 2.420014 0.000179
v -0.042531 1.929150 0.100178
v 0.075025 1.929150 0.061981
v 0.042534 2.015330 0.161981
v 0.160090 2.015331 0.000179
v 0.075025 1.929150 -0.061624
v -0.115186 1.929151 0.000179
v -0.147678 2.015331 0.100178
v -0.042531 1.929150 -0.099820
v -0.147678 2.015331 -0.099821
v 0.042534 2.015330 -0.161624
v 0.180172 2.154776 0.061981
v 0.180172 2.154776 -0.061624
v -0.010040 2.154776 0.200179
v 0.107517 2.154776 0.161982
v -0.200252 2.154776 0.061981
v -0.127597 2.154776 0.161982
v -0.127597 2.154776 -0.161625
v -0.200252 2.154776 -0.061624
v 0.107517 2.154776 -0.161625
v -0.010040 2.154776 -0.199821
v 0.127598 2.294221 0.100178
v -0.062614 2.294222 0.161981
v -0.180170 2.294221 0.000179
v -0.062614 2.294222 -0.161624
v 0.127598 2.294221 -0.099821
v 0.022451 2.380402 0.100178
v 0.095106 2.380401 0.000179
v -0.095104 2.380402 0.061981
v -0.095104 2.380402 -0.061624
v 0.022451 2.380402 -0.099820
v -0.010040 2.518100 0.059531
v 0.134681 2.424990 0.214072
v -0.065318 2.360213 0.219258
v -0.188925 2.529800 0.205683
v -0.065318 2.699387 0.192105
v 0.134681 2.634610 0.197291
v 0.045238 2.379145 0.455741
v -0.154761 2.443923 0.450555
v -0.154761 2.653542 0.433773
v 0.045238 2.718319 0.428588
v 0.168845 2.548732 0.442163
v -0.010040 2.560433 0.588315
v -0.042531 2.421581 0.106997
v 0.075025 2.459656 0.103949
v 0.042534 2.366852 0.197834
v 0.160090 2.528138 0.184923
v 0.075025 2.582866 0.094085
v -0.115186 2.521261 0.099017
v -0.147678 2.428457 0.192903
v -0.042531 2.620941 0.091036
v -0.147678 2.627819 0.176942
v 0.042534 2.689424 0.172010
v 0.180172 2.477661 0.328855
v 0.180172 2.600872 0.318991
v -0.010040 2.339904 0.339884
v 0.107517 2.377979 0.336835
v -0.200252 2.477661 0.328855
v -0.127597 2.377979 0.336835
v -0.127597 2.700553 0.311011
v -0.200252 2.600872 0.318991
v 0.107517 2.700553 0.311011
v -0.010040 2.738628 0.307962
v 0.127598 2.450714 0.470904
v -0.062614 2.389108 0.475836
v -0.180170 2.550394 0.462923
v -0.062614 2.711680 0.450012
v 0.127598 2.650075 0.454943
v 0.022451 2.457592 0.556810
v 0.095106 2.557271 0.548829
v -0.095104 2.495667 0.553761
v -0.095104 2.618877 0.543897
v 0.022451 2.656952 0.540849
v -0.010040 2.557413 0.335138
v 0.134681 2.457243 0.485200
v -0.065318 2.392295 0.487379
v -0.188925 2.562329 0.481675
v -0.065318 2.732363 0.475970
v 0.134681 2.667415 0.478149
v 0.045238 2.400250 0.724485
v -0.154761 2.465198 0.722306
v -0.154761 2.675370 0.715255
v 0.045238 2.740318 0.713076
v 0.168845 2.570284 0.718779
v -0.010040 2.575201 0.865316
v -0.042531 2.458798 0.378081
v 0.075025 2.496974 0.376801
v 0.042534 2.399920 0.466286
v 0.160090 2.561631 0.460861
v 0.075025 2.620509 0.372656
v -0.115186 2.558741 0.374729
v -0.147678 2.461688 0.464214
v -0.042531 2.658684 0.371375
v -0.147678 2.661574 0.457507
v 0.042534 2.723342 0.455435
v 0.180172 2.504539 0.602300
v 0.180172 2.628074 0.598155
v -0.010040 2.366419 0.606934
v 0.107517 2.404594 0.605653
v -0.200252 2.504539 0.602300
v -0.127597 2.404594 0.605653
v -0.127597 2.728019 0.594802
v -0.200252 2.628074 0.598155
v 0.107517 2.728019 0.594802
v -0.010040 2.766194 0.593521
v 0.127598 2.471040 0.742947
v -0.062614 2.409271 0.745020
v -0.180170 2.570983 0.739594
v -0.062614 2.732694 0.734169
v 0.127598 2.670926 0.736241
v 0.022451 2.473930 0.829080
v 0.095106 2.573872 0.825726
v -0.095104 2.512105 0.827799
v -0.095104 2.635640 0.823654
v 0.022451 2.673815 0.822373
v -0.010040 2.180988 -0.086606
v 0.134681 2.219493 0.089661
v -0.065318 2.175983 0.137930
v -0.188925 2.289893 0.011562
v -0.065318 2.403801 -0.114806
v 0.134681 2.360291 -0.066537
v 0.045238 2.352198 0.296772
v -0.154761 2.395708 0.248503
v -0.154761 2.536506 0.092305
v 0.045238 2.580017 0.044036
v 0.168845 2.466107 0.170403
v -0.010040 2.575012 0.268571
v -0.042531 2.143457 0.014193
v 0.075025 2.169032 -0.014178
v 0.042534 2.166090 0.117800
v 0.160090 2.274424 -0.002382
v 0.075025 2.251790 -0.105989
v -0.115186 2.210411 -0.060083
v -0.147678 2.207470 0.071895
v -0.042531 2.277364 -0.134360
v -0.147678 2.341377 -0.076659
v 0.042534 2.382757 -0.122565
v 0.180172 2.336620 0.136888
v 0.180172 2.419379 0.045077
v -0.010040 2.244091 0.239537
v 0.107517 2.269665 0.211166
v -0.200252 2.336620 0.136888
v -0.127597 2.269665 0.211166
v -0.127597 2.486334 -0.029201
v -0.200252 2.419379 0.045077
v 0.107517 2.486334 -0.029201
v -0.010040 2.511908 -0.057572
v 0.127598 2.414622 0.258624
v -0.062614 2.373243 0.304530
v -0.180170 2.481576 0.184347
v -0.062614 2.589910 0.064165
v 0.127598 2.548530 0.110070
v 0.022451 2.478635 0.316326
v 0.095106 2.545588 0.242048
v -0.095104 2.504210 0.287954
v -0.095104 2.586968 0.196144
v 0.022451 2.612542 0.167772
vn -0.0000 -1.0000 -0.0000
vn 0.2110 -0.9654 0.1533
vn -0.0806 -0.9654 0.2480
vn 0.7236 -0.4472 0.5257
vn 0.6042 -0.6650 0.4390
vn 0.8152 -0.5038 0.2857
vn -0.2608 -0.9654 -0.0000
vn -0.0806 -0.9654 -0.2480
vn 0.2110 -0.9654 -0.1533
vn 0.8650 -0.2431 0.4390
vn -0.2764 -0.4472 0.8506
vn -0.0198 -0.5038 0.8636
vn -0.1502 -0.2431 0.9583
vn -0.8944 -0.4472 -0.0000
vn -0.8274 -0.5038 0.2480
vn -0.9578 -0.2431 0.1533
vn -0.2764 -0.4472 -0.8506
vn -0.4915 -0.5038 -0.7103
vn -0.4417 -0.2431 -0.8636
vn 0.7236 -0.4472 -0.5257
vn 0.5237 -0.5038 -0.6870
vn 0.6848 -0.2431 -0.6870
vn 0.6848 -0.2431 0.6870
vn -0.4417 -0.2431 0.8636
vn -0.9578 -0.2431 -0.1533
vn -0.1502 -0.2431 -0.9583
vn 0.8650 -0.2431 -0.4390
vn 0.2764 0.4472 0.8506
vn 0.4915 0.5038 0.7103
vn 0.2308 0.6650 0.7103
vn -0.7236 0.4472 0.5257
vn -0.5237 0.5038 0.6870
vn -0.6042 0.6650 0.4390
vn -0.7236 0.4472 -0.5257
vn -0.8152 0.5038 -0.2857
vn -0.6042 0.6650 -0.4390
vn 0.2764 0.4472 -0.8506
vn 0.0198 0.5038 -0.8636
vn 0.2308 0.6650 -0.7103
vn 0.8944 0.4472 -0.0000
vn 0.8274 0.5038 -0.2480
vn 0.7469 0.6650 -0.0000
vn 0.2607 0.9654 -0.0000
vn 0.0806 0.9654 -0.2480
vn -0.0000 1.0000 -0.0000
vn 0.5257 0.8507 -0.0000
vn 0.3682 0.8904 -0.2675
vn 0.6317 0.7275 -0.2675
vn 0.1625 0.8507 -0.5000
vn 0.4496 0.7276 -0.5182
vn 0.6882 0.5257 -0.5000
vn 0.4915 0.5038 -0.7103
vn -0.2110 0.9654 -0.1533
vn -0.1406 0.8904 -0.4329
vn -0.0592 0.7276 -0.6835
vn -0.4253 0.8507 -0.3090
vn -0.3539 0.7276 -0.5878
vn -0.2629 0.5257 -0.8090
vn -0.5237 0.5038 -0.6870
vn -0.2110 0.9654 0.1533
vn -0.4551 0.8904 -0.0000
vn -0.6683 0.7276 -0.1549
vn -0.4253 0.8507 0.3090
vn -0.6683 0.7276 0.1549
vn -0.8506 0.5257 -0.0000
vn -0.8152 0.5038 0.2857
vn 0.0806 0.9654 0.2480
vn -0.1406 0.8904 0.4329
vn -0.3539 0.7276 0.5878
vn 0.1625 0.8507 0.5000
vn -0.0592 0.7276 0.6835
vn -0.2629 0.5257 0.8090
vn 0.0198 0.5038 0.8636
vn 0.3682 0.8904 0.2675
vn 0.4496 0.7276 0.5182
vn 0.6317 0.7275 0.2675
vn 0.6882 0.5257 0.5000
vn 0.8274 0.5038 0.2480
vn 0.9578 0.2431 -0.1533
vn 0.9511 -0.0000 -0.3090
vn 0.8593 0.2724 -0.4329
vn 0.8090 0.0089 -0.5878
vn 0.6772 0.2724 -0.6835
vn 0.5878 -0.0000 -0.8090
vn 0.4417 0.2431 -0.8636
vn 0.1502 0.2431 -0.9583
vn -0.0000 -0.0000 -1.0000
vn -0.1461 0.2724 -0.9510
vn -0.3090 0.0089 -0.9510
vn -0.4408 0.2724 -0.8553
vn -0.5878 -0.0000 -0.8090
vn -0.6848 0.2431 -0.6870
vn -0.8650 0.2431 -0.4390
vn -0.9511 -0.0000 -0.3090
vn -0.9496 0.2724 -0.1549
vn -1.0000 0.0089 -0.0000
vn -0.9496 0.2724 0.1549
vn -0.9511 -0.0000 0.3090
vn -0.8650 0.2431 0.4390
vn -0.6848 0.2431 0.6870
vn -0.5878 -0.0000 0.8090
vn -0.4408 0.2724 0.8553
vn -0.3090 0.0089 0.9510
vn -0.1461 0.2724 0.9510
vn -0.0000 -0.0000 1.0000
vn 0.1502 0.2431 0.9583
vn 0.4417 0.2431 0.8636
vn 0.5878 -0.0000 0.8090
vn 0.6772 0.2724 0.6835
vn 0.8090 0.0089 0.5878
vn 0.8593 0.2724 0.4329
vn 0.9511 -0.0000 0.3090
vn 0.9578 0.2431 0.1533
vn 0.3090 -0.0089 -0.9510
vn 0.4408 -0.2724 -0.8553
vn 0.1461 -0.2724 -0.9510
vn 0.2629 -0.5257 -0.8090
vn -0.0198 -0.5038 -0.8636
vn -0.8090 -0.0089 -0.5878
vn -0.6772 -0.2724 -0.6835
vn -0.8593 -0.2724 -0.4329
vn -0.6882 -0.5257 -0.5000
vn -0.8274 -0.5038 -0.2480
vn -0.8090 -0.0089 0.5878
vn -0.8593 -0.2724 0.4329
vn -0.6772 -0.2724 0.6835
vn -0.6882 -0.5257 0.5000
vn -0.4915 -0.5038 0.7103
vn 0.3090 -0.0089 0.9510
vn 0.1461 -0.2724 0.9510
vn 0.4408 -0.2724 0.8553
vn 0.2629 -0.5257 0.8090
vn 0.5237 -0.5038 0.6870
vn 1.0000 -0.0089 -0.0000
vn 0.9496 -0.2724 0.1549
vn 0.9496 -0.2724 -0.1549
vn 0.8506 -0.5257 -0.0000
vn 0.8152 -0.5038 -0.2857
vn 0.6042 -0.6650 -0.4390
vn 0.4253 -0.8507 -0.3090
vn 0.3539 -0.7276 -0.5878
vn 0.1406 -0.8904 -0.4329
vn 0.0592 -0.7276 -0.6835
vn -0.1625 -0.8507 -0.5000
vn -0.2308 -0.6650 -0.7103
vn -0.4496 -0.7276 -0.5182
vn -0.3682 -0.8904 -0.2675
vn -0.6317 -0.7275 -0.2675
vn -0.5257 -0.8507 -0.0000
vn -0.7469 -0.6650 -0.0000
vn -0.6317 -0.7275 0.2675
vn -0.3682 -0.8904 0.2675
vn -0.4496 -0.7275 0.5182
vn -0.1625 -0.8507 0.5000
vn -0.2308 -0.6650 0.7103
vn 0.6683 -0.7275 -0.1549
vn 0.6683 -0.7275 0.1549
vn 0.4551 -0.8904 -0.0000
vn 0.4253 -0.8507 0.3090
vn 0.0592 -0.7276 0.6835
vn 0.1406 -0.8904 0.4329
vn 0.3539 -0.7276 0.5878
vn 0.2588 -0.0000 -0.9659
vn 0.5000 -0.0000 -0.8660
vn 0.7071 -0.0000 -0.7071
vn 0.8660 -0.0000 -0.5000
vn 0.9659 -0.0000 -0.2588
vn 1.0000 -0.0000 -0.0000
vn 0.9659 -0.0000 0.2588
vn 0.8660 -0.0000 0.5000
vn 0.7071 -0.0000 0.7071
vn 0.5000 -0.0000 0.8660
vn 0.2588 -0.0000 0.9659
vn -0.2588 -0.0000 0.9659
vn -0.5000 -0.0000 0.8660
vn -0.7071 -0.0000 0.7071
vn -0.8660 -0.0000 0.5000
vn -0.9659 -0.0000 0.2588
vn -1.0000 -0.0000 -0.0000
vn -0.9659 -0.0000 -0.2588
vn -0.8660 -0.0000 -0.5000
vn -0.7071 -0.0000 -0.7071
vn -0.5000 -0.0000 -0.8660
vn -0.2588 -0.0000 -0.9659
vn -0.0000 0.6443 -0.7648
vn 0.4951 0.2345 -0.8366
vn -0.1891 0.0645 -0.9798
vn 0.7526 -0.1819 -0.6328
vn 0.8963 0.2857 -0.3391
vn -0.6119 0.5096 -0.6049
vn -0.1891 0.9547 -0.2300
vn 0.4951 0.7846 -0.3732
vn 0.9511 -0.2363 -0.1991
vn -0.2875 -0.4403 -0.8506
vn 0.2770 -0.3663 -0.8883
vn -0.0000 -0.7648 -0.6443
vn -0.9303 0.2363 -0.2805
vn -0.7251 -0.1172 -0.6786
vn -0.9511 -0.2363 -0.1991
vn -0.2875 0.9130 0.2895
vn -0.7251 0.6886 0.0003
vn -0.5878 0.6187 0.5212
vn 0.7526 0.6545 0.0717
vn 0.2770 0.9376 0.2100
vn 0.5878 0.6187 0.5212
vn 0.5878 -0.6187 -0.5212
vn -0.5878 -0.6187 -0.5212
vn -0.9511 0.2363 0.1991
vn -0.0000 0.7648 0.6443
vn 0.9511 0.2363 0.1991
vn 0.2875 -0.9130 -0.2895
vn 0.7251 -0.6886 -0.0003
vn 0.1891 -0.9547 0.2300
vn -0.7526 -0.6545 -0.0717
vn -0.2770 -0.9376 -0.2100
vn -0.4951 -0.7846 0.3732
vn -0.7526 0.1819 0.6328
vn -0.8963 -0.2857 0.3391
vn -0.4951 -0.2345 0.8366
vn 0.2875 0.4403 0.8506
vn -0.2770 0.3663 0.8883
vn 0.1891 -0.0645 0.9798
vn 0.9303 -0.2363 0.2805
vn 0.7251 0.1172 0.6786
vn 0.6119 -0.5096 0.6049
vn -0.0000 -0.6443 0.7648
vn 0.4951 -0.7909 0.3597
vn -0.1891 -0.7909 0.5820
vn 0.7526 -0.3668 0.5468
vn 0.8963 -0.4434 -0.0000
vn -0.6119 -0.7909 -0.0000
vn -0.1891 -0.7909 -0.5820
vn 0.4951 -0.7909 -0.3597
vn -0.2875 -0.3668 0.8848
vn 0.2770 -0.4434 0.8524
vn -0.9303 -0.3668 -0.0000
vn -0.7251 -0.4434 0.5268
vn -0.2875 -0.3668 -0.8848
vn -0.7251 -0.4434 -0.5268
vn 0.7526 -0.3668 -0.5468
vn 0.2770 -0.4434 -0.8524
vn 0.2875 0.3668 0.8848
vn 0.7251 0.4434 0.5268
vn 0.1891 0.7909 0.5820
vn -0.7526 0.3668 0.5468
vn -0.2770 0.4434 0.8524
vn -0.4951 0.7909 0.3597
vn -0.7526 0.3668 -0.5468
vn -0.8963 0.4434 -0.0000
vn -0.4951 0.7909 -0.3597
vn 0.2875 0.3668 -0.8848
vn -0.2770 0.4434 -0.8524
vn 0.1891 0.7909 -0.5820
vn 0.9303 0.3668 -0.0000
vn 0.7251 0.4434 -0.5268
vn 0.6119 0.7909 -0.0000
vn -0.0000 -0.0798 -0.9968
vn 0.4951 -0.4216 -0.7597
vn -0.1891 -0.6432 -0.7419
vn 0.7526 -0.5743 -0.3220
vn 0.8963 -0.0354 -0.4420
vn -0.6119 -0.0631 -0.7884
vn -0.1891 0.5170 -0.8348
vn 0.4951 0.2954 -0.8171
vn 0.9511 -0.3080 0.0247
vn -0.2875 -0.9112 -0.2950
vn 0.2770 -0.8851 -0.3740
vn -0.0000 -0.9968 0.0798
vn -0.9303 -0.0293 -0.3656
vn -0.7251 -0.5605 -0.4000
vn -0.9511 -0.3080 0.0247
vn -0.2875 0.8527 -0.4363
vn -0.7251 0.4898 -0.4841
vn -0.5878 0.8064 -0.0646
vn 0.7526 0.5158 -0.4093
vn 0.2770 0.8143 -0.5100
vn 0.5878 0.8064 -0.0646
vn 0.5878 -0.8064 0.0646
vn -0.5878 -0.8064 0.0646
vn -0.9511 0.3080 -0.0247
vn -0.0000 0.9968 -0.0798
vn 0.9511 0.3080 -0.0247
vn 0.2875 -0.8527 0.4363
vn 0.7251 -0.4898 0.4841
vn 0.1891 -0.5170 0.8348
vn -0.7526 -0.5158 0.4093
vn -0.2770 -0.8143 0.5100
vn -0.4951 -0.2954 0.8171
vn -0.7526 0.5743 0.3220
vn -0.8963 0.0354 0.4420
vn -0.4951 0.4216 0.7597
vn 0.2875 0.9112 0.2950
vn -0.2770 0.8851 0.3740
vn 0.1891 0.6432 0.7419
vn 0.9303 0.0293 0.3656
vn 0.7251 0.5605 0.4000
vn 0.6119 0.0631 0.7884
vn -0.0000 0.0798 0.9968
vn -0.0000 -0.0335 -0.9994
vn 0.4951 -0.3860 -0.7784
vn -0.1891 -0.6082 -0.7710
vn 0.7526 -0.5588 -0.3483
vn 0.8963 -0.0149 -0.4432
vn -0.6119 -0.0265 -0.7905
vn -0.1891 0.5551 -0.8100
vn 0.4951 0.3330 -0.8025
vn 0.9511 -0.3088 0.0104
vn -0.2875 -0.8966 -0.3369
vn 0.2770 -0.8668 -0.4146
vn -0.0000 -0.9994 0.0335
vn -0.9303 -0.0123 -0.3666
vn -0.7251 -0.5414 -0.4255
vn -0.9511 -0.3088 0.0104
vn -0.2875 0.8720 -0.3963
vn -0.7251 0.5117 -0.4609
vn -0.5878 0.8086 -0.0271
vn 0.7526 0.5342 -0.3849
vn 0.2770 0.8371 -0.4718
vn 0.5878 0.8086 -0.0271
vn 0.5878 -0.8086 0.0271
vn -0.5878 -0.8086 0.0271
vn -0.9511 0.3088 -0.0104
vn -0.0000 0.9994 -0.0335
vn 0.9511 0.3088 -0.0104
vn 0.2875 -0.8720 0.3963
vn 0.7251 -0.5117 0.4609
vn 0.1891 -0.5551 0.8100
vn -0.7526 -0.5342 0.3849
vn -0.2770 -0.8371 0.4718
vn -0.4951 -0.3330 0.8025
vn -0.7526 0.5588 0.3483
vn -0.8963 0.0149 0.4432
vn -0.4951 0.3860 0.7784
vn 0.2875 0.8966 0.3369
vn -0.2770 0.8668 0.4146
vn 0.1891 0.6082 0.7710
vn 0.9303 0.0123 0.3666
vn 0.7251 0.5414 0.4255
vn 0.6119 0.0265 0.7905
vn -0.0000 0.0335 0.9994
vn -0.0000 -0.7428 -0.6695
vn 0.4951 -0.8283 -0.2624
vn -0.1891 -0.9771 -0.0973
vn 0.7526 -0.6386 0.1606
vn 0.8963 -0.3294 -0.2969
vn -0.6119 -0.5875 -0.5295
vn -0.1891 -0.1978 -0.9618
vn 0.4951 -0.3466 -0.7967
vn 0.9511 -0.2069 0.2295
vn -0.2875 -0.8648 0.4116
vn 0.2770 -0.9001 0.3363
vn -0.0000 -0.6695 0.7428
vn -0.9303 -0.2725 -0.2456
vn -0.7251 -0.6821 0.0944
vn -0.9511 -0.2069 0.2295
vn -0.2875 0.3199 -0.9028
vn -0.7251 0.0234 -0.6882
vn -0.5878 0.5417 -0.6009
vn 0.7526 0.0936 -0.6518
vn 0.2770 0.2414 -0.9301
vn 0.5878 0.5417 -0.6009
vn 0.5878 -0.5417 0.6009
vn -0.5878 -0.5417 0.6009
vn -0.9511 0.2069 -0.2295
vn -0.0000 0.6695 -0.7428
vn 0.9511 0.2069 -0.2295
vn 0.2875 -0.3199 0.9028
vn 0.7251 -0.0234 0.6882
vn 0.1891 0.1978 0.9618
vn -0.7526 -0.0936 0.6518
vn -0.2770 -0.2414 0.9301
vn -0.4951 0.3466 0.7967
vn -0.7526 0.6386 -0.1606
vn -0.8963 0.3294 0.2969
vn -0.4951 0.8283 0.2624
vn 0.2875 0.8649 -0.4116
vn -0.2770 0.9001 -0.3363
vn 0.1891 0.9771 0.0973
vn 0.9303 0.2725 0.2456
vn 0.7251 0.6821 -0.0944
vn 0.6119 0.5875 0.5295
vn -0.0000 0.7428 0.6695
vt 0.181819 0.000000
vt 0.204546 0.039365
vt 0.159092 0.039365
vt 0.272728 0.157461
vt 0.295455 0.118096
vt 0.318182 0.157461
vt 0.909091 0.000000
vt 0.931818 0.039365
vt 0.886364 0.039365
vt 0.727273 0.000000
vt 0.750000 0.039365
vt 0.704546 0.039365
vt 0.545455 0.000000
vt 0.568182 0.039365
vt 0.522728 0.039365
vt 0.295455 0.196826
vt 0.090910 0.157461
vt 0.136364 0.157461
vt 0.113637 0.196826
vt 0.818182 0.157461
vt 0.863636 0.157461
vt 0.840909 0.196826
vt 0.636364 0.157461
vt 0.681818 0.157461
vt 0.659091 0.196826
vt 0.454546 0.157461
vt 0.500000 0.157461
vt 0.477273 0.196826
vt 0.250001 0.196826
vt 0.068182 0.196826
vt 0.795455 0.196826
vt 0.613637 0.196826
vt 0.431819 0.196826
vt 0.181819 0.314921
vt 0.227273 0.314921
vt 0.204546 0.354286
vt 0.000000 0.314921
vt 0.045455 0.314921
vt 0.022727 0.354286
vt 0.727273 0.314921
vt 0.772727 0.314921
vt 0.750000 0.354286
vt 0.545455 0.314921
vt 0.590909 0.314921
vt 0.568182 0.354286
vt 0.363637 0.314921
vt 0.409091 0.314921
vt 0.386364 0.354286
vt 0.431819 0.433017
vt 0.477273 0.433017
vt 0.454546 0.472382
vt 0.409091 0.393651
vt 0.454546 0.393651
vt 0.431819 0.354286
vt 0.500000 0.393651
vt 0.477273 0.354286
vt 0.522728 0.354286
vt 0.454546 0.314921
vt 0.500000 0.314921
vt 0.613637 0.433017
vt 0.659091 0.433017
vt 0.636364 0.472382
vt 0.590909 0.393651
vt 0.636364 0.393651
vt 0.613637 0.354286
vt 0.681818 0.393651
vt 0.659091 0.354286
vt 0.704546 0.354286
vt 0.636364 0.314921
vt 0.681818 0.314921
vt 0.795455 0.433017
vt 0.840909 0.433017
vt 0.818182 0.472382
vt 0.772727 0.393651
vt 0.818182 0.393651
vt 0.795455 0.354286
vt 0.863636 0.393651
vt 0.840909 0.354286
vt 0.886364 0.354286
vt 0.818182 0.314921
vt 0.863636 0.314921
vt 0.909091 0.314921
vt 0.068182 0.433017
vt 0.113637 0.433017
vt 0.090910 0.472382
vt 0.045455 0.393651
vt 0.090910 0.393651
vt 0.068182 0.354286
vt 0.136365 0.393651
vt 0.113637 0.354286
vt 0.159092 0.354286
vt 0.090909 0.314921
vt 0.136364 0.314921
vt 0.250001 0.433017
vt 0.295455 0.433017
vt 0.272728 0.472382
vt 0.227273 0.393651
vt 0.272728 0.393651
vt 0.250001 0.354286
vt 0.318182 0.393651
vt 0.295455 0.354286
vt 0.340910 0.354286
vt 0.272728 0.314921
vt 0.318182 0.314921
vt 0.386364 0.275556
vt 0.409091 0.236191
vt 0.431819 0.275556
vt 0.454546 0.236191
vt 0.477273 0.275556
vt 0.500000 0.236191
vt 0.522728 0.275556
vt 0.568182 0.275556
vt 0.590909 0.236191
vt 0.613637 0.275556
vt 0.636364 0.236191
vt 0.659091 0.275556
vt 0.681818 0.236191
vt 0.704546 0.275556
vt 0.750000 0.275556
vt 0.772727 0.236191
vt 0.795455 0.275556
vt 0.818182 0.236191
vt 0.840909 0.275556
vt 0.863636 0.236191
vt 0.886364 0.275556
vt 0.022727 0.275556
vt 0.045455 0.236191
vt 0.068182 0.275556
vt 0.090910 0.236191
vt 0.113637 0.275556
vt 0.136364 0.236191
vt 0.159092 0.275556
vt 0.204546 0.275556
vt 0.227273 0.236191
vt 0.250001 0.275556
vt 0.272728 0.236191
vt 0.295455 0.275556
vt 0.318182 0.236191
vt 0.340910 0.275556
vt 0.545455 0.236191
vt 0.522728 0.196826
vt 0.568182 0.196826
vt 0.545455 0.157461
vt 0.590909 0.157461
vt 0.727273 0.236191
vt 0.704546 0.196826
vt 0.750000 0.196826
vt 0.727273 0.157461
vt 0.772727 0.157461
vt 0.931818 0.275556
vt 0.909091 0.236191
vt 0.886364 0.196826
vt 0.954545 0.236191
vt 0.931818 0.196826
vt 0.977273 0.196826
vt 0.909091 0.157461
vt 0.954545 0.157461
vt 1.000000 0.157461
vt 0.181819 0.236191
vt 0.159092 0.196826
vt 0.204546 0.196826
vt 0.181819 0.157461
vt 0.227274 0.157461
vt 0.363637 0.236191
vt 0.340910 0.196826
vt 0.386364 0.196826
vt 0.363637 0.157461
vt 0.409092 0.157461
vt 0.477273 0.118096
vt 0.500000 0.078731
vt 0.522728 0.118096
vt 0.545455 0.078731
vt 0.568182 0.118096
vt 0.590909 0.078731
vt 0.613637 0.118096
vt 0.659091 0.118096
vt 0.681818 0.078731
vt 0.704546 0.118096
vt 0.727273 0.078731
vt 0.750000 0.118096
vt 0.772727 0.078731
vt 0.795455 0.118096
vt 0.840909 0.118096
vt 0.863636 0.078731
vt 0.886364 0.118096
vt 0.909091 0.078731
vt 0.931818 0.118096
vt 0.954545 0.078731
vt 0.977273 0.118096
vt 0.431819 0.118096
vt 0.386364 0.118096
vt 0.340910 0.118096
vt 0.409091 0.078731
vt 0.363637 0.078730
vt 0.386364 0.039365
vt 0.318182 0.078731
vt 0.340910 0.039365
vt 0.363637 0.000000
vt 0.113637 0.118096
vt 0.136365 0.078731
vt 0.159092 0.118096
vt 0.181819 0.078731
vt 0.204546 0.118096
vt 0.227273 0.078731
vt 0.250001 0.118096
vt 1.000000 0.500000
vt 1.000000 1.000000
vt 0.958333 1.000000
vt 0.958333 0.500000
vt 0.916667 1.000000
vt 0.916667 0.500000
vt 0.875000 1.000000
vt 0.875000 0.500000
vt 0.833333 1.000000
vt 0.833333 0.500000
vt 0.791667 1.000000
vt 0.791667 0.500000
vt 0.750000 1.000000
vt 0.750000 0.500000
vt 0.708333 1.000000
vt 0.708333 0.500000
vt 0.666667 1.000000
vt 0.666667 0.500000
vt 0.625000 1.000000
vt 0.625000 0.500000
vt 0.583333 1.000000
vt 0.583333 0.500000
vt 0.541666 1.000000
vt 0.541666 0.500000
vt 0.500000 1.000000
vt 0.500000 0.500000
vt 0.458333 1.000000
vt 0.458333 0.500000
vt 0.416666 1.000000
vt 0.416666 0.500000
vt 0.375000 1.000000
vt 0.375000 0.500000
vt 0.333333 1.000000
vt 0.333333 0.500000
vt 0.291667 1.000000
vt 0.291667 0.500000
vt 0.250000 1.000000
vt 0.250000 0.500000
vt 0.208333 1.000000
vt 0.208333 0.500000
vt 0.166666 1.000000
vt 0.166666 0.500000
vt 0.125000 1.000000
vt 0.125000 0.500000
vt 0.083333 1.000000
vt 0.083333 0.500000
vt 0.312117 0.481822
vt 0.250000 0.490000
vt 0.187883 0.481822
vt 0.130000 0.457846
vt 0.080294 0.419706
vt 0.042154 0.370000
vt 0.018178 0.312117
vt 0.010000 0.250000
vt 0.018178 0.187883
vt 0.042154 0.130000
vt 0.080294 0.080294
vt 0.130000 0.042154
vt 0.187883 0.018178
vt 0.250000 0.010000
vt 0.312117 0.018178
vt 0.370000 0.042154
vt 0.419706 0.080294
vt 0.457846 0.130000
vt 0.481822 0.187883
vt 0.490000 0.250000
vt 0.481822 0.312117
vt 0.457846 0.370000
vt 0.419706 0.419706
vt 0.370000 0.457846
vt 0.041666 1.000000
vt 0.041666 0.500000
vt -0.000000 1.000000
vt -0.000000 0.500000
vt 0.750000 0.490000
vt 0.812117 0.481822
vt 0.870000 0.457846
vt 0.919706 0.419706
vt 0.957846 0.370000
vt 0.981822 0.312117
vt 0.990000 0.250000
vt 0.981822 0.187883
vt 0.957846 0.130000
vt 0.919706 0.080294
vt 0.870000 0.042154
vt 0.812117 0.018178
vt 0.750000 0.010000
vt 0.687883 0.018178
vt 0.630000 0.042154
vt 0.580294 0.080294
vt 0.542154 0.130000
vt 0.518178 0.187883
vt 0.510000 0.250000
vt 0.518178 0.312117
vt 0.542154 0.370000
vt 0.580294 0.419706
vt 0.630000 0.457846
vt 0.687883 0.481822
vt 0.227273 0.078731
vt 0.318182 0.078731
vt 0.363637 0.157461
vt 0.318182 0.236191
vt 0.181819 0.157461
vt 0.136365 0.236191
vt 0.909091 0.157461
vt 0.863636 0.236191
vt 0.727273 0.157461
vt 0.681818 0.236191
vt 0.545455 0.157461
vt 0.500000 0.236191
vt 0.045455 0.236191
vt 0.409092 0.236191
vt 0.090910 0.314921
vt 0.045455 0.393651
vt 0.409092 0.393651
vt 0.318182 0.393651
vt 0.409092 0.078731
s 1
usemtl Material.001
f 1/1/1 16/2/2 15/3/3
f 2/4/4 18/5/5 24/6/6
f 1/7/1 15/8/3 30/9/7
f 1/10/1 30/11/7 36/12/8
f 1/13/1 36/14/8 25/15/9
f 2/4/4 24/6/6 45/16/10
f 3/17/11 21/18/12 51/19/13
f 4/20/14 33/21/15 57/22/16
f 5/23/17 39/24/18 63/25/19
f 6/26/20 42/27/21 69/28/22
f 2/4/4 45/16/10 52/29/23
f 3/17/11 51/19/13 58/30/24
f 4/20/14 57/22/16 64/31/25
f 5/23/17 63/25/19 70/32/26
f 6/26/20 69/28/22 46/33/27
f 7/34/28 75/35/29 90/36/30
f 8/37/31 78/38/32 96/39/33
f 9/40/34 81/41/35 99/42/36
f 10/43/37 84/44/38 102/45/39
f 11/46/40 87/47/41 91/48/42
f 93/49/43 100/50/44 12/51/45
f 92/52/46 103/53/47 93/49/43
f 91/48/42 104/54/48 92/52/46
f 93/49/43 103/53/47 100/50/44
f 103/53/47 101/55/49 100/50/44
f 92/52/46 104/54/48 103/53/47
f 104/54/48 105/56/50 103/53/47
f 103/53/47 105/56/50 101/55/49
f 105/56/50 102/57/39 101/55/49
f 91/48/42 87/47/41 104/54/48
f 87/47/41 86/58/51 104/54/48
f 104/54/48 86/58/51 105/56/50
f 86/58/51 85/59/52 105/56/50
f 105/56/50 85/59/52 102/57/39
f 85/59/52 10/43/37 102/57/39
f 100/60/44 97/61/53 12/62/45
f 101/63/49 106/64/54 100/60/44
f 102/45/39 107/65/55 101/63/49
f 100/60/44 106/64/54 97/61/53
f 106/64/54 98/66/56 97/61/53
f 101/63/49 107/65/55 106/64/54
f 107/65/55 108/67/57 106/64/54
f 106/64/54 108/67/57 98/66/56
f 108/67/57 99/68/36 98/66/56
f 102/45/39 84/44/38 107/65/55
f 84/44/38 83/69/58 107/65/55
f 107/65/55 83/69/58 108/67/57
f 83/69/58 82/70/59 108/67/57
f 108/67/57 82/70/59 99/68/36
f 82/70/59 9/40/34 99/68/36
f 97/71/53 94/72/60 12/73/45
f 98/74/56 109/75/61 97/71/53
f 99/42/36 110/76/62 98/74/56
f 97/71/53 109/75/61 94/72/60
f 109/75/61 95/77/63 94/72/60
f 98/74/56 110/76/62 109/75/61
f 110/76/62 111/78/64 109/75/61
f 109/75/61 111/78/64 95/77/63
f 111/78/64 96/79/33 95/77/63
f 99/42/36 81/41/35 110/76/62
f 81/41/35 80/80/65 110/76/62
f 110/76/62 80/80/65 111/78/64
f 80/80/65 79/81/66 111/78/64
f 111/78/64 79/81/66 96/79/33
f 79/81/66 8/82/31 96/79/33
f 94/83/60 88/84/67 12/85/45
f 95/86/63 112/87/68 94/83/60
f 96/39/33 113/88/69 95/86/63
f 94/83/60 112/87/68 88/84/67
f 112/87/68 89/89/70 88/84/67
f 95/86/63 113/88/69 112/87/68
f 113/88/69 114/90/71 112/87/68
f 112/87/68 114/90/71 89/89/70
f 114/90/71 90/91/30 89/89/70
f 96/39/33 78/38/32 113/88/69
f 78/38/32 77/92/72 113/88/69
f 113/88/69 77/92/72 114/90/71
f 77/92/72 76/93/73 114/90/71
f 114/90/71 76/93/73 90/91/30
f 76/93/73 7/34/28 90/91/30
f 88/94/67 93/95/43 12/96/45
f 89/97/70 115/98/74 88/94/67
f 90/36/30 116/99/75 89/97/70
f 88/94/67 115/98/74 93/95/43
f 115/98/74 92/100/46 93/95/43
f 89/97/70 116/99/75 115/98/74
f 116/99/75 117/101/76 115/98/74
f 115/98/74 117/101/76 92/100/46
f 117/101/76 91/102/42 92/100/46
f 90/36/30 75/35/29 116/99/75
f 75/35/29 74/103/77 116/99/75
f 116/99/75 74/103/77 117/101/76
f 74/103/77 73/104/78 117/101/76
f 117/101/76 73/104/78 91/102/42
f 73/104/78 11/46/40 91/102/42
f 48/105/79 87/47/41 11/46/40
f 47/106/80 118/107/81 48/105/79
f 46/33/27 119/108/82 47/106/80
f 48/105/79 118/107/81 87/47/41
f 118/107/81 86/58/51 87/47/41
f 47/106/80 119/108/82 118/107/81
f 119/108/82 120/109/83 118/107/81
f 118/107/81 120/109/83 86/58/51
f 120/109/83 85/59/52 86/58/51
f 46/33/27 69/28/22 119/108/82
f 69/28/22 68/110/84 119/108/82
f 119/108/82 68/110/84 120/109/83
f 68/110/84 67/111/85 120/109/83
f 120/109/83 67/111/85 85/59/52
f 67/111/85 10/43/37 85/59/52
f 72/112/86 84/44/38 10/43/37
f 71/113/87 121/114/88 72/112/86
f 70/32/26 122/115/89 71/113/87
f 72/112/86 121/114/88 84/44/38
f 121/114/88 83/69/58 84/44/38
f 71/113/87 122/115/89 121/114/88
f 122/115/89 123/116/90 121/114/88
f 121/114/88 123/116/90 83/69/58
f 123/116/90 82/70/59 83/69/58
f 70/32/26 63/25/19 122/115/89
f 63/25/19 62/117/91 122/115/89
f 122/115/89 62/117/91 123/116/90
f 62/117/91 61/118/92 123/116/90
f 123/116/90 61/118/92 82/70/59
f 61/118/92 9/40/34 82/70/59
f 66/119/93 81/41/35 9/40/34
f 65/120/94 124/121/95 66/119/93
f 64/31/25 125/122/96 65/120/94
f 66/119/93 124/121/95 81/41/35
f 124/121/95 80/80/65 81/41/35
f 65/120/94 125/122/96 124/121/95
f 125/122/96 126/123/97 124/121/95
f 124/121/95 126/123/97 80/80/65
f 126/123/97 79/81/66 80/80/65
f 64/31/25 57/22/16 125/122/96
f 57/22/16 56/124/98 125/122/96
f 125/122/96 56/124/98 126/123/97
f 56/124/98 55/125/99 126/123/97
f 126/123/97 55/125/99 79/81/66
f 55/125/99 8/82/31 79/81/66
f 60/126/100 78/38/32 8/37/31
f 59/127/101 127/128/102 60/126/100
f 58/30/24 128/129/103 59/127/101
f 60/126/100 127/128/102 78/38/32
f 127/128/102 77/92/72 78/38/32
f 59/127/101 128/129/103 127/128/102
f 128/129/103 129/130/104 127/128/102
f 127/128/102 129/130/104 77/92/72
f 129/130/104 76/93/73 77/92/72
f 58/30/24 51/19/13 128/129/103
f 51/19/13 50/131/105 128/129/103
f 128/129/103 50/131/105 129/130/104
f 50/131/105 49/132/106 129/130/104
f 129/130/104 49/132/106 76/93/73
f 49/132/106 7/34/28 76/93/73
f 54/133/107 75/35/29 7/34/28
f 53/134/108 130/135/109 54/133/107
f 52/29/23 131/136/110 53/134/108
f 54/133/107 130/135/109 75/35/29
f 130/135/109 74/103/77 75/35/29
f 53/134/108 131/136/110 130/135/109
f 131/136/110 132/137/111 130/135/109
f 130/135/109 132/137/111 74/103/77
f 132/137/111 73/104/78 74/103/77
f 52/29/23 45/16/10 131/136/110
f 45/16/10 44/138/112 131/136/110
f 131/136/110 44/138/112 132/137/111
f 44/138/112 43/139/113 132/137/111
f 132/137/111 43/139/113 73/104/78
f 43/139/113 11/46/40 73/104/78
f 67/111/85 72/112/86 10/43/37
f 68/110/84 133/140/114 67/111/85
f 69/28/22 134/141/115 68/110/84
f 67/111/85 133/140/114 72/112/86
f 133/140/114 71/113/87 72/112/86
f 68/110/84 134/141/115 133/140/114
f 134/141/115 135/142/116 133/140/114
f 133/140/114 135/142/116 71/113/87
f 135/142/116 70/32/26 71/113/87
f 69/28/22 42/27/21 134/141/115
f 42/27/21 41/143/117 134/141/115
f 134/141/115 41/143/117 135/142/116
f 41/143/117 40/144/118 135/142/116
f 135/142/116 40/144/118 70/32/26
f 40/144/118 5/23/17 70/32/26
f 61/118/92 66/119/93 9/40/34
f 62/117/91 136/145/119 61/118/92
f 63/25/19 137/146/120 62/117/91
f 61/118/92 136/145/119 66/119/93
f 136/145/119 65/120/94 66/119/93
f 62/117/91 137/146/120 136/145/119
f 137/146/120 138/147/121 136/145/119
f 136/145/119 138/147/121 65/120/94
f 138/147/121 64/31/25 65/120/94
f 63/25/19 39/24/18 137/146/120
f 39/24/18 38/148/122 137/146/120
f 137/146/120 38/148/122 138/147/121
f 38/148/122 37/149/123 138/147/121
f 138/147/121 37/149/123 64/31/25
f 37/149/123 4/20/14 64/31/25
f 55/125/99 60/150/100 8/82/31
f 56/124/98 139/151/124 55/125/99
f 57/22/16 140/152/125 56/124/98
f 55/125/99 139/151/124 60/150/100
f 139/151/124 59/153/101 60/150/100
f 56/124/98 140/152/125 139/151/124
f 140/152/125 141/154/126 139/151/124
f 139/151/124 141/154/126 59/153/101
f 141/154/126 58/155/24 59/153/101
f 57/22/16 33/21/15 140/152/125
f 33/21/15 32/156/127 140/152/125
f 140/152/125 32/156/127 141/154/126
f 32/156/127 31/157/128 141/154/126
f 141/154/126 31/157/128 58/155/24
f 31/157/128 3/158/11 58/155/24
f 49/132/106 54/133/107 7/34/28
f 50/131/105 142/159/129 49/132/106
f 51/19/13 143/160/130 50/131/105
f 49/132/106 142/159/129 54/133/107
f 142/159/129 53/134/108 54/133/107
f 50/131/105 143/160/130 142/159/129
f 143/160/130 144/161/131 142/159/129
f 142/159/129 144/161/131 53/134/108
f 144/161/131 52/29/23 53/134/108
f 51/19/13 21/18/12 143/160/130
f 21/18/12 20/162/132 143/160/130
f 143/160/130 20/162/132 144/161/131
f 20/162/132 19/163/133 144/161/131
f 144/161/131 19/163/133 52/29/23
f 19/163/133 2/4/4 52/29/23
f 43/139/113 48/105/79 11/46/40
f 44/138/112 145/164/134 43/139/113
f 45/16/10 146/165/135 44/138/112
f 43/139/113 145/164/134 48/105/79
f 145/164/134 47/106/80 48/105/79
f 44/138/112 146/165/135 145/164/134
f 146/165/135 147/166/136 145/164/134
f 145/164/134 147/166/136 47/106/80
f 147/166/136 46/33/27 47/106/80
f 45/16/10 24/6/6 146/165/135
f 24/6/6 23/167/137 146/165/135
f 146/165/135 23/167/137 147/166/136
f 23/167/137 22/168/138 147/166/136
f 147/166/136 22/168/138 46/33/27
f 22/168/138 6/26/20 46/33/27
f 27/169/139 42/27/21 6/26/20
f 26/170/140 148/171/141 27/169/139
f 25/15/9 149/172/142 26/170/140
f 27/169/139 148/171/141 42/27/21
f 148/171/141 41/143/117 42/27/21
f 26/170/140 149/172/142 148/171/141
f 149/172/142 150/173/143 148/171/141
f 148/171/141 150/173/143 41/143/117
f 150/173/143 40/144/118 41/143/117
f 25/15/9 36/14/8 149/172/142
f 36/14/8 35/174/144 149/172/142
f 149/172/142 35/174/144 150/173/143
f 35/174/144 34/175/145 150/173/143
f 150/173/143 34/175/145 40/144/118
f 34/175/145 5/23/17 40/144/118
f 34/176/145 39/24/18 5/23/17
f 35/177/144 151/178/146 34/176/145
f 36/12/8 152/179/147 35/177/144
f 34/176/145 151/178/146 39/24/18
f 151/178/146 38/148/122 39/24/18
f 35/177/144 152/179/147 151/178/146
f 152/179/147 153/180/148 151/178/146
f 151/178/146 153/180/148 38/148/122
f 153/180/148 37/149/123 38/148/122
f 36/12/8 30/11/7 152/179/147
f 30/11/7 29/181/149 152/179/147
f 152/179/147 29/181/149 153/180/148
f 29/181/149 28/182/150 153/180/148
f 153/180/148 28/182/150 37/149/123
f 28/182/150 4/20/14 37/149/123
f 28/183/150 33/21/15 4/20/14
f 29/184/149 154/185/151 28/183/150
f 30/9/7 155/186/152 29/184/149
f 28/183/150 154/185/151 33/21/15
f 154/185/151 32/156/127 33/21/15
f 29/184/149 155/186/152 154/185/151
f 155/186/152 156/187/153 154/185/151
f 154/185/151 156/187/153 32/156/127
f 156/187/153 31/157/128 32/156/127
f 30/9/7 15/8/3 155/186/152
f 15/8/3 14/188/154 155/186/152
f 155/186/152 14/188/154 156/187/153
f 14/188/154 13/189/155 156/187/153
f 156/187/153 13/189/155 31/157/128
f 13/189/155 3/158/11 31/157/128
f 22/168/138 27/190/139 6/26/20
f 23/167/137 157/191/156 22/168/138
f 24/6/6 158/192/157 23/167/137
f 22/168/138 157/191/156 27/190/139
f 157/191/156 26/193/140 27/190/139
f 23/167/137 158/192/157 157/191/156
f 158/192/157 159/194/158 157/191/156
f 157/191/156 159/194/158 26/193/140
f 159/194/158 25/195/9 26/193/140
f 24/6/6 18/5/5 158/192/157
f 18/5/5 17/196/159 158/192/157
f 158/192/157 17/196/159 159/194/158
f 17/196/159 16/197/2 159/194/158
f 159/194/158 16/197/2 25/195/9
f 16/197/2 1/198/1 25/195/9
f 13/199/155 21/18/12 3/17/11
f 14/200/154 160/201/160 13/199/155
f 15/3/3 161/202/161 14/200/154
f 13/199/155 160/201/160 21/18/12
f 160/201/160 20/162/132 21/18/12
f 14/200/154 161/202/161 160/201/160
f 161/202/161 162/203/162 160/201/160
f 160/201/160 162/203/162 20/162/132
f 162/203/162 19/163/133 20/162/132
f 15/3/3 16/2/2 161/202/161
f 16/2/2 17/204/159 161/202/161
f 161/202/161 17/204/159 162/203/162
f 17/204/159 18/205/5 162/203/162
f 162/203/162 18/205/5 19/163/133
f 18/205/5 2/4/4 19/163/133
usemtl Material.003
f 163/206/87 164/207/87 166/208/163 165/209/163
f 165/209/163 166/208/163 168/210/164 167/211/164
f 167/211/164 168/210/164 170/212/165 169/213/165
f 169/213/165 170/212/165 172/214/166 171/215/166
f 171/215/166 172/214/166 174/216/167 173/217/167
f 173/217/167 174/216/167 176/218/168 175/219/168
f 175/219/168 176/218/168 178/220/169 177/221/169
f 177/221/169 178/220/169 180/222/170 179/223/170
f 179/223/170 180/222/170 182/224/171 181/225/171
f 181/225/171 182/224/171 184/226/172 183/227/172
f 183/227/172 184/226/172 186/228/173 185/229/173
f 185/229/173 186/228/173 188/230/105 187/231/105
f 187/231/105 188/230/105 190/232/174 189/233/174
f 189/233/174 190/232/174 192/234/175 191/235/175
f 191/235/175 192/234/175 194/236/176 193/237/176
f 193/237/176 194/236/176 196/238/177 195/239/177
f 195/239/177 196/238/177 198/240/178 197/241/178
f 197/241/178 198/240/178 200/242/179 199/243/179
f 199/243/179 200/242/179 202/244/180 201/245/180
f 201/245/180 202/244/180 204/246/181 203/247/181
f 203/247/181 204/246/181 206/248/182 205/249/182
f 205/249/182 206/248/182 208/250/183 207/251/183
f 166/252/45 164/253/45 210/254/45 208/255/45 206/256/45 204/257/45 202/258/45 200/259/45 198/260/45 196/261/45 194/262/45 192/263/45 190/264/45 188/265/45 186/266/45 184/267/45 182/268/45 180/269/45 178/270/45 176/271/45 174/272/45 172/273/45 170/274/45 168/275/45
f 207/251/183 208/250/183 210/276/184 209/277/184
f 209/277/184 210/276/184 164/278/87 163/279/87
f 163/280/1 165/281/1 167/282/1 169/283/1 171/284/1 173/285/1 175/286/1 177/287/1 179/288/1 181/289/1 183/290/1 185/291/1 187/292/1 189/293/1 191/294/1 193/295/1 195/296/1 197/297/1 199/298/1 201/299/1 203/300/1 205/301/1 207/302/1 209/303/1
usemtl Material.004
f 211/1/185 224/304/186 223/200/187
f 212/4/188 224/305/186 226/306/189
f 211/7/185 223/188/187 228/184/190
f 211/10/185 228/181/190 230/177/191
f 211/13/185 230/174/191 227/170/192
f 212/4/188 226/306/189 233/307/193
f 213/17/194 225/308/195 235/309/196
f 214/20/197 229/310/198 237/311/199
f 215/23/200 231/312/201 239/313/202
f 216/26/203 232/314/204 241/315/205
f 212/4/188 233/307/193 236/134/206
f 213/17/194 235/309/196 238/316/207
f 214/20/197 237/311/199 240/120/208
f 215/23/200 239/313/202 242/113/209
f 216/26/203 241/315/205 234/317/210
f 217/34/211 243/103/212 248/97/213
f 218/37/214 244/318/215 250/319/216
f 219/40/217 245/80/218 251/74/219
f 220/43/220 246/69/221 252/63/222
f 221/46/223 247/58/224 249/320/225
f 249/320/225 252/55/222 222/51/226
f 249/320/225 247/58/224 252/55/222
f 247/58/224 220/43/220 252/55/222
f 252/63/222 251/66/219 222/62/226
f 252/63/222 246/69/221 251/66/219
f 246/69/221 219/40/217 251/66/219
f 251/74/219 250/77/216 222/73/226
f 251/74/219 245/80/218 250/77/216
f 245/80/218 218/82/214 250/77/216
f 250/319/216 248/89/213 222/85/226
f 250/319/216 244/318/215 248/89/213
f 244/318/215 217/34/211 248/89/213
f 248/97/213 249/321/225 222/96/226
f 248/97/213 243/103/212 249/321/225
f 243/103/212 221/46/223 249/321/225
f 234/317/210 247/58/224 221/46/223
f 234/317/210 241/315/205 247/58/224
f 241/315/205 220/43/220 247/58/224
f 242/113/209 246/69/221 220/43/220
f 242/113/209 239/313/202 246/69/221
f 239/313/202 219/40/217 246/69/221
f 240/120/208 245/80/218 219/40/217
f 240/120/208 237/311/199 245/80/218
f 237/311/199 218/82/214 245/80/218
f 238/316/207 244/318/215 218/37/214
f 238/316/207 235/309/196 244/318/215
f 235/309/196 217/34/211 244/318/215
f 236/134/206 243/103/212 217/34/211
f 236/134/206 233/307/193 243/103/212
f 233/307/193 221/46/223 243/103/212
f 241/315/205 242/113/209 220/43/220
f 241/315/205 232/314/204 242/113/209
f 232/314/204 215/23/200 242/113/209
f 239/313/202 240/120/208 219/40/217
f 239/313/202 231/312/201 240/120/208
f 231/312/201 214/20/197 240/120/208
f 237/311/199 238/153/207 218/82/214
f 237/311/199 229/310/198 238/153/207
f 229/310/198 213/158/194 238/153/207
f 235/309/196 236/134/206 217/34/211
f 235/309/196 225/308/195 236/134/206
f 225/308/195 212/4/188 236/134/206
f 233/307/193 234/317/210 221/46/223
f 233/307/193 226/306/189 234/317/210
f 226/306/189 216/26/203 234/317/210
f 227/170/192 232/314/204 216/26/203
f 227/170/192 230/174/191 232/314/204
f 230/174/191 215/23/200 232/314/204
f 230/177/191 231/312/201 215/23/200
f 230/177/191 228/181/190 231/312/201
f 228/181/190 214/20/197 231/312/201
f 228/184/190 229/310/198 214/20/197
f 228/184/190 223/188/187 229/310/198
f 223/188/187 213/158/194 229/310/198
f 226/306/189 227/322/192 216/26/203
f 226/306/189 224/305/186 227/322/192
f 224/305/186 211/198/185 227/322/192
f 223/200/187 225/308/195 213/17/194
f 223/200/187 224/304/186 225/308/195
f 224/304/186 212/4/188 225/308/195
f 253/1/1 266/304/227 265/200/228
f 254/4/229 266/305/227 268/306/230
f 253/7/1 265/188/228 270/184/231
f 253/10/1 270/181/231 272/177/232
f 253/13/1 272/174/232 269/170/233
f 254/4/229 268/306/230 275/307/112
f 255/17/234 267/308/235 277/309/105
f 256/20/236 271/310/237 279/311/98
f 257/23/238 273/312/239 281/313/91
f 258/26/240 274/314/241 283/315/84
f 254/4/229 275/307/112 278/134/108
f 255/17/234 277/309/105 280/316/101
f 256/20/236 279/311/98 282/120/94
f 257/23/238 281/313/91 284/113/87
f 258/26/240 283/315/84 276/317/80
f 259/34/242 285/103/243 290/97/244
f 260/37/245 286/318/246 292/319/247
f 261/40/248 287/80/249 293/74/250
f 262/43/251 288/69/252 294/63/253
f 263/46/254 289/58/255 291/320/256
f 291/320/256 294/55/253 264/51/45
f 291/320/256 289/58/255 294/55/253
f 289/58/255 262/43/251 294/55/253
f 294/63/253 293/66/250 264/62/45
f 294/63/253 288/69/252 293/66/250
f 288/69/252 261/40/248 293/66/250
f 293/74/250 292/77/247 264/73/45
f 293/74/250 287/80/249 292/77/247
f 287/80/249 260/82/245 292/77/247
f 292/319/247 290/89/244 264/85/45
f 292/319/247 286/318/246 290/89/244
f 286/318/246 259/34/242 290/89/244
f 290/97/244 291/321/256 264/96/45
f 290/97/244 285/103/243 291/321/256
f 285/103/243 263/46/254 291/321/256
f 276/317/80 289/58/255 263/46/254
f 276/317/80 283/315/84 289/58/255
f 283/315/84 262/43/251 289/58/255
f 284/113/87 288/69/252 262/43/251
f 284/113/87 281/313/91 288/69/252
f 281/313/91 261/40/248 288/69/252
f 282/120/94 287/80/249 261/40/248
f 282/120/94 279/311/98 287/80/249
f 279/311/98 260/82/245 287/80/249
f 280/316/101 286/318/246 260/37/245
f 280/316/101 277/309/105 286/318/246
f 277/309/105 259/34/242 286/318/246
f 278/134/108 285/103/243 259/34/242
f 278/134/108 275/307/112 285/103/243
f 275/307/112 263/46/254 285/103/243
f 283/315/84 284/113/87 262/43/251
f 283/315/84 274/314/241 284/113/87
f 274/314/241 257/23/238 284/113/87
f 281/313/91 282/120/94 261/40/248
f 281/313/91 273/312/239 282/120/94
f 273/312/239 256/20/236 282/120/94
f 279/311/98 280/153/101 260/82/245
f 279/311/98 271/310/237 280/153/101
f 271/310/237 255/158/234 280/153/101
f 277/309/105 278/134/108 259/34/242
f 277/309/105 267/308/235 278/134/108
f 267/308/235 254/4/229 278/134/108
f 275/307/112 276/317/80 263/46/254
f 275/307/112 268/306/230 276/317/80
f 268/306/230 258/26/240 276/317/80
f 269/170/233 274/314/241 258/26/240
f 269/170/233 272/174/232 274/314/241
f 272/174/232 257/23/238 274/314/241
f 272/177/232 273/312/239 257/23/238
f 272/177/232 270/181/231 273/312/239
f 270/181/231 256/20/236 273/312/239
f 270/184/231 271/310/237 256/20/236
f 270/184/231 265/188/228 271/310/237
f 265/188/228 255/158/234 271/310/237
f 268/306/230 269/322/233 258/26/240
f 268/306/230 266/305/227 269/322/233
f 266/305/227 253/198/1 269/322/233
f 265/200/228 267/308/235 255/17/234
f 265/200/228 266/304/227 267/308/235
f 266/304/227 254/4/229 267/308/235
f 295/1/257 308/304/258 307/200/259
f 296/4/260 308/305/258 310/306/261
f 295/7/257 307/188/259 312/184/262
f 295/10/257 312/181/262 314/177/263
f 295/13/257 314/174/263 311/170/264
f 296/4/260 310/306/261 317/307/265
f 297/17/266 309/308/267 319/309/268
f 298/20/269 313/310/270 321/311/271
f 299/23/272 315/312/273 323/313/274
f 300/26/275 316/314/276 325/315/277
f 296/4/260 317/307/265 320/134/278
f 297/17/266 319/309/268 322/316/279
f 298/20/269 321/311/271 324/120/280
f 299/23/272 323/313/274 326/113/281
f 300/26/275 325/315/277 318/317/282
f 301/34/283 327/103/284 332/97/285
f 302/37/286 328/318/287 334/319/288
f 303/40/289 329/80/290 335/74/291
f 304/43/292 330/69/293 336/63/294
f 305/46/295 331/58/296 333/320/297
f 333/320/297 336/55/294 306/51/298
f 333/320/297 331/58/296 336/55/294
f 331/58/296 304/43/292 336/55/294
f 336/63/294 335/66/291 306/62/298
f 336/63/294 330/69/293 335/66/291
f 330/69/293 303/40/289 335/66/291
f 335/74/291 334/77/288 306/73/298
f 335/74/291 329/80/290 334/77/288
f 329/80/290 302/82/286 334/77/288
f 334/319/288 332/89/285 306/85/298
f 334/319/288 328/318/287 332/89/285
f 328/318/287 301/34/283 332/89/285
f 332/97/285 333/321/297 306/96/298
f 332/97/285 327/103/284 333/321/297
f 327/103/284 305/46/295 333/321/297
f 318/317/282 331/58/296 305/46/295
f 318/317/282 325/315/277 331/58/296
f 325/315/277 304/43/292 331/58/296
f 326/113/281 330/69/293 304/43/292
f 326/113/281 323/313/274 330/69/293
f 323/313/274 303/40/289 330/69/293
f 324/120/280 329/80/290 303/40/289
f 324/120/280 321/311/271 329/80/290
f 321/311/271 302/82/286 329/80/290
f 322/316/279 328/318/287 302/37/286
f 322/316/279 319/309/268 328/318/287
f 319/309/268 301/34/283 328/318/287
f 320/134/278 327/103/284 301/34/283
f 320/134/278 317/307/265 327/103/284
f 317/307/265 305/46/295 327/103/284
f 325/315/277 326/113/281 304/43/292
f 325/315/277 316/314/276 326/113/281
f 316/314/276 299/23/272 326/113/281
f 323/313/274 324/120/280 303/40/289
f 323/313/274 315/312/273 324/120/280
f 315/312/273 298/20/269 324/120/280
f 321/311/271 322/153/279 302/82/286
f 321/311/271 313/310/270 322/153/279
f 313/310/270 297/158/266 322/153/279
f 319/309/268 320/134/278 301/34/283
f 319/309/268 309/308/267 320/134/278
f 309/308/267 296/4/260 320/134/278
f 317/307/265 318/317/282 305/46/295
f 317/307/265 310/306/261 318/317/282
f 310/306/261 300/26/275 318/317/282
f 311/170/264 316/314/276 300/26/275
f 311/170/264 314/174/263 316/314/276
f 314/174/263 299/23/272 316/314/276
f 314/177/263 315/312/273 299/23/272
f 314/177/263 312/181/262 315/312/273
f 312/181/262 298/20/269 315/312/273
f 312/184/262 313/310/270 298/20/269
f 312/184/262 307/188/259 313/310/270
f 307/188/259 297/158/266 313/310/270
f 310/306/261 311/322/264 300/26/275
f 310/306/261 308/305/258 311/322/264
f 308/305/258 295/198/257 311/322/264
f 307/200/259 309/308/267 297/17/266
f 307/200/259 308/304/258 309/308/267
f 308/304/258 296/4/260 309/308/267
f 337/1/299 350/304/300 349/200/301
f 338/4/302 350/305/300 352/306/303
f 337/7/299 349/188/301 354/184/304
f 337/10/299 354/181/304 356/177/305
f 337/13/299 356/174/305 353/170/306
f 338/4/302 352/306/303 359/307/307
f 339/17/308 351/308/309 361/309/310
f 340/20/311 355/310/312 363/311/313
f 341/23/314 357/312/315 365/313/316
f 342/26/317 358/314/318 367/315/319
f 338/4/302 359/307/307 362/134/320
f 339/17/308 361/309/310 364/316/321
f 340/20/311 363/311/313 366/120/322
f 341/23/314 365/313/316 368/113/323
f 342/26/317 367/315/319 360/317/324
f 343/34/325 369/103/326 374/97/327
f 344/37/328 370/318/329 376/319/330
f 345/40/331 371/80/332 377/74/333
f 346/43/334 372/69/335 378/63/336
f 347/46/337 373/58/338 375/320/339
f 375/320/339 378/55/336 348/51/340
f 375/320/339 373/58/338 378/55/336
f 373/58/338 346/43/334 378/55/336
f 378/63/336 377/66/333 348/62/340
f 378/63/336 372/69/335 377/66/333
f 372/69/335 345/40/331 377/66/333
f 377/74/333 376/77/330 348/73/340
f 377/74/333 371/80/332 376/77/330
f 371/80/332 344/82/328 376/77/330
f 376/319/330 374/89/327 348/85/340
f 376/319/330 370/318/329 374/89/327
f 370/318/329 343/34/325 374/89/327
f 374/97/327 375/321/339 348/96/340
f 374/97/327 369/103/326 375/321/339
f 369/103/326 347/46/337 375/321/339
f 360/317/324 373/58/338 347/46/337
f 360/317/324 367/315/319 373/58/338
f 367/315/319 346/43/334 373/58/338
f 368/113/323 372/69/335 346/43/334
f 368/113/323 365/313/316 372/69/335
f 365/313/316 345/40/331 372/69/335
f 366/120/322 371/80/332 345/40/331
f 366/120/322 363/311/313 371/80/332
f 363/311/313 344/82/328 371/80/332
f 364/316/321 370/318/329 344/37/328
f 364/316/321 361/309/310 370/318/329
f 361/309/310 343/34/325 370/318/329
f 362/134/320 369/103/326 343/34/325
f 362/134/320 359/307/307 369/103/326
f 359/307/307 347/46/337 369/103/326
f 367/315/319 368/113/323 346/43/334
f 367/315/319 358/314/318 368/113/323
f 358/314/318 341/23/314 368/113/323
f 365/313/316 366/120/322 345/40/331
f 365/313/316 357/312/315 366/120/322
f 357/312/315 340/20/311 366/120/322
f 363/311/313 364/153/321 344/82/328
f 363/311/313 355/310/312 364/153/321
f 355/310/312 339/158/308 364/153/321
f 361/309/310 362/134/320 343/34/325
f 361/309/310 351/308/309 362/134/320
f 351/308/309 338/4/302 362/134/320
f 359/307/307 360/317/324 347/46/337
f 359/307/307 352/306/303 360/317/324
f 352/306/303 342/26/317 360/317/324
f 353/170/306 358/314/318 342/26/317
f 353/170/306 356/174/305 358/314/318
f 356/174/305 341/23/314 358/314/318
f 356/177/305 357/312/315 341/23/314
f 356/177/305 354/181/304 357/312/315
f 354/181/304 340/20/311 357/312/315
f 354/184/304 355/310/312 340/20/311
f 354/184/304 349/188/301 355/310/312
f 349/188/301 339/158/308 355/310/312
f 352/306/303 353/322/306 342/26/317
f 352/306/303 350/305/300 353/322/306
f 350/305/300 337/198/299 353/322/306
f 349/200/301 351/308/309 339/17/308
f 349/200/301 350/304/300 351/308/309
f 350/304/300 338/4/302 351/308/309
f 379/1/341 392/304/342 391/200/343
f 380/4/344 392/305/342 394/306/345
f 379/7/341 391/188/343 396/184/346
f 379/10/341 396/181/346 398/177/347
f 379/13/341 398/174/347 395/170/348
f 380/4/344 394/306/345 401/307/349
f 381/17/350 393/308/351 403/309/352
f 382/20/353 397/310/354 405/311/355
f 383/23/356 399/312/357 407/313/358
f 384/26/359 400/314/360 409/315/361
f 380/4/344 401/307/349 404/134/362
f 381/17/350 403/309/352 406/316/363
f 382/20/353 405/311/355 408/120/364
f 383/23/356 407/313/358 410/113/365
f 384/26/359 409/315/361 402/317/366
f 385/34/367 411/103/368 416/97/369
f 386/37/370 412/318/371 418/319/372
f 387/40/373 413/80/374 419/74/375
f 388/43/376 414/69/377 420/63/378
f 389/46/379 415/58/380 417/320/381
f 417/320/381 420/55/378 390/51/382
f 417/320/381 415/58/380 420/55/378
f 415/58/380 388/43/376 420/55/378
f 420/63/378 419/66/375 390/62/382
f 420/63/378 414/69/377 419/66/375
f 414/69/377 387/40/373 419/66/375
f 419/74/375 418/77/372 390/73/382
f 419/74/375 413/80/374 418/77/372
f 413/80/374 386/82/370 418/77/372
f 418/319/372 416/89/369 390/85/382
f 418/319/372 412/318/371 416/89/369
f 412/318/371 385/34/367 416/89/369
f 416/97/369 417/321/381 390/96/382
f 416/97/369 411/103/368 417/321/381
f 411/103/368 389/46/379 417/321/381
f 402/317/366 415/58/380 389/46/379
f 402/317/366 409/315/361 415/58/380
f 409/315/361 388/43/376 415/58/380
f 410/113/365 414/69/377 388/43/376
f 410/113/365 407/313/358 414/69/377
f 407/313/358 387/40/373 414/69/377
f 408/120/364 413/80/374 387/40/373
f 408/120/364 405/311/355 413/80/374
f 405/311/355 386/82/370 413/80/374
f 406/316/363 412/318/371 386/37/370
f 406/316/363 403/309/352 412/318/371
f 403/309/352 385/34/367 412/318/371
f 404/134/362 411/103/368 385/34/367
f 404/134/362 401/307/349 411/103/368
f 401/307/349 389/46/379 411/103/368
f 409/315/361 410/113/365 388/43/376
f 409/315/361 400/314/360 410/113/365
f 400/314/360 383/23/356 410/113/365
f 407/313/358 408/120/364 387/40/373
f 407/313/358 399/312/357 408/120/364
f 399/312/357 382/20/353 408/120/364
f 405/311/355 406/153/363 386/82/370
f 405/311/355 397/310/354 406/153/363
f 397/310/354 381/158/350 406/153/363
f 403/309/352 404/134/362 385/34/367
f 403/309/352 393/308/351 404/134/362
f 393/308/351 380/4/344 404/134/362
f 401/307/349 402/317/366 389/46/379
f 401/307/349 394/306/345 402/317/366
f 394/306/345 384/26/359 402/317/366
f 395/170/348 400/314/360 384/26/359
f 395/170/348 398/174/347 400/314/360
f 398/174/347 383/23/356 400/314/360
f 398/177/347 399/312/357 383/23/356
f 398/177/347 396/181/346 399/312/357
f 396/181/346 382/20/353 399/312/357
f 396/184/346 397/310/354 382/20/353
f 396/184/346 391/188/343 397/310/354
f 391/188/343 381/158/350 397/310/354
f 394/306/345 395/322/348 384/26/359
f 394/306/345 392/305/342 395/322/348
f 392/305/342 379/198/341 395/322/348
f 391/200/343 393/308/351 381/17/350
f 391/200/343 392/304/342 393/308/351
f 392/304/342 380/4/344 393/308/351
