# Blender 5.1.1
# www.blender.org
mtllib onil_pie_izquierdo.mtl
o Sphere.005
v 0.000000 -0.500447 -0.633337
v 0.000000 -0.566663 -0.699553
v 0.000000 -0.653178 -0.735388
v 0.000000 -0.700000 -0.740000
v 0.000000 -0.746822 -0.735388
v 0.009134 -0.464612 -0.545922
v 0.017918 -0.478269 -0.590079
v 0.026013 -0.500447 -0.630775
v 0.033108 -0.530294 -0.666445
v 0.038931 -0.566663 -0.695718
v 0.043258 -0.608156 -0.717471
v 0.045922 -0.653178 -0.730866
v 0.046822 -0.700000 -0.735388
v 0.045922 -0.746822 -0.730866
v 0.043258 -0.791844 -0.717471
v 0.017918 -0.464612 -0.543258
v 0.035147 -0.478269 -0.584853
v 0.051026 -0.500447 -0.623187
v 0.064944 -0.530294 -0.656788
v 0.076366 -0.566663 -0.684363
v 0.084853 -0.608156 -0.704853
v 0.090079 -0.653178 -0.717471
v 0.091844 -0.700000 -0.721731
v 0.090079 -0.746822 -0.717471
v 0.084853 -0.791844 -0.704853
v 0.026013 -0.464612 -0.538931
v 0.051026 -0.478269 -0.576366
v 0.074078 -0.500447 -0.610866
v 0.094283 -0.530294 -0.641105
v 0.110866 -0.566663 -0.665922
v 0.123187 -0.608156 -0.684363
v 0.130775 -0.653178 -0.695718
v 0.133337 -0.700000 -0.699553
v 0.130775 -0.746822 -0.695718
v 0.123187 -0.791844 -0.684363
v 0.033108 -0.464612 -0.533108
v 0.064944 -0.478269 -0.564944
v 0.094283 -0.500447 -0.594283
v 0.120000 -0.530294 -0.620000
v 0.141105 -0.566663 -0.641105
v 0.156788 -0.608156 -0.656788
v 0.166445 -0.653178 -0.666445
v 0.169706 -0.700000 -0.669706
v 0.166445 -0.746822 -0.666445
v 0.156788 -0.791844 -0.656788
v 0.038931 -0.464612 -0.526013
v 0.076366 -0.478269 -0.551026
v 0.110866 -0.500447 -0.574078
v 0.141105 -0.530294 -0.594283
v 0.165922 -0.566663 -0.610866
v 0.184363 -0.608156 -0.623187
v 0.195718 -0.653178 -0.630775
v 0.199553 -0.700000 -0.633337
v 0.195718 -0.746822 -0.630775
v 0.184363 -0.791844 -0.623187
v 0.000000 -0.460000 -0.500000
v 0.043258 -0.464612 -0.517918
v 0.084853 -0.478269 -0.535147
v 0.123187 -0.500447 -0.551026
v 0.156788 -0.530294 -0.564944
v 0.184363 -0.566663 -0.576365
v 0.204853 -0.608156 -0.584853
v 0.217471 -0.653178 -0.590079
v 0.221731 -0.700000 -0.591844
v 0.217471 -0.746822 -0.590079
v 0.204853 -0.791844 -0.584853
v 0.045922 -0.464612 -0.509134
v 0.090079 -0.478269 -0.517918
v 0.130775 -0.500447 -0.526013
v 0.166445 -0.530294 -0.533108
v 0.195718 -0.566663 -0.538931
v 0.217471 -0.608156 -0.543258
v 0.230866 -0.653178 -0.545922
v 0.235388 -0.700000 -0.546822
v 0.230866 -0.746822 -0.545922
v 0.217471 -0.791844 -0.543258
v 0.046822 -0.464612 -0.500000
v 0.091844 -0.478269 -0.500000
v 0.133337 -0.500447 -0.500000
v 0.169706 -0.530294 -0.500000
v 0.199553 -0.566663 -0.500000
v 0.221731 -0.608156 -0.500000
v 0.235388 -0.653178 -0.500000
v 0.240000 -0.700000 -0.500000
v 0.235388 -0.746822 -0.500000
v 0.221731 -0.791844 -0.500000
v 0.045922 -0.464612 -0.490866
v 0.090079 -0.478269 -0.482082
v 0.130775 -0.500447 -0.473987
v 0.166445 -0.530294 -0.466892
v 0.195718 -0.566663 -0.461069
v 0.217471 -0.608156 -0.456742
v 0.230865 -0.653178 -0.454078
v 0.235388 -0.700000 -0.453178
v 0.230865 -0.746822 -0.454078
v 0.217471 -0.791844 -0.456742
v 0.043258 -0.464612 -0.482082
v 0.084853 -0.478269 -0.464853
v 0.123187 -0.500447 -0.448974
v 0.156788 -0.530294 -0.435056
v 0.184363 -0.566663 -0.423634
v 0.204853 -0.608156 -0.415147
v 0.217471 -0.653178 -0.409921
v 0.221731 -0.700000 -0.408156
v 0.217471 -0.746822 -0.409921
v 0.204853 -0.791844 -0.415147
v 0.038931 -0.464612 -0.473987
v 0.076366 -0.478269 -0.448974
v 0.110865 -0.500447 -0.425922
v 0.141105 -0.530294 -0.405717
v 0.165922 -0.566663 -0.389134
v 0.184363 -0.608156 -0.376813
v 0.195718 -0.653178 -0.369225
v 0.199553 -0.700000 -0.366663
v 0.195718 -0.746822 -0.369225
v 0.184363 -0.791844 -0.376813
v 0.033108 -0.464612 -0.466892
v 0.064944 -0.478269 -0.435056
v 0.094283 -0.500447 -0.405717
v 0.120000 -0.530294 -0.380000
v 0.141105 -0.566663 -0.358895
v 0.156788 -0.608156 -0.343212
v 0.166445 -0.653178 -0.333555
v 0.169705 -0.700000 -0.330294
v 0.166445 -0.746822 -0.333555
v 0.156788 -0.791844 -0.343212
v 0.026013 -0.464612 -0.461069
v 0.051026 -0.478269 -0.423634
v 0.074078 -0.500447 -0.389134
v 0.094283 -0.530294 -0.358895
v 0.110865 -0.566663 -0.334078
v 0.123187 -0.608156 -0.315637
v 0.130775 -0.653178 -0.304282
v 0.133337 -0.700000 -0.300447
v 0.130775 -0.746822 -0.304282
v 0.123187 -0.791844 -0.315637
v 0.017918 -0.464612 -0.456742
v 0.035147 -0.478269 -0.415147
v 0.051026 -0.500447 -0.376813
v 0.064944 -0.530294 -0.343212
v 0.076365 -0.566663 -0.315637
v 0.084853 -0.608156 -0.295147
v 0.090079 -0.653178 -0.282529
v 0.091844 -0.700000 -0.278269
v 0.090079 -0.746822 -0.282529
v 0.084853 -0.791844 -0.295147
v 0.009134 -0.464612 -0.454078
v 0.017918 -0.478269 -0.409921
v 0.026013 -0.500447 -0.369225
v 0.033108 -0.530294 -0.333555
v 0.038931 -0.566663 -0.304282
v 0.043258 -0.608156 -0.282529
v 0.045922 -0.653178 -0.269135
v 0.046822 -0.700000 -0.264612
v 0.045922 -0.746822 -0.269135
v 0.043258 -0.791844 -0.282529
v -0.000000 -0.464612 -0.453178
v -0.000000 -0.478269 -0.408156
v -0.000000 -0.500447 -0.366663
v -0.000000 -0.530294 -0.330294
v -0.000000 -0.566663 -0.300447
v 0.000000 -0.608156 -0.278269
v -0.000000 -0.653178 -0.264612
v -0.000000 -0.700000 -0.260000
v -0.000000 -0.746822 -0.264612
v 0.000000 -0.791844 -0.278269
v -0.009134 -0.464612 -0.454078
v -0.017918 -0.478269 -0.409921
v -0.026013 -0.500447 -0.369225
v -0.033108 -0.530294 -0.333555
v -0.038931 -0.566663 -0.304282
v -0.043258 -0.608156 -0.282529
v -0.045922 -0.653178 -0.269135
v -0.046822 -0.700000 -0.264612
v -0.045922 -0.746822 -0.269135
v -0.043258 -0.791844 -0.282529
v -0.017918 -0.464612 -0.456742
v -0.035147 -0.478269 -0.415147
v -0.051026 -0.500447 -0.376813
v -0.064944 -0.530294 -0.343212
v -0.076366 -0.566663 -0.315637
v -0.084853 -0.608156 -0.295147
v -0.090079 -0.653178 -0.282530
v -0.091844 -0.700000 -0.278269
v -0.090079 -0.746822 -0.282530
v -0.084853 -0.791844 -0.295147
v -0.026013 -0.464612 -0.461069
v -0.051026 -0.478269 -0.423635
v -0.074078 -0.500447 -0.389135
v -0.094283 -0.530294 -0.358895
v -0.110866 -0.566663 -0.334078
v -0.123187 -0.608156 -0.315637
v -0.130775 -0.653178 -0.304282
v -0.133337 -0.700000 -0.300448
v -0.130775 -0.746822 -0.304282
v -0.123187 -0.791844 -0.315637
v -0.033108 -0.464612 -0.466892
v -0.064944 -0.478269 -0.435057
v -0.094283 -0.500447 -0.405717
v -0.120000 -0.530294 -0.380000
v -0.141105 -0.566663 -0.358895
v -0.156787 -0.608156 -0.343212
v -0.166445 -0.653178 -0.333555
v -0.169706 -0.700000 -0.330295
v -0.166445 -0.746822 -0.333555
v -0.156787 -0.791844 -0.343212
v -0.038931 -0.464612 -0.473987
v -0.076365 -0.478269 -0.448974
v -0.110865 -0.500447 -0.425922
v -0.141105 -0.530294 -0.405717
v -0.165922 -0.566663 -0.389135
v -0.184363 -0.608156 -0.376813
v -0.195718 -0.653178 -0.369225
v -0.199553 -0.700000 -0.366663
v -0.195718 -0.746822 -0.369225
v -0.184363 -0.791844 -0.376813
v -0.043258 -0.464612 -0.482082
v -0.084853 -0.478269 -0.464853
v -0.123187 -0.500447 -0.448974
v -0.156788 -0.530294 -0.435057
v -0.184363 -0.566663 -0.423635
v -0.204853 -0.608156 -0.415147
v -0.217471 -0.653178 -0.409921
v -0.221731 -0.700000 -0.408156
v -0.217471 -0.746822 -0.409921
v -0.204853 -0.791844 -0.415147
v -0.045922 -0.464612 -0.490866
v -0.090079 -0.478269 -0.482082
v -0.130775 -0.500447 -0.473987
v -0.166445 -0.530294 -0.466892
v -0.195718 -0.566663 -0.461069
v -0.217470 -0.608156 -0.456742
v -0.230865 -0.653178 -0.454078
v -0.235388 -0.700000 -0.453178
v -0.230865 -0.746822 -0.454078
v -0.217470 -0.791844 -0.456742
v -0.046822 -0.464612 -0.500000
v -0.091844 -0.478269 -0.500000
v -0.133337 -0.500447 -0.500000
v -0.169706 -0.530294 -0.500000
v -0.199553 -0.566663 -0.500000
v -0.221731 -0.608156 -0.500000
v -0.235388 -0.653178 -0.500000
v -0.240000 -0.700000 -0.500000
v -0.235388 -0.746822 -0.500000
v -0.221731 -0.791844 -0.500000
v -0.045922 -0.464612 -0.509134
v -0.090079 -0.478269 -0.517918
v -0.130775 -0.500447 -0.526013
v -0.166445 -0.530294 -0.533108
v -0.195718 -0.566663 -0.538931
v -0.217470 -0.608156 -0.543258
v -0.230865 -0.653178 -0.545922
v -0.235388 -0.700000 -0.546822
v -0.230865 -0.746822 -0.545922
v -0.217470 -0.791844 -0.543258
v -0.043258 -0.464612 -0.517918
v -0.084853 -0.478269 -0.535147
v -0.123187 -0.500447 -0.551026
v -0.156787 -0.530294 -0.564943
v -0.184363 -0.566663 -0.576366
v -0.204853 -0.608156 -0.584853
v -0.217470 -0.653178 -0.590079
v -0.221731 -0.700000 -0.591844
v -0.217470 -0.746822 -0.590079
v -0.204853 -0.791844 -0.584853
v -0.038931 -0.464612 -0.526013
v -0.076365 -0.478269 -0.551026
v -0.110865 -0.500447 -0.574078
v -0.141105 -0.530294 -0.594283
v -0.165922 -0.566663 -0.610866
v -0.184363 -0.608156 -0.623187
v -0.195718 -0.653178 -0.630775
v -0.199552 -0.700000 -0.633337
v -0.195718 -0.746822 -0.630775
v -0.184363 -0.791844 -0.623187
v -0.033108 -0.464612 -0.533108
v -0.064943 -0.478269 -0.564943
v -0.094283 -0.500447 -0.594283
v -0.120000 -0.530294 -0.620000
v -0.141105 -0.566663 -0.641105
v -0.156787 -0.608156 -0.656787
v -0.166445 -0.653178 -0.666445
v -0.169705 -0.700000 -0.669706
v -0.166445 -0.746822 -0.666445
v -0.156787 -0.791844 -0.656787
v -0.026013 -0.464612 -0.538931
v -0.051026 -0.478269 -0.576365
v -0.074078 -0.500447 -0.610865
v -0.094283 -0.530294 -0.641105
v -0.110865 -0.566663 -0.665922
v -0.123187 -0.608156 -0.684363
v -0.130775 -0.653178 -0.695718
v -0.133337 -0.700000 -0.699553
v -0.130775 -0.746822 -0.695718
v -0.123187 -0.791844 -0.684363
v -0.017918 -0.464612 -0.543258
v -0.035147 -0.478269 -0.584853
v -0.051026 -0.500447 -0.623187
v -0.064943 -0.530294 -0.656788
v -0.076365 -0.566663 -0.684363
v -0.084853 -0.608156 -0.704853
v -0.090079 -0.653178 -0.717470
v -0.091844 -0.700000 -0.721731
v -0.090079 -0.746822 -0.717470
v -0.084853 -0.791844 -0.704853
v -0.009134 -0.464612 -0.545922
v -0.017918 -0.478269 -0.590079
v -0.026013 -0.500447 -0.630775
v -0.033108 -0.530294 -0.666445
v -0.038931 -0.566663 -0.695718
v -0.043258 -0.608156 -0.717470
v -0.045922 -0.653178 -0.730865
v -0.046822 -0.700000 -0.735388
v -0.045922 -0.746822 -0.730865
v -0.043258 -0.791844 -0.717470
v 0.000000 -0.464612 -0.546822
v 0.000000 -0.478269 -0.591844
v 0.000000 -0.530294 -0.669706
v 0.000000 -0.608156 -0.721731
v 0.000000 -0.791844 -0.721731
v 0.000000 -0.833337 -0.672182
v 0.000000 -0.809288 -0.712407
v 0.000000 -0.830115 -0.687589
v 0.000000 -0.821313 -0.702313
v 0.033591 -0.833337 -0.668873
v 0.041439 -0.809288 -0.708326
v 0.036597 -0.830115 -0.683985
v 0.039469 -0.821313 -0.698425
v 0.065891 -0.833337 -0.659075
v 0.081285 -0.809288 -0.696238
v 0.071787 -0.830115 -0.673310
v 0.077422 -0.821313 -0.686913
v 0.095659 -0.833337 -0.643164
v 0.118007 -0.809288 -0.676610
v 0.104219 -0.830115 -0.655975
v 0.112399 -0.821313 -0.668217
v 0.121751 -0.833337 -0.621751
v 0.150194 -0.809288 -0.650194
v 0.132646 -0.830115 -0.632646
v 0.143057 -0.821313 -0.643057
v 0.143164 -0.833337 -0.595659
v 0.176610 -0.809288 -0.618007
v 0.155975 -0.830115 -0.604219
v 0.168217 -0.821313 -0.612399
v 0.159075 -0.833337 -0.565891
v 0.196238 -0.809288 -0.581285
v 0.173310 -0.830115 -0.571787
v 0.186913 -0.821313 -0.577422
v 0.168873 -0.833337 -0.533591
v 0.208325 -0.809288 -0.541439
v 0.183985 -0.830115 -0.536597
v 0.198425 -0.821313 -0.539469
v 0.172182 -0.833337 -0.500000
v 0.212407 -0.809288 -0.500000
v 0.187589 -0.830115 -0.500000
v 0.202313 -0.821313 -0.500000
v 0.168873 -0.833337 -0.466409
v 0.208325 -0.809288 -0.458561
v 0.183985 -0.830115 -0.463403
v 0.198425 -0.821313 -0.460531
v 0.159075 -0.833337 -0.434109
v 0.196238 -0.809288 -0.418715
v 0.173310 -0.830115 -0.428213
v 0.186913 -0.821313 -0.422578
v 0.143164 -0.833337 -0.404341
v 0.176610 -0.809288 -0.381993
v 0.155975 -0.830115 -0.395781
v 0.168217 -0.821313 -0.387601
v 0.121751 -0.833337 -0.378249
v 0.150194 -0.809288 -0.349806
v 0.132646 -0.830115 -0.367354
v 0.143057 -0.821313 -0.356943
v 0.095659 -0.833337 -0.356836
v 0.118007 -0.809288 -0.323390
v 0.104219 -0.830115 -0.344025
v 0.112399 -0.821313 -0.331783
v 0.065891 -0.833337 -0.340925
v 0.081285 -0.809288 -0.303762
v 0.071787 -0.830115 -0.326690
v 0.077422 -0.821313 -0.313087
v 0.033591 -0.833337 -0.331127
v 0.041439 -0.809288 -0.291675
v 0.036597 -0.830115 -0.316015
v 0.039469 -0.821313 -0.301575
v 0.000000 -0.833337 -0.327818
v -0.000000 -0.809288 -0.287593
v 0.000000 -0.830115 -0.312411
v -0.000000 -0.821313 -0.297687
v -0.033591 -0.833337 -0.331127
v -0.041439 -0.809288 -0.291675
v -0.036597 -0.830115 -0.316015
v -0.039469 -0.821313 -0.301575
v -0.065891 -0.833337 -0.340925
v -0.081285 -0.809288 -0.303762
v -0.071787 -0.830115 -0.326690
v -0.077422 -0.821313 -0.313087
v -0.095659 -0.833337 -0.356836
v -0.118007 -0.809288 -0.323390
v -0.104219 -0.830115 -0.344025
v -0.112399 -0.821313 -0.331783
v -0.121751 -0.833337 -0.378249
v -0.150194 -0.809288 -0.349806
v -0.132646 -0.830115 -0.367354
v -0.143057 -0.821313 -0.356943
v -0.143164 -0.833337 -0.404341
v -0.176610 -0.809288 -0.381993
v -0.155975 -0.830115 -0.395781
v -0.168217 -0.821313 -0.387601
v -0.159075 -0.833337 -0.434109
v -0.196238 -0.809288 -0.418715
v -0.173310 -0.830115 -0.428213
v -0.186913 -0.821313 -0.422578
v -0.168873 -0.833337 -0.466409
v -0.208325 -0.809288 -0.458562
v -0.183985 -0.830115 -0.463403
v -0.198425 -0.821313 -0.460531
v -0.172182 -0.833337 -0.500000
v -0.212407 -0.809288 -0.500000
v -0.187589 -0.830115 -0.500000
v -0.202313 -0.821313 -0.500000
v -0.168873 -0.833337 -0.533591
v -0.208325 -0.809288 -0.541439
v -0.183985 -0.830115 -0.536597
v -0.198425 -0.821313 -0.539469
v -0.159075 -0.833337 -0.565891
v -0.196238 -0.809288 -0.581285
v -0.173310 -0.830115 -0.571787
v -0.186913 -0.821313 -0.577422
v -0.143164 -0.833337 -0.595659
v -0.176610 -0.809288 -0.618007
v -0.155975 -0.830115 -0.604219
v -0.168217 -0.821313 -0.612399
v -0.121751 -0.833337 -0.621751
v -0.150194 -0.809288 -0.650194
v -0.132646 -0.830115 -0.632646
v -0.143057 -0.821313 -0.643057
v -0.095659 -0.833337 -0.643164
v -0.118007 -0.809288 -0.676610
v -0.104219 -0.830115 -0.655975
v -0.112399 -0.821313 -0.668217
v -0.065891 -0.833337 -0.659075
v -0.081285 -0.809288 -0.696238
v -0.071787 -0.830115 -0.673310
v -0.077422 -0.821313 -0.686912
v -0.033591 -0.833337 -0.668873
v -0.041438 -0.809288 -0.708325
v -0.036597 -0.830115 -0.683985
v -0.039469 -0.821313 -0.698425
vn -0.0000 0.8286 -0.5598
vn -0.0000 0.5528 -0.8333
vn -0.0000 0.1939 -0.9810
vn -0.0000 -0.0000 -1.0000
vn -0.0000 -0.1939 -0.9810
vn 0.0392 0.9796 -0.1971
vn 0.0757 0.9217 -0.3804
vn 0.1092 0.8286 -0.5490
vn 0.1385 0.7041 -0.6965
vn 0.1626 0.5528 -0.8173
vn 0.1804 0.3805 -0.9070
vn 0.1914 0.1939 -0.9622
vn 0.1951 -0.0000 -0.9808
vn 0.1914 -0.1939 -0.9622
vn 0.1804 -0.3805 -0.9070
vn 0.0769 0.9796 -0.1857
vn 0.1484 0.9217 -0.3584
vn 0.2142 0.8286 -0.5172
vn 0.2718 0.7041 -0.6561
vn 0.3189 0.5528 -0.7699
vn 0.3539 0.3805 -0.8544
vn 0.3754 0.1939 -0.9063
vn 0.3827 -0.0000 -0.9239
vn 0.3754 -0.1939 -0.9063
vn 0.3539 -0.3805 -0.8544
vn 0.1117 0.9796 -0.1671
vn 0.2155 0.9217 -0.3225
vn 0.3110 0.8286 -0.4654
vn 0.3945 0.7041 -0.5905
vn 0.4630 0.5528 -0.6929
vn 0.5138 0.3805 -0.7689
vn 0.5450 0.1939 -0.8157
vn 0.5556 -0.0000 -0.8315
vn 0.5450 -0.1939 -0.8157
vn 0.5138 -0.3805 -0.7689
vn 0.1421 0.9796 -0.1421
vn 0.2743 0.9217 -0.2743
vn 0.3958 0.8286 -0.3958
vn 0.5021 0.7041 -0.5021
vn 0.5893 0.5528 -0.5893
vn 0.6539 0.3805 -0.6539
vn 0.6937 0.1939 -0.6937
vn 0.7071 -0.0000 -0.7071
vn 0.6937 -0.1939 -0.6937
vn 0.6539 -0.3805 -0.6539
vn 0.1671 0.9796 -0.1117
vn 0.3225 0.9217 -0.2155
vn 0.4654 0.8286 -0.3110
vn 0.5905 0.7041 -0.3945
vn 0.6929 0.5528 -0.4630
vn 0.7689 0.3805 -0.5138
vn 0.8157 0.1939 -0.5450
vn 0.8315 -0.0000 -0.5556
vn 0.8157 -0.1939 -0.5450
vn 0.7689 -0.3805 -0.5138
vn -0.0000 1.0000 -0.0000
vn 0.1857 0.9796 -0.0769
vn 0.3584 0.9217 -0.1484
vn 0.5172 0.8286 -0.2142
vn 0.6561 0.7041 -0.2718
vn 0.7699 0.5528 -0.3189
vn 0.8544 0.3805 -0.3539
vn 0.9063 0.1939 -0.3754
vn 0.9239 -0.0000 -0.3827
vn 0.9063 -0.1939 -0.3754
vn 0.8544 -0.3805 -0.3539
vn 0.1971 0.9796 -0.0392
vn 0.3804 0.9217 -0.0757
vn 0.5490 0.8286 -0.1092
vn 0.6965 0.7041 -0.1385
vn 0.8173 0.5528 -0.1626
vn 0.9070 0.3805 -0.1804
vn 0.9622 0.1939 -0.1914
vn 0.9808 -0.0000 -0.1951
vn 0.9622 -0.1939 -0.1914
vn 0.9070 -0.3805 -0.1804
vn 0.2010 0.9796 -0.0000
vn 0.3879 0.9217 -0.0000
vn 0.5598 0.8286 -0.0000
vn 0.7101 0.7041 -0.0000
vn 0.8333 0.5528 -0.0000
vn 0.9248 0.3805 -0.0000
vn 0.9810 0.1939 -0.0000
vn 1.0000 -0.0000 -0.0000
vn 0.9810 -0.1939 -0.0000
vn 0.9248 -0.3805 -0.0000
vn 0.1971 0.9796 0.0392
vn 0.3804 0.9217 0.0757
vn 0.5490 0.8286 0.1092
vn 0.6965 0.7041 0.1385
vn 0.8173 0.5528 0.1626
vn 0.9070 0.3805 0.1804
vn 0.9622 0.1939 0.1914
vn 0.9808 -0.0000 0.1951
vn 0.9622 -0.1939 0.1914
vn 0.9070 -0.3805 0.1804
vn 0.1857 0.9796 0.0769
vn 0.3584 0.9217 0.1484
vn 0.5172 0.8286 0.2142
vn 0.6561 0.7041 0.2718
vn 0.7699 0.5528 0.3189
vn 0.8544 0.3805 0.3539
vn 0.9063 0.1939 0.3754
vn 0.9239 -0.0000 0.3827
vn 0.9063 -0.1939 0.3754
vn 0.8544 -0.3805 0.3539
vn 0.1671 0.9796 0.1117
vn 0.3225 0.9217 0.2155
vn 0.4654 0.8286 0.3110
vn 0.5905 0.7041 0.3945
vn 0.6929 0.5528 0.4630
vn 0.7689 0.3805 0.5138
vn 0.8157 0.1939 0.5450
vn 0.8315 -0.0000 0.5556
vn 0.8157 -0.1939 0.5450
vn 0.7689 -0.3805 0.5138
vn 0.1421 0.9796 0.1421
vn 0.2743 0.9217 0.2743
vn 0.3958 0.8286 0.3958
vn 0.5021 0.7041 0.5021
vn 0.5893 0.5528 0.5893
vn 0.6539 0.3805 0.6539
vn 0.6937 0.1939 0.6937
vn 0.7071 -0.0000 0.7071
vn 0.6937 -0.1939 0.6937
vn 0.6539 -0.3805 0.6539
vn 0.1117 0.9796 0.1671
vn 0.2155 0.9217 0.3225
vn 0.3110 0.8286 0.4654
vn 0.3945 0.7041 0.5905
vn 0.4630 0.5528 0.6929
vn 0.5138 0.3805 0.7689
vn 0.5450 0.1939 0.8157
vn 0.5556 -0.0000 0.8315
vn 0.5450 -0.1939 0.8157
vn 0.5138 -0.3805 0.7689
vn 0.0769 0.9796 0.1857
vn 0.1484 0.9217 0.3584
vn 0.2142 0.8286 0.5172
vn 0.2718 0.7041 0.6561
vn 0.3189 0.5528 0.7699
vn 0.3539 0.3805 0.8544
vn 0.3754 0.1939 0.9063
vn 0.3827 -0.0000 0.9239
vn 0.3754 -0.1939 0.9063
vn 0.3539 -0.3805 0.8544
vn 0.0392 0.9796 0.1971
vn 0.0757 0.9217 0.3804
vn 0.1092 0.8286 0.5490
vn 0.1385 0.7041 0.6965
vn 0.1626 0.5528 0.8173
vn 0.1804 0.3805 0.9070
vn 0.1914 0.1939 0.9622
vn 0.1951 -0.0000 0.9808
vn 0.1914 -0.1939 0.9622
vn 0.1804 -0.3805 0.9070
vn -0.0000 0.9796 0.2010
vn -0.0000 0.9217 0.3879
vn -0.0000 0.8286 0.5598
vn -0.0000 0.7041 0.7101
vn -0.0000 0.5528 0.8333
vn -0.0000 0.3805 0.9248
vn -0.0000 0.1939 0.9810
vn -0.0000 -0.0000 1.0000
vn -0.0000 -0.1939 0.9810
vn -0.0000 -0.3805 0.9248
vn -0.0392 0.9796 0.1971
vn -0.0757 0.9217 0.3804
vn -0.1092 0.8286 0.5490
vn -0.1385 0.7041 0.6965
vn -0.1626 0.5528 0.8173
vn -0.1804 0.3805 0.9070
vn -0.1914 0.1939 0.9622
vn -0.1951 -0.0000 0.9808
vn -0.1914 -0.1939 0.9622
vn -0.1804 -0.3805 0.9070
vn -0.0769 0.9796 0.1857
vn -0.1484 0.9217 0.3584
vn -0.2142 0.8286 0.5172
vn -0.2718 0.7041 0.6561
vn -0.3189 0.5528 0.7699
vn -0.3539 0.3805 0.8544
vn -0.3754 0.1939 0.9063
vn -0.3827 -0.0000 0.9239
vn -0.3754 -0.1939 0.9063
vn -0.3539 -0.3805 0.8544
vn -0.1117 0.9796 0.1671
vn -0.2155 0.9217 0.3225
vn -0.3110 0.8286 0.4654
vn -0.3945 0.7041 0.5905
vn -0.4630 0.5528 0.6929
vn -0.5138 0.3805 0.7689
vn -0.5450 0.1939 0.8157
vn -0.5556 -0.0000 0.8315
vn -0.5450 -0.1939 0.8157
vn -0.5138 -0.3805 0.7689
vn -0.1421 0.9796 0.1421
vn -0.2743 0.9217 0.2743
vn -0.3958 0.8286 0.3958
vn -0.5021 0.7041 0.5021
vn -0.5893 0.5528 0.5893
vn -0.6539 0.3805 0.6539
vn -0.6937 0.1939 0.6937
vn -0.7071 -0.0000 0.7071
vn -0.6937 -0.1939 0.6937
vn -0.6539 -0.3805 0.6539
vn -0.1671 0.9796 0.1117
vn -0.3225 0.9217 0.2155
vn -0.4654 0.8286 0.3110
vn -0.5905 0.7041 0.3945
vn -0.6929 0.5528 0.4630
vn -0.7689 0.3805 0.5138
vn -0.8157 0.1939 0.5450
vn -0.8315 -0.0000 0.5556
vn -0.8157 -0.1939 0.5450
vn -0.7689 -0.3805 0.5138
vn -0.1857 0.9796 0.0769
vn -0.3584 0.9217 0.1484
vn -0.5172 0.8286 0.2142
vn -0.6561 0.7041 0.2718
vn -0.7699 0.5528 0.3189
vn -0.8544 0.3805 0.3539
vn -0.9063 0.1939 0.3754
vn -0.9239 -0.0000 0.3827
vn -0.9063 -0.1939 0.3754
vn -0.8544 -0.3805 0.3539
vn -0.1971 0.9796 0.0392
vn -0.3804 0.9217 0.0757
vn -0.5490 0.8286 0.1092
vn -0.6965 0.7041 0.1385
vn -0.8173 0.5528 0.1626
vn -0.9070 0.3805 0.1804
vn -0.9622 0.1939 0.1914
vn -0.9808 -0.0000 0.1951
vn -0.9622 -0.1939 0.1914
vn -0.9070 -0.3805 0.1804
vn -0.2010 0.9796 -0.0000
vn -0.3879 0.9217 -0.0000
vn -0.5598 0.8286 -0.0000
vn -0.7101 0.7041 -0.0000
vn -0.8333 0.5528 -0.0000
vn -0.9248 0.3805 -0.0000
vn -0.9810 0.1939 -0.0000
vn -1.0000 -0.0000 -0.0000
vn -0.9810 -0.1939 -0.0000
vn -0.9248 -0.3805 -0.0000
vn -0.1971 0.9796 -0.0392
vn -0.3804 0.9217 -0.0757
vn -0.5490 0.8286 -0.1092
vn -0.6965 0.7041 -0.1385
vn -0.8173 0.5528 -0.1626
vn -0.9070 0.3805 -0.1804
vn -0.9622 0.1939 -0.1914
vn -0.9808 -0.0000 -0.1951
vn -0.9622 -0.1939 -0.1914
vn -0.9070 -0.3805 -0.1804
vn -0.1857 0.9796 -0.0769
vn -0.3584 0.9217 -0.1484
vn -0.5172 0.8286 -0.2142
vn -0.6561 0.7041 -0.2718
vn -0.7699 0.5528 -0.3189
vn -0.8544 0.3805 -0.3539
vn -0.9063 0.1939 -0.3754
vn -0.9239 -0.0000 -0.3827
vn -0.9063 -0.1939 -0.3754
vn -0.8544 -0.3805 -0.3539
vn -0.1671 0.9796 -0.1117
vn -0.3225 0.9217 -0.2155
vn -0.4654 0.8286 -0.3110
vn -0.5905 0.7041 -0.3945
vn -0.6929 0.5528 -0.4630
vn -0.7689 0.3805 -0.5138
vn -0.8157 0.1939 -0.5450
vn -0.8315 -0.0000 -0.5556
vn -0.8157 -0.1939 -0.5450
vn -0.7689 -0.3805 -0.5138
vn -0.1421 0.9796 -0.1421
vn -0.2743 0.9217 -0.2743
vn -0.3958 0.8286 -0.3958
vn -0.5021 0.7041 -0.5021
vn -0.5893 0.5528 -0.5893
vn -0.6539 0.3805 -0.6539
vn -0.6937 0.1939 -0.6937
vn -0.7071 -0.0000 -0.7071
vn -0.6937 -0.1939 -0.6937
vn -0.6539 -0.3805 -0.6539
vn -0.1117 0.9796 -0.1671
vn -0.2155 0.9217 -0.3225
vn -0.3110 0.8286 -0.4654
vn -0.3945 0.7041 -0.5905
vn -0.4630 0.5528 -0.6929
vn -0.5138 0.3805 -0.7689
vn -0.5450 0.1939 -0.8157
vn -0.5556 -0.0000 -0.8315
vn -0.5450 -0.1939 -0.8157
vn -0.5138 -0.3805 -0.7689
vn -0.0769 0.9796 -0.1857
vn -0.1484 0.9217 -0.3584
vn -0.2142 0.8286 -0.5172
vn -0.2718 0.7041 -0.6561
vn -0.3189 0.5528 -0.7699
vn -0.3539 0.3805 -0.8544
vn -0.3754 0.1939 -0.9063
vn -0.3827 -0.0000 -0.9239
vn -0.3754 -0.1939 -0.9063
vn -0.3539 -0.3805 -0.8544
vn -0.0392 0.9796 -0.1971
vn -0.0757 0.9217 -0.3804
vn -0.1092 0.8286 -0.5490
vn -0.1385 0.7041 -0.6965
vn -0.1626 0.5528 -0.8173
vn -0.1804 0.3805 -0.9070
vn -0.1914 0.1939 -0.9622
vn -0.1951 -0.0000 -0.9808
vn -0.1914 -0.1939 -0.9622
vn -0.1804 -0.3805 -0.9070
vn -0.0000 0.9796 -0.2010
vn -0.0000 0.9217 -0.3879
vn -0.0000 0.7041 -0.7101
vn -0.0000 0.3805 -0.9248
vn -0.0000 -0.3805 -0.9248
vn -0.0000 -0.9940 -0.1092
vn -0.0000 -0.5572 -0.8304
vn -0.0000 -0.9279 -0.3728
vn -0.0000 -0.7561 -0.6544
vn 0.0213 -0.9940 -0.1071
vn 0.1620 -0.5572 -0.8144
vn 0.0727 -0.9279 -0.3657
vn 0.1277 -0.7561 -0.6419
vn 0.0418 -0.9940 -0.1009
vn 0.3178 -0.5572 -0.7672
vn 0.1427 -0.9279 -0.3445
vn 0.2504 -0.7561 -0.6046
vn 0.0607 -0.9940 -0.0908
vn 0.4613 -0.5572 -0.6904
vn 0.2071 -0.9279 -0.3100
vn 0.3636 -0.7561 -0.5442
vn 0.0772 -0.9940 -0.0772
vn 0.5872 -0.5572 -0.5872
vn 0.2636 -0.9279 -0.2636
vn 0.4628 -0.7561 -0.4628
vn 0.0908 -0.9940 -0.0607
vn 0.6904 -0.5572 -0.4613
vn 0.3100 -0.9279 -0.2071
vn 0.5442 -0.7561 -0.3636
vn 0.1009 -0.9940 -0.0418
vn 0.7672 -0.5572 -0.3178
vn 0.3445 -0.9279 -0.1427
vn 0.6046 -0.7561 -0.2504
vn 0.1071 -0.9940 -0.0213
vn 0.8144 -0.5572 -0.1620
vn 0.3657 -0.9279 -0.0727
vn 0.6419 -0.7561 -0.1277
vn 0.1092 -0.9940 -0.0000
vn 0.8304 -0.5572 -0.0000
vn 0.3728 -0.9279 -0.0000
vn 0.6544 -0.7561 -0.0000
vn 0.1071 -0.9940 0.0213
vn 0.8144 -0.5572 0.1620
vn 0.3657 -0.9279 0.0727
vn 0.6419 -0.7561 0.1277
vn 0.1009 -0.9940 0.0418
vn 0.7672 -0.5572 0.3178
vn 0.3445 -0.9279 0.1427
vn 0.6046 -0.7561 0.2504
vn 0.0908 -0.9940 0.0607
vn 0.6904 -0.5572 0.4613
vn 0.3100 -0.9279 0.2071
vn 0.5442 -0.7561 0.3636
vn 0.0772 -0.9940 0.0772
vn 0.5872 -0.5572 0.5872
vn 0.2636 -0.9279 0.2636
vn 0.4628 -0.7561 0.4628
vn 0.0607 -0.9940 0.0908
vn 0.4613 -0.5572 0.6904
vn 0.2071 -0.9279 0.3100
vn 0.3636 -0.7561 0.5442
vn 0.0418 -0.9940 0.1009
vn 0.3178 -0.5572 0.7672
vn 0.1427 -0.9279 0.3445
vn 0.2504 -0.7561 0.6046
vn 0.0213 -0.9940 0.1071
vn 0.1620 -0.5572 0.8144
vn 0.0727 -0.9279 0.3657
vn 0.1277 -0.7561 0.6419
vn -0.0000 -0.9940 0.1092
vn -0.0000 -0.5572 0.8304
vn -0.0000 -0.9279 0.3728
vn -0.0000 -0.7561 0.6544
vn -0.0213 -0.9940 0.1071
vn -0.1620 -0.5572 0.8144
vn -0.0727 -0.9279 0.3657
vn -0.1277 -0.7561 0.6419
vn -0.0418 -0.9940 0.1009
vn -0.3178 -0.5572 0.7672
vn -0.1427 -0.9279 0.3445
vn -0.2504 -0.7561 0.6046
vn -0.0607 -0.9940 0.0908
vn -0.4613 -0.5572 0.6904
vn -0.2071 -0.9279 0.3100
vn -0.3636 -0.7561 0.5442
vn -0.0772 -0.9940 0.0772
vn -0.5872 -0.5572 0.5872
vn -0.2636 -0.9279 0.2636
vn -0.4628 -0.7561 0.4628
vn -0.0908 -0.9940 0.0607
vn -0.6904 -0.5572 0.4613
vn -0.3100 -0.9279 0.2071
vn -0.5442 -0.7561 0.3636
vn -0.1009 -0.9940 0.0418
vn -0.7672 -0.5572 0.3178
vn -0.3445 -0.9279 0.1427
vn -0.6046 -0.7561 0.2504
vn -0.1071 -0.9940 0.0213
vn -0.8144 -0.5572 0.1620
vn -0.3657 -0.9279 0.0727
vn -0.6419 -0.7561 0.1277
vn -0.1092 -0.9940 -0.0000
vn -0.8304 -0.5572 -0.0000
vn -0.3728 -0.9279 -0.0000
vn -0.6544 -0.7561 -0.0000
vn -0.1071 -0.9940 -0.0213
vn -0.8144 -0.5572 -0.1620
vn -0.3657 -0.9279 -0.0727
vn -0.6419 -0.7561 -0.1277
vn -0.1009 -0.9940 -0.0418
vn -0.7672 -0.5572 -0.3178
vn -0.3445 -0.9279 -0.1427
vn -0.6046 -0.7561 -0.2504
vn -0.0908 -0.9940 -0.0607
vn -0.6904 -0.5572 -0.4613
vn -0.3100 -0.9279 -0.2071
vn -0.5442 -0.7561 -0.3636
vn -0.0772 -0.9940 -0.0772
vn -0.5872 -0.5572 -0.5872
vn -0.2636 -0.9279 -0.2636
vn -0.4628 -0.7561 -0.4628
vn -0.0607 -0.9940 -0.0908
vn -0.4613 -0.5572 -0.6904
vn -0.2071 -0.9279 -0.3100
vn -0.3636 -0.7561 -0.5442
vn -0.0418 -0.9940 -0.1009
vn -0.3178 -0.5572 -0.7672
vn -0.1427 -0.9279 -0.3445
vn -0.2504 -0.7561 -0.6046
vn -0.0213 -0.9940 -0.1071
vn -0.1620 -0.5572 -0.8144
vn -0.0727 -0.9279 -0.3657
vn -0.1277 -0.7561 -0.6419
vt 0.750000 0.500000
vt 0.750000 0.562500
vt 0.718750 0.562500
vt 0.718750 0.500000
vt 0.750000 0.937500
vt 0.734375 1.000000
vt 0.718750 0.937500
vt 0.750000 0.437500
vt 0.718750 0.437500
vt 0.750000 0.875000
vt 0.718750 0.875000
vt 0.750000 0.375000
vt 0.718750 0.375000
vt 0.750000 0.812500
vt 0.718750 0.812500
vt 0.781250 0.348724
vt 0.781250 0.375000
vt 0.750000 0.348724
vt 0.750000 0.750000
vt 0.718750 0.750000
vt 0.750000 0.687500
vt 0.718750 0.687500
vt 0.750000 0.625000
vt 0.718750 0.625000
vt 0.687500 0.625000
vt 0.687500 0.562500
vt 0.687500 0.500000
vt 0.703125 1.000000
vt 0.687500 0.937500
vt 0.687500 0.437500
vt 0.687500 0.875000
vt 0.687500 0.375000
vt 0.687500 0.812500
vt 0.687500 0.348724
vt 0.656250 0.375000
vt 0.656250 0.348724
vt 0.687500 0.750000
vt 0.687500 0.687500
vt 0.625000 0.375000
vt 0.625000 0.348724
vt 0.656250 0.812500
vt 0.656250 0.750000
vt 0.656250 0.687500
vt 0.656250 0.625000
vt 0.656250 0.562500
vt 0.656250 0.500000
vt 0.671875 1.000000
vt 0.656250 0.937500
vt 0.656250 0.437500
vt 0.656250 0.875000
vt 0.625000 0.562500
vt 0.625000 0.500000
vt 0.640625 1.000000
vt 0.625000 0.937500
vt 0.625000 0.437500
vt 0.625000 0.875000
vt 0.625000 0.812500
vt 0.593750 0.375000
vt 0.593750 0.348724
vt 0.625000 0.750000
vt 0.625000 0.687500
vt 0.625000 0.625000
vt 0.593750 0.812500
vt 0.593750 0.750000
vt 0.593750 0.687500
vt 0.593750 0.625000
vt 0.593750 0.562500
vt 0.593750 0.500000
vt 0.609375 1.000000
vt 0.593750 0.937500
vt 0.593750 0.437500
vt 0.593750 0.875000
vt 0.562500 0.375000
vt 0.562500 0.348724
vt 0.562500 0.562500
vt 0.562500 0.500000
vt 0.578125 1.000000
vt 0.562500 0.937500
vt 0.562500 0.437500
vt 0.562500 0.875000
vt 0.562500 0.812500
vt 0.531250 0.375000
vt 0.531250 0.348724
vt 0.562500 0.750000
vt 0.562500 0.687500
vt 0.562500 0.625000
vt 0.531250 0.750000
vt 0.531250 0.687500
vt 0.531250 0.625000
vt 0.531250 0.562500
vt 0.531250 0.500000
vt 0.546875 1.000000
vt 0.531250 0.937500
vt 0.531250 0.437500
vt 0.531250 0.875000
vt 0.531250 0.812500
vt 0.500000 0.375000
vt 0.500000 0.348724
vt 0.515625 1.000000
vt 0.500000 0.937500
vt 0.500000 0.500000
vt 0.500000 0.437500
vt 0.500000 0.875000
vt 0.500000 0.812500
vt 0.500000 0.348724
vt 0.468750 0.375000
vt 0.468750 0.348724
vt 0.500000 0.750000
vt 0.500000 0.687500
vt 0.500000 0.625000
vt 0.500000 0.562500
vt 0.468750 0.750000
vt 0.468750 0.687500
vt 0.468750 0.625000
vt 0.468750 0.562500
vt 0.468750 0.500000
vt 0.484375 1.000000
vt 0.468750 0.937500
vt 0.468750 0.437500
vt 0.468750 0.875000
vt 0.468750 0.812500
vt 0.468750 0.348724
vt 0.437500 0.375000
vt 0.437500 0.348724
vt 0.437500 0.500000
vt 0.437500 0.437500
vt 0.437500 0.937500
vt 0.437500 0.875000
vt 0.437500 0.812500
vt 0.406250 0.375000
vt 0.406250 0.348724
vt 0.437500 0.750000
vt 0.437500 0.687500
vt 0.437500 0.625000
vt 0.437500 0.562500
vt 0.453125 1.000000
vt 0.406250 0.687500
vt 0.406250 0.625000
vt 0.406250 0.562500
vt 0.406250 0.500000
vt 0.421875 1.000000
vt 0.406250 0.937500
vt 0.406250 0.437500
vt 0.406250 0.875000
vt 0.406250 0.812500
vt 0.375000 0.375000
vt 0.375000 0.348724
vt 0.406250 0.750000
vt 0.375000 0.437500
vt 0.375000 0.875000
vt 0.375000 0.812500
vt 0.343750 0.375000
vt 0.343750 0.348724
vt 0.375000 0.750000
vt 0.375000 0.687500
vt 0.375000 0.625000
vt 0.375000 0.562500
vt 0.375000 0.500000
vt 0.390625 1.000000
vt 0.375000 0.937500
vt 0.343750 0.625000
vt 0.343750 0.562500
vt 0.343750 0.500000
vt 0.359375 1.000000
vt 0.343750 0.937500
vt 0.343750 0.437500
vt 0.343750 0.875000
vt 0.343750 0.812500
vt 0.312500 0.375000
vt 0.312500 0.348724
vt 0.343750 0.750000
vt 0.343750 0.687500
vt 0.312500 0.875000
vt 0.312500 0.812500
vt 0.281250 0.375000
vt 0.281250 0.348724
vt 0.312500 0.750000
vt 0.312500 0.687500
vt 0.312500 0.625000
vt 0.312500 0.562500
vt 0.312500 0.500000
vt 0.328125 1.000000
vt 0.312500 0.937500
vt 0.312500 0.437500
vt 0.281250 0.625000
vt 0.281250 0.562500
vt 0.281250 0.500000
vt 0.296875 1.000000
vt 0.281250 0.937500
vt 0.281250 0.437500
vt 0.281250 0.875000
vt 0.281250 0.812500
vt 0.250000 0.375000
vt 0.250000 0.348724
vt 0.281250 0.750000
vt 0.281250 0.687500
vt 0.218750 0.375000
vt 0.218750 0.348724
vt 0.250000 0.812500
vt 0.250000 0.750000
vt 0.250000 0.687500
vt 0.250000 0.625000
vt 0.250000 0.562500
vt 0.250000 0.500000
vt 0.265625 1.000000
vt 0.250000 0.937500
vt 0.250000 0.437500
vt 0.250000 0.875000
vt 0.218750 0.562500
vt 0.218750 0.500000
vt 0.234375 1.000000
vt 0.218750 0.937500
vt 0.218750 0.437500
vt 0.218750 0.875000
vt 0.218750 0.812500
vt 0.187500 0.375000
vt 0.187500 0.348724
vt 0.218750 0.750000
vt 0.218750 0.687500
vt 0.218750 0.625000
vt 0.187500 0.812500
vt 0.187500 0.750000
vt 0.187500 0.687500
vt 0.187500 0.625000
vt 0.187500 0.562500
vt 0.187500 0.500000
vt 0.203125 1.000000
vt 0.187500 0.937500
vt 0.187500 0.437500
vt 0.187500 0.875000
vt 0.187500 0.348724
vt 0.156250 0.375000
vt 0.156250 0.348724
vt 0.156250 0.562500
vt 0.156250 0.500000
vt 0.171875 1.000000
vt 0.156250 0.937500
vt 0.156250 0.437500
vt 0.156250 0.875000
vt 0.156250 0.812500
vt 0.125000 0.375000
vt 0.125000 0.348724
vt 0.156250 0.750000
vt 0.156250 0.687500
vt 0.156250 0.625000
vt 0.125000 0.750000
vt 0.125000 0.687500
vt 0.125000 0.625000
vt 0.125000 0.562500
vt 0.125000 0.500000
vt 0.140625 1.000000
vt 0.125000 0.937500
vt 0.125000 0.437500
vt 0.125000 0.875000
vt 0.125000 0.812500
vt 0.093750 0.375000
vt 0.093750 0.348724
vt 0.093750 0.500000
vt 0.093750 0.437500
vt 0.093750 0.937500
vt 0.093750 0.875000
vt 0.093750 0.812500
vt 0.093750 0.348724
vt 0.062500 0.375000
vt 0.062500 0.348724
vt 0.093750 0.750000
vt 0.093750 0.687500
vt 0.093750 0.625000
vt 0.093750 0.562500
vt 0.109375 1.000000
vt 0.062500 0.687500
vt 0.062500 0.625000
vt 0.062500 0.562500
vt 0.062500 0.500000
vt 0.078125 1.000000
vt 0.062500 0.937500
vt 0.062500 0.437500
vt 0.062500 0.875000
vt 0.062500 0.812500
vt 0.031250 0.375000
vt 0.031250 0.348724
vt 0.062500 0.750000
vt 0.031250 0.937500
vt 0.031250 0.875000
vt 0.031250 0.437500
vt 0.031250 0.812500
vt 0.031250 0.348724
vt 0.000000 0.375000
vt 0.000000 0.348724
vt 0.031250 0.750000
vt 0.031250 0.687500
vt 0.031250 0.625000
vt 0.031250 0.562500
vt 0.031250 0.500000
vt 0.046875 1.000000
vt 0.000000 0.687500
vt 0.000000 0.625000
vt 0.000000 0.562500
vt 0.000000 0.500000
vt 0.015625 1.000000
vt 0.000000 0.937500
vt 0.000000 0.437500
vt 0.000000 0.875000
vt 0.000000 0.812500
vt 1.000000 0.348724
vt 1.000000 0.375000
vt 0.968750 0.375000
vt 0.968750 0.348724
vt 0.000000 0.750000
vt 1.000000 0.437500
vt 0.968750 0.437500
vt 1.000000 0.812500
vt 1.000000 0.875000
vt 0.968750 0.875000
vt 0.968750 0.812500
vt 0.937500 0.375000
vt 0.937500 0.348724
vt 1.000000 0.750000
vt 0.968750 0.750000
vt 1.000000 0.687500
vt 0.968750 0.687500
vt 1.000000 0.625000
vt 0.968750 0.625000
vt 1.000000 0.562500
vt 0.968750 0.562500
vt 1.000000 0.500000
vt 0.968750 0.500000
vt 1.000000 0.937500
vt 0.984375 1.000000
vt 0.968750 0.937500
vt 0.937500 0.625000
vt 0.937500 0.562500
vt 0.937500 0.500000
vt 0.953125 1.000000
vt 0.937500 0.937500
vt 0.937500 0.437500
vt 0.937500 0.875000
vt 0.937500 0.812500
vt 0.906250 0.375000
vt 0.906250 0.348724
vt 0.937500 0.750000
vt 0.937500 0.687500
vt 0.906250 0.875000
vt 0.906250 0.812500
vt 0.875000 0.375000
vt 0.875000 0.348724
vt 0.906250 0.750000
vt 0.906250 0.687500
vt 0.906250 0.625000
vt 0.906250 0.562500
vt 0.906250 0.500000
vt 0.921875 1.000000
vt 0.906250 0.937500
vt 0.906250 0.437500
vt 0.875000 0.625000
vt 0.875000 0.562500
vt 0.875000 0.500000
vt 0.890625 1.000000
vt 0.875000 0.937500
vt 0.875000 0.437500
vt 0.875000 0.875000
vt 0.875000 0.812500
vt 0.843750 0.375000
vt 0.843750 0.348724
vt 0.875000 0.750000
vt 0.875000 0.687500
vt 0.843750 0.348724
vt 0.812500 0.375000
vt 0.812500 0.348724
vt 0.843750 0.812500
vt 0.843750 0.750000
vt 0.843750 0.687500
vt 0.843750 0.625000
vt 0.843750 0.562500
vt 0.843750 0.500000
vt 0.859375 1.000000
vt 0.843750 0.937500
vt 0.843750 0.437500
vt 0.843750 0.875000
vt 0.812500 0.562500
vt 0.812500 0.500000
vt 0.828125 1.000000
vt 0.812500 0.937500
vt 0.812500 0.437500
vt 0.812500 0.875000
vt 0.812500 0.812500
vt 0.781250 0.348724
vt 0.812500 0.750000
vt 0.812500 0.687500
vt 0.812500 0.625000
vt 0.781250 0.750000
vt 0.781250 0.687500
vt 0.781250 0.625000
vt 0.781250 0.562500
vt 0.781250 0.500000
vt 0.796875 1.000000
vt 0.781250 0.937500
vt 0.781250 0.437500
vt 0.781250 0.875000
vt 0.781250 0.812500
vt 0.765625 1.000000
vt 0.718750 0.348724
vt 0.687500 0.348724
vt 0.694149 0.312500
vt 0.720992 0.312500
vt 0.737212 0.312500
vt 0.707863 0.312500
vt 0.750000 0.328333
vt 0.718750 0.328333
vt 0.666849 0.312500
vt 0.678335 0.312500
vt 0.687500 0.328333
vt 0.639217 0.312500
vt 0.648675 0.312500
vt 0.656250 0.328333
vt 0.611343 0.312500
vt 0.618918 0.312500
vt 0.625000 0.328333
vt 0.593750 0.328333
vt 0.589087 0.312500
vt 0.583292 0.312500
vt 0.555114 0.312500
vt 0.559204 0.312500
vt 0.562500 0.328333
vt 0.531250 0.328333
vt 0.529286 0.312500
vt 0.526851 0.312500
vt 0.498539 0.312500
vt 0.499348 0.312500
vt 0.500000 0.328333
vt 0.470211 0.312500
vt 0.469402 0.312500
vt 0.468750 0.328333
vt 0.441899 0.312500
vt 0.439464 0.312500
vt 0.437500 0.328333
vt 0.413636 0.312500
vt 0.409546 0.312500
vt 0.406250 0.328333
vt 0.385458 0.312500
vt 0.379663 0.312500
vt 0.375000 0.328333
vt 0.357407 0.312500
vt 0.349833 0.312500
vt 0.343750 0.328333
vt 0.329533 0.312500
vt 0.320075 0.312500
vt 0.312500 0.328333
vt 0.301901 0.312500
vt 0.290415 0.312500
vt 0.281250 0.328333
vt 0.274601 0.312500
vt 0.260887 0.312500
vt 0.250000 0.328333
vt 0.247758 0.312500
vt 0.231538 0.312500
vt 0.218750 0.328333
vt 0.187500 0.328333
vt 0.202437 0.312500
vt 0.221570 0.312500
vt 0.196365 0.312500
vt 0.173696 0.312500
vt 0.156250 0.328333
vt 0.125000 0.328333
vt 0.145512 0.312500
vt 0.172764 0.312500
vt 0.152133 0.312500
vt 0.118297 0.312500
vt 0.093750 0.328333
vt 0.138316 0.312500
vt 0.093148 0.312500
vt 0.062500 0.328333
vt 0.147387 0.312500
vt 0.074960 0.312500
vt 0.031250 0.328333
vt 0.287913 0.312500
vt 0.161243 0.312500
vt 0.000215 0.328333
vt 0.680837 0.312500
vt 0.807507 0.312500
vt 0.000000 0.312500
vt 0.968750 0.312500
vt 1.000000 0.312500
vt 0.821363 0.312500
vt 0.893790 0.312500
vt 0.968535 0.328333
vt 0.937500 0.328333
vt 0.830434 0.312500
vt 0.875601 0.312500
vt 0.906250 0.328333
vt 0.816617 0.312500
vt 0.850453 0.312500
vt 0.875000 0.328333
vt 0.795986 0.312500
vt 0.823237 0.312500
vt 0.843750 0.328333
vt 0.772385 0.312500
vt 0.795054 0.312500
vt 0.812500 0.328333
vt 0.781250 0.328333
vt 0.766313 0.312500
vt 0.747180 0.312500
s 1
usemtl Material.005
f 4/1/4 3/2/3 12/3/12 13/4/13
f 317/5/317 56/6/56 6/7/6
f 5/8/5 4/1/4 13/4/13 14/9/14
f 318/10/318 317/5/317 6/7/6 7/11/7
f 321/12/321 5/8/5 14/9/14 15/13/15
f 1/14/1 318/10/318 7/11/7 8/15/8
f 447/16/447 316/17/316 321/12/321 323/18/323
f 319/19/319 1/14/1 8/15/8 9/20/9
f 2/21/2 319/19/319 9/20/9 10/22/10
f 320/23/320 2/21/2 10/22/10 11/24/11
f 3/2/3 320/23/320 11/24/11 12/3/12
f 12/3/12 11/24/11 21/25/21 22/26/22
f 13/4/13 12/3/12 22/26/22 23/27/23
f 6/7/6 56/28/56 16/29/16
f 14/9/14 13/4/13 23/27/23 24/30/24
f 7/11/7 6/7/6 16/29/16 17/31/17
f 15/13/15 14/9/14 24/30/24 25/32/25
f 8/15/8 7/11/7 17/31/17 18/33/18
f 331/34/331 25/32/25 35/35/35 335/36/335
f 9/20/9 8/15/8 18/33/18 19/37/19
f 10/22/10 9/20/9 19/37/19 20/38/20
f 11/24/11 10/22/10 20/38/20 21/25/21
f 335/36/335 35/35/35 45/39/45 339/40/339
f 19/37/19 18/33/18 28/41/28 29/42/29
f 20/38/20 19/37/19 29/42/29 30/43/30
f 21/25/21 20/38/20 30/43/30 31/44/31
f 22/26/22 21/25/21 31/44/31 32/45/32
f 23/27/23 22/26/22 32/45/32 33/46/33
f 16/29/16 56/47/56 26/48/26
f 24/30/24 23/27/23 33/46/33 34/49/34
f 17/31/17 16/29/16 26/48/26 27/50/27
f 25/32/25 24/30/24 34/49/34 35/35/35
f 18/33/18 17/31/17 27/50/27 28/41/28
f 33/46/33 32/45/32 42/51/42 43/52/43
f 26/48/26 56/53/56 36/54/36
f 34/49/34 33/46/33 43/52/43 44/55/44
f 27/50/27 26/48/26 36/54/36 37/56/37
f 35/35/35 34/49/34 44/55/44 45/39/45
f 28/41/28 27/50/27 37/56/37 38/57/38
f 339/40/339 45/39/45 55/58/55 343/59/343
f 29/42/29 28/41/28 38/57/38 39/60/39
f 30/43/30 29/42/29 39/60/39 40/61/40
f 31/44/31 30/43/30 40/61/40 41/62/41
f 32/45/32 31/44/31 41/62/41 42/51/42
f 39/60/39 38/57/38 48/63/48 49/64/49
f 40/61/40 39/60/39 49/64/49 50/65/50
f 41/62/41 40/61/40 50/65/50 51/66/51
f 42/51/42 41/62/41 51/66/51 52/67/52
f 43/52/43 42/51/42 52/67/52 53/68/53
f 36/54/36 56/69/56 46/70/46
f 44/55/44 43/52/43 53/68/53 54/71/54
f 37/56/37 36/54/36 46/70/46 47/72/47
f 45/39/45 44/55/44 54/71/54 55/58/55
f 38/57/38 37/56/37 47/72/47 48/63/48
f 343/59/343 55/58/55 66/73/66 347/74/347
f 53/68/53 52/67/52 63/75/63 64/76/64
f 46/70/46 56/77/56 57/78/57
f 54/71/54 53/68/53 64/76/64 65/79/65
f 47/72/47 46/70/46 57/78/57 58/80/58
f 55/58/55 54/71/54 65/79/65 66/73/66
f 48/63/48 47/72/47 58/80/58 59/81/59
f 347/74/347 66/73/66 76/82/76 351/83/351
f 49/64/49 48/63/48 59/81/59 60/84/60
f 50/65/50 49/64/49 60/84/60 61/85/61
f 51/66/51 50/65/50 61/85/61 62/86/62
f 52/67/52 51/66/51 62/86/62 63/75/63
f 61/85/61 60/84/60 70/87/70 71/88/71
f 62/86/62 61/85/61 71/88/71 72/89/72
f 63/75/63 62/86/62 72/89/72 73/90/73
f 64/76/64 63/75/63 73/90/73 74/91/74
f 57/78/57 56/92/56 67/93/67
f 65/79/65 64/76/64 74/91/74 75/94/75
f 58/80/58 57/78/57 67/93/67 68/95/68
f 66/73/66 65/79/65 75/94/75 76/82/76
f 59/81/59 58/80/58 68/95/68 69/96/69
f 351/83/351 76/82/76 86/97/86 355/98/355
f 60/84/60 59/81/59 69/96/69 70/87/70
f 67/93/67 56/99/56 77/100/77
f 75/94/75 74/91/74 84/101/84 85/102/85
f 68/95/68 67/93/67 77/100/77 78/103/78
f 76/82/76 75/94/75 85/102/85 86/97/86
f 69/96/69 68/95/68 78/103/78 79/104/79
f 355/105/355 86/97/86 96/106/96 359/107/359
f 70/87/70 69/96/69 79/104/79 80/108/80
f 71/88/71 70/87/70 80/108/80 81/109/81
f 72/89/72 71/88/71 81/109/81 82/110/82
f 73/90/73 72/89/72 82/110/82 83/111/83
f 74/91/74 73/90/73 83/111/83 84/101/84
f 81/109/81 80/108/80 90/112/90 91/113/91
f 82/110/82 81/109/81 91/113/91 92/114/92
f 83/111/83 82/110/82 92/114/92 93/115/93
f 84/101/84 83/111/83 93/115/93 94/116/94
f 77/100/77 56/117/56 87/118/87
f 85/102/85 84/101/84 94/116/94 95/119/95
f 78/103/78 77/100/77 87/118/87 88/120/88
f 86/97/86 85/102/85 95/119/95 96/106/96
f 79/104/79 78/103/78 88/120/88 89/121/89
f 359/122/359 96/106/96 106/123/106 363/124/363
f 80/108/80 79/104/79 89/121/89 90/112/90
f 95/119/95 94/116/94 104/125/104 105/126/105
f 88/120/88 87/118/87 97/127/97 98/128/98
f 96/106/96 95/119/95 105/126/105 106/123/106
f 89/121/89 88/120/88 98/128/98 99/129/99
f 363/124/363 106/123/106 116/130/116 367/131/367
f 90/112/90 89/121/89 99/129/99 100/132/100
f 91/113/91 90/112/90 100/132/100 101/133/101
f 92/114/92 91/113/91 101/133/101 102/134/102
f 93/115/93 92/114/92 102/134/102 103/135/103
f 94/116/94 93/115/93 103/135/103 104/125/104
f 87/118/87 56/136/56 97/127/97
f 102/134/102 101/133/101 111/137/111 112/138/112
f 103/135/103 102/134/102 112/138/112 113/139/113
f 104/125/104 103/135/103 113/139/113 114/140/114
f 97/127/97 56/141/56 107/142/107
f 105/126/105 104/125/104 114/140/114 115/143/115
f 98/128/98 97/127/97 107/142/107 108/144/108
f 106/123/106 105/126/105 115/143/115 116/130/116
f 99/129/99 98/128/98 108/144/108 109/145/109
f 367/131/367 116/130/116 126/146/126 371/147/371
f 100/132/100 99/129/99 109/145/109 110/148/110
f 101/133/101 100/132/100 110/148/110 111/137/111
f 116/130/116 115/143/115 125/149/125 126/146/126
f 109/145/109 108/144/108 118/150/118 119/151/119
f 371/147/371 126/146/126 136/152/136 375/153/375
f 110/148/110 109/145/109 119/151/119 120/154/120
f 111/137/111 110/148/110 120/154/120 121/155/121
f 112/138/112 111/137/111 121/155/121 122/156/122
f 113/139/113 112/138/112 122/156/122 123/157/123
f 114/140/114 113/139/113 123/157/123 124/158/124
f 107/142/107 56/159/56 117/160/117
f 115/143/115 114/140/114 124/158/124 125/149/125
f 108/144/108 107/142/107 117/160/117 118/150/118
f 123/157/123 122/156/122 132/161/132 133/162/133
f 124/158/124 123/157/123 133/162/133 134/163/134
f 117/160/117 56/164/56 127/165/127
f 125/149/125 124/158/124 134/163/134 135/166/135
f 118/150/118 117/160/117 127/165/127 128/167/128
f 126/146/126 125/149/125 135/166/135 136/152/136
f 119/151/119 118/150/118 128/167/128 129/168/129
f 375/153/375 136/152/136 146/169/146 379/170/379
f 120/154/120 119/151/119 129/168/129 130/171/130
f 121/155/121 120/154/120 130/171/130 131/172/131
f 122/156/122 121/155/121 131/172/131 132/161/132
f 129/168/129 128/167/128 138/173/138 139/174/139
f 379/170/379 146/169/146 156/175/156 383/176/383
f 130/171/130 129/168/129 139/174/139 140/177/140
f 131/172/131 130/171/130 140/177/140 141/178/141
f 132/161/132 131/172/131 141/178/141 142/179/142
f 133/162/133 132/161/132 142/179/142 143/180/143
f 134/163/134 133/162/133 143/180/143 144/181/144
f 127/165/127 56/182/56 137/183/137
f 135/166/135 134/163/134 144/181/144 145/184/145
f 128/167/128 127/165/127 137/183/137 138/173/138
f 136/152/136 135/166/135 145/184/145 146/169/146
f 143/180/143 142/179/142 152/185/152 153/186/153
f 144/181/144 143/180/143 153/186/153 154/187/154
f 137/183/137 56/188/56 147/189/147
f 145/184/145 144/181/144 154/187/154 155/190/155
f 138/173/138 137/183/137 147/189/147 148/191/148
f 146/169/146 145/184/145 155/190/155 156/175/156
f 139/174/139 138/173/138 148/191/148 149/192/149
f 383/176/383 156/175/156 166/193/166 387/194/387
f 140/177/140 139/174/139 149/192/149 150/195/150
f 141/178/141 140/177/140 150/195/150 151/196/151
f 142/179/142 141/178/141 151/196/151 152/185/152
f 387/194/387 166/193/166 176/197/176 391/198/391
f 150/195/150 149/192/149 159/199/159 160/200/160
f 151/196/151 150/195/150 160/200/160 161/201/161
f 152/185/152 151/196/151 161/201/161 162/202/162
f 153/186/153 152/185/152 162/202/162 163/203/163
f 154/187/154 153/186/153 163/203/163 164/204/164
f 147/189/147 56/205/56 157/206/157
f 155/190/155 154/187/154 164/204/164 165/207/165
f 148/191/148 147/189/147 157/206/157 158/208/158
f 156/175/156 155/190/155 165/207/165 166/193/166
f 149/192/149 148/191/148 158/208/158 159/199/159
f 164/204/164 163/203/163 173/209/173 174/210/174
f 157/206/157 56/211/56 167/212/167
f 165/207/165 164/204/164 174/210/174 175/213/175
f 158/208/158 157/206/157 167/212/167 168/214/168
f 166/193/166 165/207/165 175/213/175 176/197/176
f 159/199/159 158/208/158 168/214/168 169/215/169
f 391/198/391 176/197/176 186/216/186 395/217/395
f 160/200/160 159/199/159 169/215/169 170/218/170
f 161/201/161 160/200/160 170/218/170 171/219/171
f 162/202/162 161/201/161 171/219/171 172/220/172
f 163/203/163 162/202/162 172/220/172 173/209/173
f 170/218/170 169/215/169 179/221/179 180/222/180
f 171/219/171 170/218/170 180/222/180 181/223/181
f 172/220/172 171/219/171 181/223/181 182/224/182
f 173/209/173 172/220/172 182/224/182 183/225/183
f 174/210/174 173/209/173 183/225/183 184/226/184
f 167/212/167 56/227/56 177/228/177
f 175/213/175 174/210/174 184/226/184 185/229/185
f 168/214/168 167/212/167 177/228/177 178/230/178
f 176/197/176 175/213/175 185/229/185 186/216/186
f 169/215/169 168/214/168 178/230/178 179/221/179
f 395/231/395 186/216/186 196/232/196 399/233/399
f 184/226/184 183/225/183 193/234/193 194/235/194
f 177/228/177 56/236/56 187/237/187
f 185/229/185 184/226/184 194/235/194 195/238/195
f 178/230/178 177/228/177 187/237/187 188/239/188
f 186/216/186 185/229/185 195/238/195 196/232/196
f 179/221/179 178/230/178 188/239/188 189/240/189
f 399/233/399 196/232/196 206/241/206 403/242/403
f 180/222/180 179/221/179 189/240/189 190/243/190
f 181/223/181 180/222/180 190/243/190 191/244/191
f 182/224/182 181/223/181 191/244/191 192/245/192
f 183/225/183 182/224/182 192/245/192 193/234/193
f 191/244/191 190/243/190 200/246/200 201/247/201
f 192/245/192 191/244/191 201/247/201 202/248/202
f 193/234/193 192/245/192 202/248/202 203/249/203
f 194/235/194 193/234/193 203/249/203 204/250/204
f 187/237/187 56/251/56 197/252/197
f 195/238/195 194/235/194 204/250/204 205/253/205
f 188/239/188 187/237/187 197/252/197 198/254/198
f 196/232/196 195/238/195 205/253/205 206/241/206
f 189/240/189 188/239/188 198/254/198 199/255/199
f 403/242/403 206/241/206 216/256/216 407/257/407
f 190/243/190 189/240/189 199/255/199 200/246/200
f 205/253/205 204/250/204 214/258/214 215/259/215
f 198/254/198 197/252/197 207/260/207 208/261/208
f 206/241/206 205/253/205 215/259/215 216/256/216
f 199/255/199 198/254/198 208/261/208 209/262/209
f 407/263/407 216/256/216 226/264/226 411/265/411
f 200/246/200 199/255/199 209/262/209 210/266/210
f 201/247/201 200/246/200 210/266/210 211/267/211
f 202/248/202 201/247/201 211/267/211 212/268/212
f 203/249/203 202/248/202 212/268/212 213/269/213
f 204/250/204 203/249/203 213/269/213 214/258/214
f 197/252/197 56/270/56 207/260/207
f 212/268/212 211/267/211 221/271/221 222/272/222
f 213/269/213 212/268/212 222/272/222 223/273/223
f 214/258/214 213/269/213 223/273/223 224/274/224
f 207/260/207 56/275/56 217/276/217
f 215/259/215 214/258/214 224/274/224 225/277/225
f 208/261/208 207/260/207 217/276/217 218/278/218
f 216/256/216 215/259/215 225/277/225 226/264/226
f 209/262/209 208/261/208 218/278/218 219/279/219
f 411/265/411 226/264/226 236/280/236 415/281/415
f 210/266/210 209/262/209 219/279/219 220/282/220
f 211/267/211 210/266/210 220/282/220 221/271/221
f 218/278/218 217/276/217 227/283/227 228/284/228
f 226/264/226 225/277/225 235/285/235 236/280/236
f 219/279/219 218/278/218 228/284/228 229/286/229
f 415/287/415 236/280/236 246/288/246 419/289/419
f 220/282/220 219/279/219 229/286/229 230/290/230
f 221/271/221 220/282/220 230/290/230 231/291/231
f 222/272/222 221/271/221 231/291/231 232/292/232
f 223/273/223 222/272/222 232/292/232 233/293/233
f 224/274/224 223/273/223 233/293/233 234/294/234
f 217/276/217 56/295/56 227/283/227
f 225/277/225 224/274/224 234/294/234 235/285/235
f 232/292/232 231/291/231 241/296/241 242/297/242
f 233/293/233 232/292/232 242/297/242 243/298/243
f 234/294/234 233/293/233 243/298/243 244/299/244
f 227/283/227 56/300/56 237/301/237
f 235/285/235 234/294/234 244/299/244 245/302/245
f 228/284/228 227/283/227 237/301/237 238/303/238
f 236/280/236 235/285/235 245/302/245 246/288/246
f 229/286/229 228/284/228 238/303/238 239/304/239
f 419/305/419 246/306/246 256/307/256 423/308/423
f 230/290/230 229/286/229 239/304/239 240/309/240
f 231/291/231 230/290/230 240/309/240 241/296/241
f 246/306/246 245/310/245 255/311/255 256/307/256
f 239/312/239 238/313/238 248/314/248 249/315/249
f 423/308/423 256/307/256 266/316/266 427/317/427
f 240/318/240 239/312/239 249/315/249 250/319/250
f 241/320/241 240/318/240 250/319/250 251/321/251
f 242/322/242 241/320/241 251/321/251 252/323/252
f 243/324/243 242/322/242 252/323/252 253/325/253
f 244/326/244 243/324/243 253/325/253 254/327/254
f 237/328/237 56/329/56 247/330/247
f 245/310/245 244/326/244 254/327/254 255/311/255
f 238/313/238 237/328/237 247/330/247 248/314/248
f 253/325/253 252/323/252 262/331/262 263/332/263
f 254/327/254 253/325/253 263/332/263 264/333/264
f 247/330/247 56/334/56 257/335/257
f 255/311/255 254/327/254 264/333/264 265/336/265
f 248/314/248 247/330/247 257/335/257 258/337/258
f 256/307/256 255/311/255 265/336/265 266/316/266
f 249/315/249 248/314/248 258/337/258 259/338/259
f 427/317/427 266/316/266 276/339/276 431/340/431
f 250/319/250 249/315/249 259/338/259 260/341/260
f 251/321/251 250/319/250 260/341/260 261/342/261
f 252/323/252 251/321/251 261/342/261 262/331/262
f 259/338/259 258/337/258 268/343/268 269/344/269
f 431/340/431 276/339/276 286/345/286 435/346/435
f 260/341/260 259/338/259 269/344/269 270/347/270
f 261/342/261 260/341/260 270/347/270 271/348/271
f 262/331/262 261/342/261 271/348/271 272/349/272
f 263/332/263 262/331/262 272/349/272 273/350/273
f 264/333/264 263/332/263 273/350/273 274/351/274
f 257/335/257 56/352/56 267/353/267
f 265/336/265 264/333/264 274/351/274 275/354/275
f 258/337/258 257/335/257 267/353/267 268/343/268
f 266/316/266 265/336/265 275/354/275 276/339/276
f 273/350/273 272/349/272 282/355/282 283/356/283
f 274/351/274 273/350/273 283/356/283 284/357/284
f 267/353/267 56/358/56 277/359/277
f 275/354/275 274/351/274 284/357/284 285/360/285
f 268/343/268 267/353/267 277/359/277 278/361/278
f 276/339/276 275/354/275 285/360/285 286/345/286
f 269/344/269 268/343/268 278/361/278 279/362/279
f 435/346/435 286/345/286 296/363/296 439/364/439
f 270/347/270 269/344/269 279/362/279 280/365/280
f 271/348/271 270/347/270 280/365/280 281/366/281
f 272/349/272 271/348/271 281/366/281 282/355/282
f 439/367/439 296/363/296 306/368/306 443/369/443
f 280/365/280 279/362/279 289/370/289 290/371/290
f 281/366/281 280/365/280 290/371/290 291/372/291
f 282/355/282 281/366/281 291/372/291 292/373/292
f 283/356/283 282/355/282 292/373/292 293/374/293
f 284/357/284 283/356/283 293/374/293 294/375/294
f 277/359/277 56/376/56 287/377/287
f 285/360/285 284/357/284 294/375/294 295/378/295
f 278/361/278 277/359/277 287/377/287 288/379/288
f 286/345/286 285/360/285 295/378/295 296/363/296
f 279/362/279 278/361/278 288/379/288 289/370/289
f 294/375/294 293/374/293 303/380/303 304/381/304
f 287/377/287 56/382/56 297/383/297
f 295/378/295 294/375/294 304/381/304 305/384/305
f 288/379/288 287/377/287 297/383/297 298/385/298
f 296/363/296 295/378/295 305/384/305 306/368/306
f 289/370/289 288/379/288 298/385/298 299/386/299
f 443/369/443 306/368/306 316/17/316 447/387/447
f 290/371/290 289/370/289 299/386/299 300/388/300
f 291/372/291 290/371/290 300/388/300 301/389/301
f 292/373/292 291/372/291 301/389/301 302/390/302
f 293/374/293 292/373/292 302/390/302 303/380/303
f 301/389/301 300/388/300 310/391/310 311/392/311
f 302/390/302 301/389/301 311/392/311 312/393/312
f 303/380/303 302/390/302 312/393/312 313/394/313
f 304/381/304 303/380/303 313/394/313 314/395/314
f 297/383/297 56/396/56 307/397/307
f 305/384/305 304/381/304 314/395/314 315/398/315
f 298/385/298 297/383/297 307/397/307 308/399/308
f 306/368/306 305/384/305 315/398/315 316/17/316
f 299/386/299 298/385/298 308/399/308 309/400/309
f 300/388/300 299/386/299 309/400/309 310/391/310
f 307/397/307 56/401/56 317/5/317
f 315/398/315 314/395/314 4/1/4 5/8/5
f 308/399/308 307/397/307 317/5/317 318/10/318
f 316/17/316 315/398/315 5/8/5 321/12/321
f 309/400/309 308/399/308 318/10/318 1/14/1
f 327/402/327 15/13/15 25/32/25 331/403/331
f 310/391/310 309/400/309 1/14/1 319/19/319
f 311/392/311 310/391/310 319/19/319 2/21/2
f 312/393/312 311/392/311 2/21/2 320/23/320
f 313/394/313 312/393/312 320/23/320 3/2/3
f 323/18/323 321/12/321 15/13/15 327/402/327
f 314/395/314 313/394/313 3/2/3 4/1/4
f 326/404/326 322/405/322 324/406/324 328/407/328
f 328/407/328 324/406/324 325/408/325 329/409/329
f 329/409/329 325/408/325 323/18/323 327/402/327
f 330/410/330 326/404/326 328/407/328 332/411/332
f 332/411/332 328/407/328 329/409/329 333/412/333
f 333/412/333 329/409/329 327/402/327 331/403/331
f 334/413/334 330/410/330 332/411/332 336/414/336
f 336/414/336 332/411/332 333/412/333 337/415/337
f 337/415/337 333/412/333 331/34/331 335/36/335
f 338/416/338 334/413/334 336/414/336 340/417/340
f 340/417/340 336/414/336 337/415/337 341/418/341
f 341/418/341 337/415/337 335/36/335 339/40/339
f 339/40/339 343/59/343 345/419/345 341/418/341
f 341/418/341 345/419/345 344/420/344 340/417/340
f 340/417/340 344/420/344 342/421/342 338/416/338
f 346/422/346 342/421/342 344/420/344 348/423/348
f 348/423/348 344/420/344 345/419/345 349/424/349
f 349/424/349 345/419/345 343/59/343 347/74/347
f 347/74/347 351/83/351 353/425/353 349/424/349
f 349/424/349 353/425/353 352/426/352 348/423/348
f 348/423/348 352/426/352 350/427/350 346/422/346
f 354/428/354 350/427/350 352/426/352 356/429/356
f 356/429/356 352/426/352 353/425/353 357/430/357
f 357/430/357 353/425/353 351/83/351 355/98/355
f 358/431/358 354/428/354 356/429/356 360/432/360
f 360/432/360 356/429/356 357/430/357 361/433/361
f 361/433/361 357/430/357 355/105/355 359/107/359
f 362/434/362 358/431/358 360/432/360 364/435/364
f 364/435/364 360/432/360 361/433/361 365/436/365
f 365/436/365 361/433/361 359/122/359 363/124/363
f 366/437/366 362/434/362 364/435/364 368/438/368
f 368/438/368 364/435/364 365/436/365 369/439/369
f 369/439/369 365/436/365 363/124/363 367/131/367
f 370/440/370 366/437/366 368/438/368 372/441/372
f 372/441/372 368/438/368 369/439/369 373/442/373
f 373/442/373 369/439/369 367/131/367 371/147/371
f 374/443/374 370/440/370 372/441/372 376/444/376
f 376/444/376 372/441/372 373/442/373 377/445/377
f 377/445/377 373/442/373 371/147/371 375/153/375
f 378/446/378 374/443/374 376/444/376 380/447/380
f 380/447/380 376/444/376 377/445/377 381/448/381
f 381/448/381 377/445/377 375/153/375 379/170/379
f 382/449/382 378/446/378 380/447/380 384/450/384
f 384/450/384 380/447/380 381/448/381 385/451/385
f 385/451/385 381/448/381 379/170/379 383/176/383
f 386/452/386 382/449/382 384/450/384 388/453/388
f 388/453/388 384/450/384 385/451/385 389/454/389
f 389/454/389 385/451/385 383/176/383 387/194/387
f 390/455/390 386/452/386 388/453/388 392/456/392
f 392/456/392 388/453/388 389/454/389 393/457/393
f 393/457/393 389/454/389 387/194/387 391/198/391
f 391/198/391 395/217/395 397/458/397 393/457/393
f 393/457/393 397/458/397 396/459/396 392/456/392
f 392/456/392 396/459/396 394/460/394 390/455/390
f 398/461/398 394/460/394 396/459/396 400/462/400
f 400/462/400 396/459/396 397/458/397 401/463/401
f 401/463/401 397/458/397 395/231/395 399/233/399
f 399/233/399 403/242/403 405/464/405 401/463/401
f 401/463/401 405/464/405 404/465/404 400/462/400
f 400/462/400 404/465/404 402/466/402 398/461/398
f 406/467/406 402/466/402 404/465/404 408/468/408
f 408/468/408 404/465/404 405/464/405 409/469/409
f 409/469/409 405/464/405 403/242/403 407/257/407
f 410/470/410 406/467/406 408/468/408 412/471/412
f 412/471/412 408/468/408 409/469/409 413/472/413
f 413/472/413 409/469/409 407/263/407 411/265/411
f 414/473/414 410/470/410 412/471/412 416/474/416
f 416/474/416 412/471/412 413/472/413 417/475/417
f 417/475/417 413/472/413 411/265/411 415/281/415
f 418/476/418 414/473/414 416/474/416 420/477/420
f 420/477/420 416/474/416 417/475/417 421/478/421
f 421/478/421 417/475/417 415/287/415 419/289/419
f 422/479/422 418/476/418 420/477/420 424/480/424
f 424/480/424 420/477/420 421/481/421 425/482/425
f 425/482/425 421/483/421 419/305/419 423/308/423
f 426/484/426 422/479/422 424/480/424 428/485/428
f 428/485/428 424/480/424 425/486/425 429/487/429
f 429/487/429 425/486/425 423/308/423 427/317/427
f 430/488/430 426/484/426 428/485/428 432/489/432
f 432/489/432 428/485/428 429/487/429 433/490/433
f 433/490/433 429/487/429 427/317/427 431/340/431
f 434/491/434 430/488/430 432/489/432 436/492/436
f 436/492/436 432/489/432 433/490/433 437/493/437
f 437/493/437 433/490/433 431/340/431 435/346/435
f 438/494/438 434/491/434 436/492/436 440/495/440
f 440/495/440 436/492/436 437/493/437 441/496/441
f 441/496/441 437/493/437 435/346/435 439/364/439
f 442/497/442 438/494/438 440/495/440 444/498/444
f 444/498/444 440/495/440 441/496/441 445/499/445
f 445/499/445 441/496/441 439/367/439 443/369/443
f 443/369/443 447/387/447 449/500/449 445/499/445
f 445/499/445 449/500/449 448/501/448 444/498/444
f 444/498/444 448/501/448 446/502/446 442/497/442
f 322/405/322 446/502/446 448/501/448 324/406/324
f 324/406/324 448/501/448 449/500/449 325/408/325
f 325/408/325 449/500/449 447/16/447 323/18/323
f 326/404/326 330/410/330 334/413/334 338/416/338 342/421/342 346/422/346 350/427/350 354/428/354 358/431/358 362/434/362 366/437/366 370/440/370 374/443/374 378/446/378 382/449/382 386/452/386 390/455/390 394/460/394 398/461/398 402/466/402 406/467/406 410/470/410 414/473/414 418/476/418 422/479/422 426/484/426 430/488/430 434/491/434 438/494/438 442/497/442 446/502/446 322/405/322
