{
	"asset":{
		"generator":"Khronos glTF Blender I/O v5.1.18",
		"version":"2.0"
	},
	"scene":0,
	"scenes":[
		{
			"name":"Scene",
			"nodes":[
				0,
				14,
				16
			]
		}
	],
	"nodes":[
		{
			"mesh":0,
			"name":"Esfera geod\u00e9sica"
		},
		{
			"name":"Head",
			"rotation":[
				-4.440892098500626e-15,
				-2.5376088785833417e-08,
				5.293955920339377e-23,
				1
			],
			"translation":[
				6.08021674001678e-22,
				1.440974235534668,
				-2.1316282072803006e-14
			]
		},
		{
			"name":"Hand.L",
			"rotation":[
				5.960465898624534e-08,
				4.719736191769689e-15,
				-3.891836024727969e-15,
				1
			],
			"translation":[
				-3.214678088170331e-07,
				0.7906022071838379,
				1.4210854715202004e-14
			]
		},
		{
			"children":[
				2
			],
			"name":"Arm.L",
			"rotation":[
				8.220751190890496e-09,
				6.733961299687508e-08,
				-0.7071066498756409,
				0.70710688829422
			],
			"scale":[
				1,
				0.9999999403953552,
				1
			],
			"translation":[
				0.5152090787887573,
				1.0101418495178223,
				4.0141068780030764e-07
			]
		},
		{
			"name":"Foot.L",
			"rotation":[
				-3.371747254732327e-07,
				2.1800609317779163e-07,
				0.7071066498756409,
				0.70710688829422
			],
			"translation":[
				-5.3734794391857577e-14,
				0.8199472427368164,
				7.305593641149244e-08
			]
		},
		{
			"children":[
				4
			],
			"name":"LowerLeg.L",
			"rotation":[
				7.544923619207111e-08,
				-7.391427203629064e-08,
				-2.052222782822355e-07,
				1
			],
			"translation":[
				-7.105427357601002e-14,
				0.5808787941932678,
				1.1417967016313924e-07
			]
		},
		{
			"children":[
				5
			],
			"name":"Leg.L",
			"rotation":[
				0.70710688829422,
				-1.4511410029172112e-07,
				-0.7071066498756409,
				1.4901158351676713e-07
			],
			"translation":[
				0.6266109347343445,
				0.07022559642791748,
				5.324983831656027e-08
			]
		},
		{
			"name":"Hand.R",
			"rotation":[
				5.960463766996327e-08,
				-1.1670301362657134e-15,
				-1.031901699640814e-14,
				1
			],
			"translation":[
				3.214678372387425e-07,
				0.7906022071838379,
				2.842170943040401e-14
			]
		},
		{
			"children":[
				7
			],
			"name":"Arm.R",
			"rotation":[
				-5.18696552376241e-08,
				-1.2743004162985017e-07,
				0.7071066498756409,
				0.70710688829422
			],
			"scale":[
				1,
				0.9999999403953552,
				1
			],
			"translation":[
				-0.5152090787887573,
				1.0101418495178223,
				3.13844992660961e-07
			]
		},
		{
			"name":"Foot.R",
			"rotation":[
				-3.371747254732327e-07,
				-2.1800609317779163e-07,
				-0.7071066498756409,
				0.70710688829422
			],
			"translation":[
				5.81756864903582e-14,
				0.8199472427368164,
				7.305593641149244e-08
			]
		},
		{
			"children":[
				9
			],
			"name":"LowerLeg.R",
			"rotation":[
				7.544923619207111e-08,
				9.929032529498727e-08,
				2.0522224986052606e-07,
				1
			],
			"translation":[
				9.947598300641403e-14,
				0.5808787941932678,
				1.1417963463600245e-07
			]
		},
		{
			"children":[
				10
			],
			"name":"Leg.R",
			"rotation":[
				0.70710688829422,
				1.4511407187001168e-07,
				0.7071066498756409,
				1.4901159772762185e-07
			],
			"translation":[
				-0.6266109347343445,
				0.07022559642791748,
				-5.324985252741499e-08
			]
		},
		{
			"children":[
				1,
				3,
				6,
				8,
				11
			],
			"name":"Torso",
			"rotation":[
				-3.8359459608727775e-08,
				4.2490359675184664e-08,
				-7.271914436240913e-16,
				1
			],
			"scale":[
				1,
				0.9999999403953552,
				0.9999999403953552
			],
			"translation":[
				0,
				1.423121690750122,
				0
			]
		},
		{
			"mesh":1,
			"name":"Torso",
			"skin":0
		},
		{
			"children":[
				13,
				12
			],
			"name":"Armature"
		},
		{
			"name":"Hueso",
			"translation":[
				-0.006746914237737656,
				2.0008785724639893,
				-0.3968283236026764
			]
		},
		{
			"children":[
				15
			],
			"name":"Esqueleto"
		}
	],
	"animations":[
		{
			"channels":[
				{
					"sampler":0,
					"target":{
						"node":12,
						"path":"translation"
					}
				},
				{
					"sampler":1,
					"target":{
						"node":12,
						"path":"rotation"
					}
				},
				{
					"sampler":2,
					"target":{
						"node":12,
						"path":"scale"
					}
				},
				{
					"sampler":3,
					"target":{
						"node":1,
						"path":"translation"
					}
				},
				{
					"sampler":4,
					"target":{
						"node":1,
						"path":"rotation"
					}
				},
				{
					"sampler":5,
					"target":{
						"node":1,
						"path":"scale"
					}
				},
				{
					"sampler":6,
					"target":{
						"node":3,
						"path":"translation"
					}
				},
				{
					"sampler":7,
					"target":{
						"node":3,
						"path":"rotation"
					}
				},
				{
					"sampler":8,
					"target":{
						"node":3,
						"path":"scale"
					}
				},
				{
					"sampler":9,
					"target":{
						"node":2,
						"path":"translation"
					}
				},
				{
					"sampler":10,
					"target":{
						"node":2,
						"path":"rotation"
					}
				},
				{
					"sampler":11,
					"target":{
						"node":2,
						"path":"scale"
					}
				},
				{
					"sampler":12,
					"target":{
						"node":6,
						"path":"translation"
					}
				},
				{
					"sampler":13,
					"target":{
						"node":6,
						"path":"rotation"
					}
				},
				{
					"sampler":14,
					"target":{
						"node":6,
						"path":"scale"
					}
				},
				{
					"sampler":15,
					"target":{
						"node":5,
						"path":"translation"
					}
				},
				{
					"sampler":16,
					"target":{
						"node":5,
						"path":"rotation"
					}
				},
				{
					"sampler":17,
					"target":{
						"node":5,
						"path":"scale"
					}
				},
				{
					"sampler":18,
					"target":{
						"node":4,
						"path":"translation"
					}
				},
				{
					"sampler":19,
					"target":{
						"node":4,
						"path":"rotation"
					}
				},
				{
					"sampler":20,
					"target":{
						"node":4,
						"path":"scale"
					}
				},
				{
					"sampler":21,
					"target":{
						"node":8,
						"path":"translation"
					}
				},
				{
					"sampler":22,
					"target":{
						"node":8,
						"path":"rotation"
					}
				},
				{
					"sampler":23,
					"target":{
						"node":8,
						"path":"scale"
					}
				},
				{
					"sampler":24,
					"target":{
						"node":7,
						"path":"translation"
					}
				},
				{
					"sampler":25,
					"target":{
						"node":7,
						"path":"rotation"
					}
				},
				{
					"sampler":26,
					"target":{
						"node":7,
						"path":"scale"
					}
				},
				{
					"sampler":27,
					"target":{
						"node":11,
						"path":"translation"
					}
				},
				{
					"sampler":28,
					"target":{
						"node":11,
						"path":"rotation"
					}
				},
				{
					"sampler":29,
					"target":{
						"node":11,
						"path":"scale"
					}
				},
				{
					"sampler":30,
					"target":{
						"node":10,
						"path":"translation"
					}
				},
				{
					"sampler":31,
					"target":{
						"node":10,
						"path":"rotation"
					}
				},
				{
					"sampler":32,
					"target":{
						"node":10,
						"path":"scale"
					}
				},
				{
					"sampler":33,
					"target":{
						"node":9,
						"path":"translation"
					}
				},
				{
					"sampler":34,
					"target":{
						"node":9,
						"path":"rotation"
					}
				},
				{
					"sampler":35,
					"target":{
						"node":9,
						"path":"scale"
					}
				}
			],
			"name":"Armature_acci\u00f3n",
			"samplers":[
				{
					"input":77,
					"interpolation":"STEP",
					"output":78
				},
				{
					"input":77,
					"interpolation":"STEP",
					"output":79
				},
				{
					"input":77,
					"interpolation":"STEP",
					"output":80
				},
				{
					"input":77,
					"interpolation":"STEP",
					"output":81
				},
				{
					"input":77,
					"interpolation":"STEP",
					"output":82
				},
				{
					"input":77,
					"interpolation":"STEP",
					"output":83
				},
				{
					"input":77,
					"interpolation":"STEP",
					"output":84
				},
				{
					"input":85,
					"interpolation":"LINEAR",
					"output":86
				},
				{
					"input":77,
					"interpolation":"STEP",
					"output":87
				},
				{
					"input":77,
					"interpolation":"LINEAR",
					"output":88
				},
				{
					"input":85,
					"interpolation":"LINEAR",
					"output":89
				},
				{
					"input":77,
					"interpolation":"LINEAR",
					"output":90
				},
				{
					"input":77,
					"interpolation":"STEP",
					"output":91
				},
				{
					"input":77,
					"interpolation":"STEP",
					"output":92
				},
				{
					"input":77,
					"interpolation":"STEP",
					"output":93
				},
				{
					"input":77,
					"interpolation":"STEP",
					"output":94
				},
				{
					"input":77,
					"interpolation":"STEP",
					"output":95
				},
				{
					"input":77,
					"interpolation":"STEP",
					"output":83
				},
				{
					"input":77,
					"interpolation":"STEP",
					"output":96
				},
				{
					"input":77,
					"interpolation":"STEP",
					"output":97
				},
				{
					"input":77,
					"interpolation":"STEP",
					"output":83
				},
				{
					"input":77,
					"interpolation":"STEP",
					"output":98
				},
				{
					"input":85,
					"interpolation":"LINEAR",
					"output":99
				},
				{
					"input":77,
					"interpolation":"STEP",
					"output":87
				},
				{
					"input":77,
					"interpolation":"LINEAR",
					"output":100
				},
				{
					"input":85,
					"interpolation":"LINEAR",
					"output":101
				},
				{
					"input":77,
					"interpolation":"LINEAR",
					"output":102
				},
				{
					"input":77,
					"interpolation":"STEP",
					"output":103
				},
				{
					"input":77,
					"interpolation":"STEP",
					"output":104
				},
				{
					"input":77,
					"interpolation":"STEP",
					"output":93
				},
				{
					"input":77,
					"interpolation":"STEP",
					"output":105
				},
				{
					"input":77,
					"interpolation":"STEP",
					"output":106
				},
				{
					"input":77,
					"interpolation":"STEP",
					"output":83
				},
				{
					"input":77,
					"interpolation":"STEP",
					"output":107
				},
				{
					"input":77,
					"interpolation":"STEP",
					"output":108
				},
				{
					"input":77,
					"interpolation":"STEP",
					"output":83
				}
			]
		}
	],
	"materials":[
		{
			"doubleSided":true,
			"name":"Torso_material",
			"pbrMetallicRoughness":{
				"baseColorTexture":{
					"index":0
				},
				"metallicFactor":0,
				"roughnessFactor":0.8999999761581421
			}
		},
		{
			"doubleSided":true,
			"name":"Arm_L_material",
			"pbrMetallicRoughness":{
				"baseColorTexture":{
					"index":1
				},
				"metallicFactor":0,
				"roughnessFactor":0.8999999761581421
			}
		},
		{
			"doubleSided":true,
			"name":"Arm_R_material",
			"pbrMetallicRoughness":{
				"baseColorTexture":{
					"index":2
				},
				"metallicFactor":0,
				"roughnessFactor":0.8999999761581421
			}
		},
		{
			"doubleSided":true,
			"name":"Foot_L_material",
			"pbrMetallicRoughness":{
				"baseColorTexture":{
					"index":3
				},
				"metallicFactor":0,
				"roughnessFactor":0.8999999761581421
			}
		},
		{
			"doubleSided":true,
			"name":"Foot_R_material",
			"pbrMetallicRoughness":{
				"baseColorTexture":{
					"index":4
				},
				"metallicFactor":0,
				"roughnessFactor":0.8999999761581421
			}
		},
		{
			"doubleSided":true,
			"name":"Hand_L_material",
			"pbrMetallicRoughness":{
				"baseColorTexture":{
					"index":5
				},
				"metallicFactor":0,
				"roughnessFactor":0.8999999761581421
			}
		},
		{
			"doubleSided":true,
			"name":"Hand_R_material",
			"pbrMetallicRoughness":{
				"baseColorTexture":{
					"index":6
				},
				"metallicFactor":0,
				"roughnessFactor":0.8999999761581421
			}
		},
		{
			"doubleSided":true,
			"name":"Head_material",
			"pbrMetallicRoughness":{
				"baseColorTexture":{
					"index":7
				},
				"metallicFactor":0,
				"roughnessFactor":0.8999999761581421
			}
		},
		{
			"doubleSided":true,
			"name":"Leg_L_material",
			"pbrMetallicRoughness":{
				"baseColorTexture":{
					"index":8
				},
				"metallicFactor":0,
				"roughnessFactor":0.8999999761581421
			}
		},
		{
			"doubleSided":true,
			"name":"Leg_R_material",
			"pbrMetallicRoughness":{
				"baseColorTexture":{
					"index":9
				},
				"metallicFactor":0,
				"roughnessFactor":0.8999999761581421
			}
		},
		{
			"doubleSided":true,
			"name":"LowerLeg_L_material",
			"pbrMetallicRoughness":{
				"baseColorTexture":{
					"index":10
				},
				"metallicFactor":0,
				"roughnessFactor":0.8999999761581421
			}
		},
		{
			"doubleSided":true,
			"name":"LowerLeg_R_material",
			"pbrMetallicRoughness":{
				"baseColorTexture":{
					"index":11
				},
				"metallicFactor":0,
				"roughnessFactor":0.8999999761581421
			}
		}
	],
	"meshes":[
		{
			"name":"Esfera geod\u00e9sica",
			"primitives":[
				{
					"attributes":{
						"POSITION":0,
						"NORMAL":1,
						"TEXCOORD_0":2
					},
					"indices":3
				}
			]
		},
		{
			"name":"Cube.001",
			"primitives":[
				{
					"attributes":{
						"POSITION":4,
						"NORMAL":5,
						"TEXCOORD_0":6,
						"JOINTS_0":7,
						"WEIGHTS_0":8
					},
					"indices":9,
					"material":0
				},
				{
					"attributes":{
						"POSITION":10,
						"NORMAL":11,
						"TEXCOORD_0":12,
						"JOINTS_0":13,
						"WEIGHTS_0":14
					},
					"indices":15,
					"material":1
				},
				{
					"attributes":{
						"POSITION":16,
						"NORMAL":17,
						"TEXCOORD_0":18,
						"JOINTS_0":19,
						"WEIGHTS_0":20
					},
					"indices":21,
					"material":2
				},
				{
					"attributes":{
						"POSITION":22,
						"NORMAL":23,
						"TEXCOORD_0":24,
						"JOINTS_0":25,
						"WEIGHTS_0":26
					},
					"indices":27,
					"material":3
				},
				{
					"attributes":{
						"POSITION":28,
						"NORMAL":29,
						"TEXCOORD_0":30,
						"JOINTS_0":31,
						"WEIGHTS_0":32
					},
					"indices":33,
					"material":4
				},
				{
					"attributes":{
						"POSITION":34,
						"NORMAL":35,
						"TEXCOORD_0":36,
						"JOINTS_0":37,
						"WEIGHTS_0":38
					},
					"indices":39,
					"material":5
				},
				{
					"attributes":{
						"POSITION":40,
						"NORMAL":41,
						"TEXCOORD_0":42,
						"JOINTS_0":43,
						"WEIGHTS_0":44
					},
					"indices":45,
					"material":6
				},
				{
					"attributes":{
						"POSITION":46,
						"NORMAL":47,
						"TEXCOORD_0":48,
						"JOINTS_0":49,
						"WEIGHTS_0":50
					},
					"indices":51,
					"material":7
				},
				{
					"attributes":{
						"POSITION":52,
						"NORMAL":53,
						"TEXCOORD_0":54,
						"JOINTS_0":55,
						"WEIGHTS_0":56
					},
					"indices":57,
					"material":8
				},
				{
					"attributes":{
						"POSITION":58,
						"NORMAL":59,
						"TEXCOORD_0":60,
						"JOINTS_0":61,
						"WEIGHTS_0":62
					},
					"indices":63,
					"material":9
				},
				{
					"attributes":{
						"POSITION":64,
						"NORMAL":65,
						"TEXCOORD_0":66,
						"JOINTS_0":67,
						"WEIGHTS_0":68
					},
					"indices":69,
					"material":10
				},
				{
					"attributes":{
						"POSITION":70,
						"NORMAL":71,
						"TEXCOORD_0":72,
						"JOINTS_0":73,
						"WEIGHTS_0":74
					},
					"indices":75,
					"material":11
				}
			]
		}
	],
	"textures":[
		{
			"sampler":0,
			"source":0
		},
		{
			"sampler":0,
			"source":1
		},
		{
			"sampler":0,
			"source":2
		},
		{
			"sampler":0,
			"source":3
		},
		{
			"sampler":0,
			"source":4
		},
		{
			"sampler":0,
			"source":5
		},
		{
			"sampler":0,
			"source":6
		},
		{
			"sampler":0,
			"source":7
		},
		{
			"sampler":0,
			"source":8
		},
		{
			"sampler":0,
			"source":9
		},
		{
			"sampler":0,
			"source":10
		},
		{
			"sampler":0,
			"source":11
		}
	],
	"images":[
		{
			"mimeType":"image/jpeg",
			"name":"Robot-11",
			"uri":"Robot-11.jpg"
		},
		{
			"mimeType":"image/jpeg",
			"name":"Robot",
			"uri":"Robot.jpg"
		},
		{
			"mimeType":"image/jpeg",
			"name":"Robot-1",
			"uri":"Robot-1.jpg"
		},
		{
			"mimeType":"image/jpeg",
			"name":"Robot-2",
			"uri":"Robot-2.jpg"
		},
		{
			"mimeType":"image/jpeg",
			"name":"Robot-3",
			"uri":"Robot-3.jpg"
		},
		{
			"mimeType":"image/jpeg",
			"name":"Robot-4",
			"uri":"Robot-4.jpg"
		},
		{
			"mimeType":"image/jpeg",
			"name":"Robot-5",
			"uri":"Robot-5.jpg"
		},
		{
			"mimeType":"image/jpeg",
			"name":"Robot-6",
			"uri":"Robot-6.jpg"
		},
		{
			"mimeType":"image/jpeg",
			"name":"Robot-7",
			"uri":"Robot-7.jpg"
		},
		{
			"mimeType":"image/jpeg",
			"name":"Robot-8",
			"uri":"Robot-8.jpg"
		},
		{
			"mimeType":"image/jpeg",
			"name":"Robot-9",
			"uri":"Robot-9.jpg"
		},
		{
			"mimeType":"image/jpeg",
			"name":"Robot-10",
			"uri":"Robot-10.jpg"
		}
	],
	"skins":[
		{
			"inverseBindMatrices":76,
			"joints":[
				12,
				1,
				3,
				2,
				6,
				5,
				4,
				8,
				7,
				11,
				10,
				9
			],
			"name":"Armature"
		},
		{
			"inverseBindMatrices":109,
			"joints":[
				15
			],
			"name":"Esqueleto"
		}
	],
	"accessors":[
		{
			"bufferView":0,
			"componentType":5126,
			"count":240,
			"max":[
				0.9510578513145447,
				1,
				0.9999999403953552
			],
			"min":[
				-0.9510578513145447,
				-1,
				-0.9999999403953552
			],
			"type":"VEC3"
		},
		{
			"bufferView":1,
			"componentType":5126,
			"count":240,
			"type":"VEC3"
		},
		{
			"bufferView":2,
			"componentType":5126,
			"count":240,
			"type":"VEC2"
		},
		{
			"bufferView":3,
			"componentType":5123,
			"count":240,
			"type":"SCALAR"
		},
		{
			"bufferView":4,
			"componentType":5126,
			"count":1824,
			"max":[
				0.7538958787918091,
				2.938239097595215,
				0.6663689017295837
			],
			"min":[
				-0.7646345496177673,
				1.343523621559143,
				-0.6982659101486206
			],
			"type":"VEC3"
		},
		{
			"bufferView":5,
			"componentType":5126,
			"count":1824,
			"type":"VEC3"
		},
		{
			"bufferView":6,
			"componentType":5126,
			"count":1824,
			"type":"VEC2"
		},
		{
			"bufferView":7,
			"componentType":5121,
			"count":1824,
			"type":"VEC4"
		},
		{
			"bufferView":8,
			"componentType":5126,
			"count":1824,
			"type":"VEC4"
		},
		{
			"bufferView":9,
			"componentType":5123,
			"count":2610,
			"type":"SCALAR"
		},
		{
			"bufferView":10,
			"componentType":5126,
			"count":512,
			"max":[
				1.438090443611145,
				2.567798614501953,
				0.14951364696025848
			],
			"min":[
				0.5254196524620056,
				2.2965798377990723,
				-0.14795425534248352
			],
			"type":"VEC3"
		},
		{
			"bufferView":11,
			"componentType":5126,
			"count":512,
			"type":"VEC3"
		},
		{
			"bufferView":12,
			"componentType":5126,
			"count":512,
			"type":"VEC2"
		},
		{
			"bufferView":13,
			"componentType":5121,
			"count":512,
			"type":"VEC4"
		},
		{
			"bufferView":14,
			"componentType":5126,
			"count":512,
			"type":"VEC4"
		},
		{
			"bufferView":15,
			"componentType":5123,
			"count":690,
			"type":"SCALAR"
		},
		{
			"bufferView":16,
			"componentType":5126,
			"count":502,
			"max":[
				-0.5308509469032288,
				2.567798614501953,
				0.14951364696025848
			],
			"min":[
				-1.4435216188430786,
				2.2965798377990723,
				-0.14795425534248352
			],
			"type":"VEC3"
		},
		{
			"bufferView":17,
			"componentType":5126,
			"count":502,
			"type":"VEC3"
		},
		{
			"bufferView":18,
			"componentType":5126,
			"count":502,
			"type":"VEC2"
		},
		{
			"bufferView":19,
			"componentType":5121,
			"count":502,
			"type":"VEC4"
		},
		{
			"bufferView":20,
			"componentType":5126,
			"count":502,
			"type":"VEC4"
		},
		{
			"bufferView":21,
			"componentType":5123,
			"count":684,
			"type":"SCALAR"
		},
		{
			"bufferView":22,
			"componentType":5126,
			"count":62,
			"max":[
				0.87190842628479,
				0.2298429310321808,
				0.6979321241378784
			],
			"min":[
				0.3760252892971039,
				-0.020304622128605843,
				-0.24984411895275116
			],
			"type":"VEC3"
		},
		{
			"bufferView":23,
			"componentType":5126,
			"count":62,
			"type":"VEC3"
		},
		{
			"bufferView":24,
			"componentType":5126,
			"count":62,
			"type":"VEC2"
		},
		{
			"bufferView":25,
			"componentType":5121,
			"count":62,
			"type":"VEC4"
		},
		{
			"bufferView":26,
			"componentType":5126,
			"count":62,
			"type":"VEC4"
		},
		{
			"bufferView":27,
			"componentType":5123,
			"count":96,
			"type":"SCALAR"
		},
		{
			"bufferView":28,
			"componentType":5126,
			"count":62,
			"max":[
				-0.3899643123149872,
				0.2298429310321808,
				0.6979321241378784
			],
			"min":[
				-0.8858474493026733,
				-0.020304622128605843,
				-0.24984411895275116
			],
			"type":"VEC3"
		},
		{
			"bufferView":29,
			"componentType":5126,
			"count":62,
			"type":"VEC3"
		},
		{
			"bufferView":30,
			"componentType":5126,
			"count":62,
			"type":"VEC2"
		},
		{
			"bufferView":31,
			"componentType":5121,
			"count":62,
			"type":"VEC4"
		},
		{
			"bufferView":32,
			"componentType":5126,
			"count":62,
			"type":"VEC4"
		},
		{
			"bufferView":33,
			"componentType":5123,
			"count":96,
			"type":"SCALAR"
		},
		{
			"bufferView":34,
			"componentType":5126,
			"count":564,
			"max":[
				3.3065593242645264,
				2.9173667430877686,
				0.48776206374168396
			],
			"min":[
				1.4027421474456787,
				2.0571558475494385,
				-0.3782711923122406
			],
			"type":"VEC3"
		},
		{
			"bufferView":35,
			"componentType":5126,
			"count":564,
			"type":"VEC3"
		},
		{
			"bufferView":36,
			"componentType":5126,
			"count":564,
			"type":"VEC2"
		},
		{
			"bufferView":37,
			"componentType":5121,
			"count":564,
			"type":"VEC4"
		},
		{
			"bufferView":38,
			"componentType":5126,
			"count":564,
			"type":"VEC4"
		},
		{
			"bufferView":39,
			"componentType":5123,
			"count":816,
			"type":"SCALAR"
		},
		{
			"bufferView":40,
			"componentType":5126,
			"count":564,
			"max":[
				-1.4081733226776123,
				2.9173667430877686,
				0.48776206374168396
			],
			"min":[
				-3.31199049949646,
				2.0571558475494385,
				-0.3782711923122406
			],
			"type":"VEC3"
		},
		{
			"bufferView":41,
			"componentType":5126,
			"count":564,
			"type":"VEC3"
		},
		{
			"bufferView":42,
			"componentType":5126,
			"count":564,
			"type":"VEC2"
		},
		{
			"bufferView":43,
			"componentType":5121,
			"count":564,
			"type":"VEC4"
		},
		{
			"bufferView":44,
			"componentType":5126,
			"count":564,
			"type":"VEC4"
		},
		{
			"bufferView":45,
			"componentType":5123,
			"count":816,
			"type":"SCALAR"
		},
		{
			"bufferView":46,
			"componentType":5126,
			"count":1746,
			"max":[
				1.317866563796997,
				4.513190269470215,
				1.3462167978286743
			],
			"min":[
				-1.3232977390289307,
				2.8573720455169678,
				-1.2705360651016235
			],
			"type":"VEC3"
		},
		{
			"bufferView":47,
			"componentType":5126,
			"count":1746,
			"type":"VEC3"
		},
		{
			"bufferView":48,
			"componentType":5126,
			"count":1746,
			"type":"VEC2"
		},
		{
			"bufferView":49,
			"componentType":5121,
			"count":1746,
			"type":"VEC4"
		},
		{
			"bufferView":50,
			"componentType":5126,
			"count":1746,
			"type":"VEC4"
		},
		{
			"bufferView":51,
			"componentType":5123,
			"count":2430,
			"type":"SCALAR"
		},
		{
			"bufferView":52,
			"componentType":5126,
			"count":270,
			"max":[
				0.7363483905792236,
				1.4691874980926514,
				0.09054938703775406
			],
			"min":[
				0.5110872983932495,
				0.8003320097923279,
				-0.12406980246305466
			],
			"type":"VEC3"
		},
		{
			"bufferView":53,
			"componentType":5126,
			"count":270,
			"type":"VEC3"
		},
		{
			"bufferView":54,
			"componentType":5126,
			"count":270,
			"type":"VEC2"
		},
		{
			"bufferView":55,
			"componentType":5121,
			"count":270,
			"type":"VEC4"
		},
		{
			"bufferView":56,
			"componentType":5126,
			"count":270,
			"type":"VEC4"
		},
		{
			"bufferView":57,
			"componentType":5123,
			"count":294,
			"type":"SCALAR"
		},
		{
			"bufferView":58,
			"componentType":5126,
			"count":270,
			"max":[
				-0.5250263214111328,
				1.4691874980926514,
				0.09054937958717346
			],
			"min":[
				-0.7502874135971069,
				0.8003320097923279,
				-0.12406980991363525
			],
			"type":"VEC3"
		},
		{
			"bufferView":59,
			"componentType":5126,
			"count":270,
			"type":"VEC3"
		},
		{
			"bufferView":60,
			"componentType":5126,
			"count":270,
			"type":"VEC2"
		},
		{
			"bufferView":61,
			"componentType":5121,
			"count":270,
			"type":"VEC4"
		},
		{
			"bufferView":62,
			"componentType":5126,
			"count":270,
			"type":"VEC4"
		},
		{
			"bufferView":63,
			"componentType":5123,
			"count":294,
			"type":"SCALAR"
		},
		{
			"bufferView":64,
			"componentType":5126,
			"count":370,
			"max":[
				0.9072696566581726,
				0.8156315088272095,
				0.24926671385765076
			],
			"min":[
				0.34065356850624084,
				0.056191809475421906,
				-0.2905823588371277
			],
			"type":"VEC3"
		},
		{
			"bufferView":65,
			"componentType":5126,
			"count":370,
			"type":"VEC3"
		},
		{
			"bufferView":66,
			"componentType":5126,
			"count":370,
			"type":"VEC2"
		},
		{
			"bufferView":67,
			"componentType":5121,
			"count":370,
			"type":"VEC4"
		},
		{
			"bufferView":68,
			"componentType":5126,
			"count":370,
			"type":"VEC4"
		},
		{
			"bufferView":69,
			"componentType":5123,
			"count":438,
			"type":"SCALAR"
		},
		{
			"bufferView":70,
			"componentType":5126,
			"count":370,
			"max":[
				-0.35459259152412415,
				0.8156315088272095,
				0.24926671385765076
			],
			"min":[
				-0.9212086796760559,
				0.056191809475421906,
				-0.2905823588371277
			],
			"type":"VEC3"
		},
		{
			"bufferView":71,
			"componentType":5126,
			"count":370,
			"type":"VEC3"
		},
		{
			"bufferView":72,
			"componentType":5126,
			"count":370,
			"type":"VEC2"
		},
		{
			"bufferView":73,
			"componentType":5121,
			"count":370,
			"type":"VEC4"
		},
		{
			"bufferView":74,
			"componentType":5126,
			"count":370,
			"type":"VEC4"
		},
		{
			"bufferView":75,
			"componentType":5123,
			"count":438,
			"type":"SCALAR"
		},
		{
			"bufferView":76,
			"componentType":5126,
			"count":12,
			"type":"MAT4"
		},
		{
			"bufferView":77,
			"componentType":5126,
			"count":2,
			"max":[
				1.875
			],
			"min":[
				0.041666666666666664
			],
			"type":"SCALAR"
		},
		{
			"bufferView":78,
			"componentType":5126,
			"count":2,
			"type":"VEC3"
		},
		{
			"bufferView":79,
			"componentType":5126,
			"count":2,
			"type":"VEC4"
		},
		{
			"bufferView":80,
			"componentType":5126,
			"count":2,
			"type":"VEC3"
		},
		{
			"bufferView":81,
			"componentType":5126,
			"count":2,
			"type":"VEC3"
		},
		{
			"bufferView":82,
			"componentType":5126,
			"count":2,
			"type":"VEC4"
		},
		{
			"bufferView":83,
			"componentType":5126,
			"count":2,
			"type":"VEC3"
		},
		{
			"bufferView":84,
			"componentType":5126,
			"count":2,
			"type":"VEC3"
		},
		{
			"bufferView":85,
			"componentType":5126,
			"count":45,
			"max":[
				1.875
			],
			"min":[
				0.041666666666666664
			],
			"type":"SCALAR"
		},
		{
			"bufferView":86,
			"componentType":5126,
			"count":45,
			"type":"VEC4"
		},
		{
			"bufferView":87,
			"componentType":5126,
			"count":2,
			"type":"VEC3"
		},
		{
			"bufferView":88,
			"componentType":5126,
			"count":2,
			"type":"VEC3"
		},
		{
			"bufferView":89,
			"componentType":5126,
			"count":45,
			"type":"VEC4"
		},
		{
			"bufferView":90,
			"componentType":5126,
			"count":2,
			"type":"VEC3"
		},
		{
			"bufferView":91,
			"componentType":5126,
			"count":2,
			"type":"VEC3"
		},
		{
			"bufferView":92,
			"componentType":5126,
			"count":2,
			"type":"VEC4"
		},
		{
			"bufferView":93,
			"componentType":5126,
			"count":2,
			"type":"VEC3"
		},
		{
			"bufferView":94,
			"componentType":5126,
			"count":2,
			"type":"VEC3"
		},
		{
			"bufferView":95,
			"componentType":5126,
			"count":2,
			"type":"VEC4"
		},
		{
			"bufferView":96,
			"componentType":5126,
			"count":2,
			"type":"VEC3"
		},
		{
			"bufferView":97,
			"componentType":5126,
			"count":2,
			"type":"VEC4"
		},
		{
			"bufferView":98,
			"componentType":5126,
			"count":2,
			"type":"VEC3"
		},
		{
			"bufferView":99,
			"componentType":5126,
			"count":45,
			"type":"VEC4"
		},
		{
			"bufferView":100,
			"componentType":5126,
			"count":2,
			"type":"VEC3"
		},
		{
			"bufferView":101,
			"componentType":5126,
			"count":45,
			"type":"VEC4"
		},
		{
			"bufferView":102,
			"componentType":5126,
			"count":2,
			"type":"VEC3"
		},
		{
			"bufferView":103,
			"componentType":5126,
			"count":2,
			"type":"VEC3"
		},
		{
			"bufferView":104,
			"componentType":5126,
			"count":2,
			"type":"VEC4"
		},
		{
			"bufferView":105,
			"componentType":5126,
			"count":2,
			"type":"VEC3"
		},
		{
			"bufferView":106,
			"componentType":5126,
			"count":2,
			"type":"VEC4"
		},
		{
			"bufferView":107,
			"componentType":5126,
			"count":2,
			"type":"VEC3"
		},
		{
			"bufferView":108,
			"componentType":5126,
			"count":2,
			"type":"VEC4"
		},
		{
			"bufferView":109,
			"componentType":5126,
			"count":1,
			"type":"MAT4"
		}
	],
	"bufferViews":[
		{
			"buffer":0,
			"byteLength":2880,
			"byteOffset":0,
			"target":34962
		},
		{
			"buffer":0,
			"byteLength":2880,
			"byteOffset":2880,
			"target":34962
		},
		{
			"buffer":0,
			"byteLength":1920,
			"byteOffset":5760,
			"target":34962
		},
		{
			"buffer":0,
			"byteLength":480,
			"byteOffset":7680,
			"target":34963
		},
		{
			"buffer":0,
			"byteLength":21888,
			"byteOffset":8160,
			"target":34962
		},
		{
			"buffer":0,
			"byteLength":21888,
			"byteOffset":30048,
			"target":34962
		},
		{
			"buffer":0,
			"byteLength":14592,
			"byteOffset":51936,
			"target":34962
		},
		{
			"buffer":0,
			"byteLength":7296,
			"byteOffset":66528,
			"target":34962
		},
		{
			"buffer":0,
			"byteLength":29184,
			"byteOffset":73824,
			"target":34962
		},
		{
			"buffer":0,
			"byteLength":5220,
			"byteOffset":103008,
			"target":34963
		},
		{
			"buffer":0,
			"byteLength":6144,
			"byteOffset":108228,
			"target":34962
		},
		{
			"buffer":0,
			"byteLength":6144,
			"byteOffset":114372,
			"target":34962
		},
		{
			"buffer":0,
			"byteLength":4096,
			"byteOffset":120516,
			"target":34962
		},
		{
			"buffer":0,
			"byteLength":2048,
			"byteOffset":124612,
			"target":34962
		},
		{
			"buffer":0,
			"byteLength":8192,
			"byteOffset":126660,
			"target":34962
		},
		{
			"buffer":0,
			"byteLength":1380,
			"byteOffset":134852,
			"target":34963
		},
		{
			"buffer":0,
			"byteLength":6024,
			"byteOffset":136232,
			"target":34962
		},
		{
			"buffer":0,
			"byteLength":6024,
			"byteOffset":142256,
			"target":34962
		},
		{
			"buffer":0,
			"byteLength":4016,
			"byteOffset":148280,
			"target":34962
		},
		{
			"buffer":0,
			"byteLength":2008,
			"byteOffset":152296,
			"target":34962
		},
		{
			"buffer":0,
			"byteLength":8032,
			"byteOffset":154304,
			"target":34962
		},
		{
			"buffer":0,
			"byteLength":1368,
			"byteOffset":162336,
			"target":34963
		},
		{
			"buffer":0,
			"byteLength":744,
			"byteOffset":163704,
			"target":34962
		},
		{
			"buffer":0,
			"byteLength":744,
			"byteOffset":164448,
			"target":34962
		},
		{
			"buffer":0,
			"byteLength":496,
			"byteOffset":165192,
			"target":34962
		},
		{
			"buffer":0,
			"byteLength":248,
			"byteOffset":165688,
			"target":34962
		},
		{
			"buffer":0,
			"byteLength":992,
			"byteOffset":165936,
			"target":34962
		},
		{
			"buffer":0,
			"byteLength":192,
			"byteOffset":166928,
			"target":34963
		},
		{
			"buffer":0,
			"byteLength":744,
			"byteOffset":167120,
			"target":34962
		},
		{
			"buffer":0,
			"byteLength":744,
			"byteOffset":167864,
			"target":34962
		},
		{
			"buffer":0,
			"byteLength":496,
			"byteOffset":168608,
			"target":34962
		},
		{
			"buffer":0,
			"byteLength":248,
			"byteOffset":169104,
			"target":34962
		},
		{
			"buffer":0,
			"byteLength":992,
			"byteOffset":169352,
			"target":34962
		},
		{
			"buffer":0,
			"byteLength":192,
			"byteOffset":170344,
			"target":34963
		},
		{
			"buffer":0,
			"byteLength":6768,
			"byteOffset":170536,
			"target":34962
		},
		{
			"buffer":0,
			"byteLength":6768,
			"byteOffset":177304,
			"target":34962
		},
		{
			"buffer":0,
			"byteLength":4512,
			"byteOffset":184072,
			"target":34962
		},
		{
			"buffer":0,
			"byteLength":2256,
			"byteOffset":188584,
			"target":34962
		},
		{
			"buffer":0,
			"byteLength":9024,
			"byteOffset":190840,
			"target":34962
		},
		{
			"buffer":0,
			"byteLength":1632,
			"byteOffset":199864,
			"target":34963
		},
		{
			"buffer":0,
			"byteLength":6768,
			"byteOffset":201496,
			"target":34962
		},
		{
			"buffer":0,
			"byteLength":6768,
			"byteOffset":208264,
			"target":34962
		},
		{
			"buffer":0,
			"byteLength":4512,
			"byteOffset":215032,
			"target":34962
		},
		{
			"buffer":0,
			"byteLength":2256,
			"byteOffset":219544,
			"target":34962
		},
		{
			"buffer":0,
			"byteLength":9024,
			"byteOffset":221800,
			"target":34962
		},
		{
			"buffer":0,
			"byteLength":1632,
			"byteOffset":230824,
			"target":34963
		},
		{
			"buffer":0,
			"byteLength":20952,
			"byteOffset":232456,
			"target":34962
		},
		{
			"buffer":0,
			"byteLength":20952,
			"byteOffset":253408,
			"target":34962
		},
		{
			"buffer":0,
			"byteLength":13968,
			"byteOffset":274360,
			"target":34962
		},
		{
			"buffer":0,
			"byteLength":6984,
			"byteOffset":288328,
			"target":34962
		},
		{
			"buffer":0,
			"byteLength":27936,
			"byteOffset":295312,
			"target":34962
		},
		{
			"buffer":0,
			"byteLength":4860,
			"byteOffset":323248,
			"target":34963
		},
		{
			"buffer":0,
			"byteLength":3240,
			"byteOffset":328108,
			"target":34962
		},
		{
			"buffer":0,
			"byteLength":3240,
			"byteOffset":331348,
			"target":34962
		},
		{
			"buffer":0,
			"byteLength":2160,
			"byteOffset":334588,
			"target":34962
		},
		{
			"buffer":0,
			"byteLength":1080,
			"byteOffset":336748,
			"target":34962
		},
		{
			"buffer":0,
			"byteLength":4320,
			"byteOffset":337828,
			"target":34962
		},
		{
			"buffer":0,
			"byteLength":588,
			"byteOffset":342148,
			"target":34963
		},
		{
			"buffer":0,
			"byteLength":3240,
			"byteOffset":342736,
			"target":34962
		},
		{
			"buffer":0,
			"byteLength":3240,
			"byteOffset":345976,
			"target":34962
		},
		{
			"buffer":0,
			"byteLength":2160,
			"byteOffset":349216,
			"target":34962
		},
		{
			"buffer":0,
			"byteLength":1080,
			"byteOffset":351376,
			"target":34962
		},
		{
			"buffer":0,
			"byteLength":4320,
			"byteOffset":352456,
			"target":34962
		},
		{
			"buffer":0,
			"byteLength":588,
			"byteOffset":356776,
			"target":34963
		},
		{
			"buffer":0,
			"byteLength":4440,
			"byteOffset":357364,
			"target":34962
		},
		{
			"buffer":0,
			"byteLength":4440,
			"byteOffset":361804,
			"target":34962
		},
		{
			"buffer":0,
			"byteLength":2960,
			"byteOffset":366244,
			"target":34962
		},
		{
			"buffer":0,
			"byteLength":1480,
			"byteOffset":369204,
			"target":34962
		},
		{
			"buffer":0,
			"byteLength":5920,
			"byteOffset":370684,
			"target":34962
		},
		{
			"buffer":0,
			"byteLength":876,
			"byteOffset":376604,
			"target":34963
		},
		{
			"buffer":0,
			"byteLength":4440,
			"byteOffset":377480,
			"target":34962
		},
		{
			"buffer":0,
			"byteLength":4440,
			"byteOffset":381920,
			"target":34962
		},
		{
			"buffer":0,
			"byteLength":2960,
			"byteOffset":386360,
			"target":34962
		},
		{
			"buffer":0,
			"byteLength":1480,
			"byteOffset":389320,
			"target":34962
		},
		{
			"buffer":0,
			"byteLength":5920,
			"byteOffset":390800,
			"target":34962
		},
		{
			"buffer":0,
			"byteLength":876,
			"byteOffset":396720,
			"target":34963
		},
		{
			"buffer":0,
			"byteLength":768,
			"byteOffset":397596
		},
		{
			"buffer":0,
			"byteLength":8,
			"byteOffset":398364
		},
		{
			"buffer":0,
			"byteLength":24,
			"byteOffset":398372
		},
		{
			"buffer":0,
			"byteLength":32,
			"byteOffset":398396
		},
		{
			"buffer":0,
			"byteLength":24,
			"byteOffset":398428
		},
		{
			"buffer":0,
			"byteLength":24,
			"byteOffset":398452
		},
		{
			"buffer":0,
			"byteLength":32,
			"byteOffset":398476
		},
		{
			"buffer":0,
			"byteLength":24,
			"byteOffset":398508
		},
		{
			"buffer":0,
			"byteLength":24,
			"byteOffset":398532
		},
		{
			"buffer":0,
			"byteLength":180,
			"byteOffset":398556
		},
		{
			"buffer":0,
			"byteLength":720,
			"byteOffset":398736
		},
		{
			"buffer":0,
			"byteLength":24,
			"byteOffset":399456
		},
		{
			"buffer":0,
			"byteLength":24,
			"byteOffset":399480
		},
		{
			"buffer":0,
			"byteLength":720,
			"byteOffset":399504
		},
		{
			"buffer":0,
			"byteLength":24,
			"byteOffset":400224
		},
		{
			"buffer":0,
			"byteLength":24,
			"byteOffset":400248
		},
		{
			"buffer":0,
			"byteLength":32,
			"byteOffset":400272
		},
		{
			"buffer":0,
			"byteLength":24,
			"byteOffset":400304
		},
		{
			"buffer":0,
			"byteLength":24,
			"byteOffset":400328
		},
		{
			"buffer":0,
			"byteLength":32,
			"byteOffset":400352
		},
		{
			"buffer":0,
			"byteLength":24,
			"byteOffset":400384
		},
		{
			"buffer":0,
			"byteLength":32,
			"byteOffset":400408
		},
		{
			"buffer":0,
			"byteLength":24,
			"byteOffset":400440
		},
		{
			"buffer":0,
			"byteLength":720,
			"byteOffset":400464
		},
		{
			"buffer":0,
			"byteLength":24,
			"byteOffset":401184
		},
		{
			"buffer":0,
			"byteLength":720,
			"byteOffset":401208
		},
		{
			"buffer":0,
			"byteLength":24,
			"byteOffset":401928
		},
		{
			"buffer":0,
			"byteLength":24,
			"byteOffset":401952
		},
		{
			"buffer":0,
			"byteLength":32,
			"byteOffset":401976
		},
		{
			"buffer":0,
			"byteLength":24,
			"byteOffset":402008
		},
		{
			"buffer":0,
			"byteLength":32,
			"byteOffset":402032
		},
		{
			"buffer":0,
			"byteLength":24,
			"byteOffset":402064
		},
		{
			"buffer":0,
			"byteLength":32,
			"byteOffset":402088
		},
		{
			"buffer":0,
			"byteLength":64,
			"byteOffset":402120
		}
	],
	"samplers":[
		{
			"magFilter":9729,
			"minFilter":9987
		}
	],
	"buffers":[
		{
			"byteLength":402184,
			"uri":"Robot.bin"
		}
	]
}
